G75*
%MOIN*%
%OFA0B0*%
%FSLAX25Y25*%
%IPPOS*%
%LPD*%
%AMOC8*
5,1,8,0,0,1.08239X$1,22.5*
%
%ADD10C,0.00000*%
D10*
X0018750Y0004000D02*
X0018750Y0134866D01*
X0277510Y0134866D01*
X0277510Y0004000D01*
X0018750Y0004000D01*
X0026624Y0120693D02*
X0026626Y0120846D01*
X0026632Y0121000D01*
X0026642Y0121153D01*
X0026656Y0121305D01*
X0026674Y0121458D01*
X0026696Y0121609D01*
X0026721Y0121760D01*
X0026751Y0121911D01*
X0026785Y0122061D01*
X0026822Y0122209D01*
X0026863Y0122357D01*
X0026908Y0122503D01*
X0026957Y0122649D01*
X0027010Y0122793D01*
X0027066Y0122935D01*
X0027126Y0123076D01*
X0027190Y0123216D01*
X0027257Y0123354D01*
X0027328Y0123490D01*
X0027403Y0123624D01*
X0027480Y0123756D01*
X0027562Y0123886D01*
X0027646Y0124014D01*
X0027734Y0124140D01*
X0027825Y0124263D01*
X0027919Y0124384D01*
X0028017Y0124502D01*
X0028117Y0124618D01*
X0028221Y0124731D01*
X0028327Y0124842D01*
X0028436Y0124950D01*
X0028548Y0125055D01*
X0028662Y0125156D01*
X0028780Y0125255D01*
X0028899Y0125351D01*
X0029021Y0125444D01*
X0029146Y0125533D01*
X0029273Y0125620D01*
X0029402Y0125702D01*
X0029533Y0125782D01*
X0029666Y0125858D01*
X0029801Y0125931D01*
X0029938Y0126000D01*
X0030077Y0126065D01*
X0030217Y0126127D01*
X0030359Y0126185D01*
X0030502Y0126240D01*
X0030647Y0126291D01*
X0030793Y0126338D01*
X0030940Y0126381D01*
X0031088Y0126420D01*
X0031237Y0126456D01*
X0031387Y0126487D01*
X0031538Y0126515D01*
X0031689Y0126539D01*
X0031842Y0126559D01*
X0031994Y0126575D01*
X0032147Y0126587D01*
X0032300Y0126595D01*
X0032453Y0126599D01*
X0032607Y0126599D01*
X0032760Y0126595D01*
X0032913Y0126587D01*
X0033066Y0126575D01*
X0033218Y0126559D01*
X0033371Y0126539D01*
X0033522Y0126515D01*
X0033673Y0126487D01*
X0033823Y0126456D01*
X0033972Y0126420D01*
X0034120Y0126381D01*
X0034267Y0126338D01*
X0034413Y0126291D01*
X0034558Y0126240D01*
X0034701Y0126185D01*
X0034843Y0126127D01*
X0034983Y0126065D01*
X0035122Y0126000D01*
X0035259Y0125931D01*
X0035394Y0125858D01*
X0035527Y0125782D01*
X0035658Y0125702D01*
X0035787Y0125620D01*
X0035914Y0125533D01*
X0036039Y0125444D01*
X0036161Y0125351D01*
X0036280Y0125255D01*
X0036398Y0125156D01*
X0036512Y0125055D01*
X0036624Y0124950D01*
X0036733Y0124842D01*
X0036839Y0124731D01*
X0036943Y0124618D01*
X0037043Y0124502D01*
X0037141Y0124384D01*
X0037235Y0124263D01*
X0037326Y0124140D01*
X0037414Y0124014D01*
X0037498Y0123886D01*
X0037580Y0123756D01*
X0037657Y0123624D01*
X0037732Y0123490D01*
X0037803Y0123354D01*
X0037870Y0123216D01*
X0037934Y0123076D01*
X0037994Y0122935D01*
X0038050Y0122793D01*
X0038103Y0122649D01*
X0038152Y0122503D01*
X0038197Y0122357D01*
X0038238Y0122209D01*
X0038275Y0122061D01*
X0038309Y0121911D01*
X0038339Y0121760D01*
X0038364Y0121609D01*
X0038386Y0121458D01*
X0038404Y0121305D01*
X0038418Y0121153D01*
X0038428Y0121000D01*
X0038434Y0120846D01*
X0038436Y0120693D01*
X0038434Y0120540D01*
X0038428Y0120386D01*
X0038418Y0120233D01*
X0038404Y0120081D01*
X0038386Y0119928D01*
X0038364Y0119777D01*
X0038339Y0119626D01*
X0038309Y0119475D01*
X0038275Y0119325D01*
X0038238Y0119177D01*
X0038197Y0119029D01*
X0038152Y0118883D01*
X0038103Y0118737D01*
X0038050Y0118593D01*
X0037994Y0118451D01*
X0037934Y0118310D01*
X0037870Y0118170D01*
X0037803Y0118032D01*
X0037732Y0117896D01*
X0037657Y0117762D01*
X0037580Y0117630D01*
X0037498Y0117500D01*
X0037414Y0117372D01*
X0037326Y0117246D01*
X0037235Y0117123D01*
X0037141Y0117002D01*
X0037043Y0116884D01*
X0036943Y0116768D01*
X0036839Y0116655D01*
X0036733Y0116544D01*
X0036624Y0116436D01*
X0036512Y0116331D01*
X0036398Y0116230D01*
X0036280Y0116131D01*
X0036161Y0116035D01*
X0036039Y0115942D01*
X0035914Y0115853D01*
X0035787Y0115766D01*
X0035658Y0115684D01*
X0035527Y0115604D01*
X0035394Y0115528D01*
X0035259Y0115455D01*
X0035122Y0115386D01*
X0034983Y0115321D01*
X0034843Y0115259D01*
X0034701Y0115201D01*
X0034558Y0115146D01*
X0034413Y0115095D01*
X0034267Y0115048D01*
X0034120Y0115005D01*
X0033972Y0114966D01*
X0033823Y0114930D01*
X0033673Y0114899D01*
X0033522Y0114871D01*
X0033371Y0114847D01*
X0033218Y0114827D01*
X0033066Y0114811D01*
X0032913Y0114799D01*
X0032760Y0114791D01*
X0032607Y0114787D01*
X0032453Y0114787D01*
X0032300Y0114791D01*
X0032147Y0114799D01*
X0031994Y0114811D01*
X0031842Y0114827D01*
X0031689Y0114847D01*
X0031538Y0114871D01*
X0031387Y0114899D01*
X0031237Y0114930D01*
X0031088Y0114966D01*
X0030940Y0115005D01*
X0030793Y0115048D01*
X0030647Y0115095D01*
X0030502Y0115146D01*
X0030359Y0115201D01*
X0030217Y0115259D01*
X0030077Y0115321D01*
X0029938Y0115386D01*
X0029801Y0115455D01*
X0029666Y0115528D01*
X0029533Y0115604D01*
X0029402Y0115684D01*
X0029273Y0115766D01*
X0029146Y0115853D01*
X0029021Y0115942D01*
X0028899Y0116035D01*
X0028780Y0116131D01*
X0028662Y0116230D01*
X0028548Y0116331D01*
X0028436Y0116436D01*
X0028327Y0116544D01*
X0028221Y0116655D01*
X0028117Y0116768D01*
X0028017Y0116884D01*
X0027919Y0117002D01*
X0027825Y0117123D01*
X0027734Y0117246D01*
X0027646Y0117372D01*
X0027562Y0117500D01*
X0027480Y0117630D01*
X0027403Y0117762D01*
X0027328Y0117896D01*
X0027257Y0118032D01*
X0027190Y0118170D01*
X0027126Y0118310D01*
X0027066Y0118451D01*
X0027010Y0118593D01*
X0026957Y0118737D01*
X0026908Y0118883D01*
X0026863Y0119029D01*
X0026822Y0119177D01*
X0026785Y0119325D01*
X0026751Y0119475D01*
X0026721Y0119626D01*
X0026696Y0119777D01*
X0026674Y0119928D01*
X0026656Y0120081D01*
X0026642Y0120233D01*
X0026632Y0120386D01*
X0026626Y0120540D01*
X0026624Y0120693D01*
X0254970Y0120693D02*
X0254972Y0120846D01*
X0254978Y0121000D01*
X0254988Y0121153D01*
X0255002Y0121305D01*
X0255020Y0121458D01*
X0255042Y0121609D01*
X0255067Y0121760D01*
X0255097Y0121911D01*
X0255131Y0122061D01*
X0255168Y0122209D01*
X0255209Y0122357D01*
X0255254Y0122503D01*
X0255303Y0122649D01*
X0255356Y0122793D01*
X0255412Y0122935D01*
X0255472Y0123076D01*
X0255536Y0123216D01*
X0255603Y0123354D01*
X0255674Y0123490D01*
X0255749Y0123624D01*
X0255826Y0123756D01*
X0255908Y0123886D01*
X0255992Y0124014D01*
X0256080Y0124140D01*
X0256171Y0124263D01*
X0256265Y0124384D01*
X0256363Y0124502D01*
X0256463Y0124618D01*
X0256567Y0124731D01*
X0256673Y0124842D01*
X0256782Y0124950D01*
X0256894Y0125055D01*
X0257008Y0125156D01*
X0257126Y0125255D01*
X0257245Y0125351D01*
X0257367Y0125444D01*
X0257492Y0125533D01*
X0257619Y0125620D01*
X0257748Y0125702D01*
X0257879Y0125782D01*
X0258012Y0125858D01*
X0258147Y0125931D01*
X0258284Y0126000D01*
X0258423Y0126065D01*
X0258563Y0126127D01*
X0258705Y0126185D01*
X0258848Y0126240D01*
X0258993Y0126291D01*
X0259139Y0126338D01*
X0259286Y0126381D01*
X0259434Y0126420D01*
X0259583Y0126456D01*
X0259733Y0126487D01*
X0259884Y0126515D01*
X0260035Y0126539D01*
X0260188Y0126559D01*
X0260340Y0126575D01*
X0260493Y0126587D01*
X0260646Y0126595D01*
X0260799Y0126599D01*
X0260953Y0126599D01*
X0261106Y0126595D01*
X0261259Y0126587D01*
X0261412Y0126575D01*
X0261564Y0126559D01*
X0261717Y0126539D01*
X0261868Y0126515D01*
X0262019Y0126487D01*
X0262169Y0126456D01*
X0262318Y0126420D01*
X0262466Y0126381D01*
X0262613Y0126338D01*
X0262759Y0126291D01*
X0262904Y0126240D01*
X0263047Y0126185D01*
X0263189Y0126127D01*
X0263329Y0126065D01*
X0263468Y0126000D01*
X0263605Y0125931D01*
X0263740Y0125858D01*
X0263873Y0125782D01*
X0264004Y0125702D01*
X0264133Y0125620D01*
X0264260Y0125533D01*
X0264385Y0125444D01*
X0264507Y0125351D01*
X0264626Y0125255D01*
X0264744Y0125156D01*
X0264858Y0125055D01*
X0264970Y0124950D01*
X0265079Y0124842D01*
X0265185Y0124731D01*
X0265289Y0124618D01*
X0265389Y0124502D01*
X0265487Y0124384D01*
X0265581Y0124263D01*
X0265672Y0124140D01*
X0265760Y0124014D01*
X0265844Y0123886D01*
X0265926Y0123756D01*
X0266003Y0123624D01*
X0266078Y0123490D01*
X0266149Y0123354D01*
X0266216Y0123216D01*
X0266280Y0123076D01*
X0266340Y0122935D01*
X0266396Y0122793D01*
X0266449Y0122649D01*
X0266498Y0122503D01*
X0266543Y0122357D01*
X0266584Y0122209D01*
X0266621Y0122061D01*
X0266655Y0121911D01*
X0266685Y0121760D01*
X0266710Y0121609D01*
X0266732Y0121458D01*
X0266750Y0121305D01*
X0266764Y0121153D01*
X0266774Y0121000D01*
X0266780Y0120846D01*
X0266782Y0120693D01*
X0266780Y0120540D01*
X0266774Y0120386D01*
X0266764Y0120233D01*
X0266750Y0120081D01*
X0266732Y0119928D01*
X0266710Y0119777D01*
X0266685Y0119626D01*
X0266655Y0119475D01*
X0266621Y0119325D01*
X0266584Y0119177D01*
X0266543Y0119029D01*
X0266498Y0118883D01*
X0266449Y0118737D01*
X0266396Y0118593D01*
X0266340Y0118451D01*
X0266280Y0118310D01*
X0266216Y0118170D01*
X0266149Y0118032D01*
X0266078Y0117896D01*
X0266003Y0117762D01*
X0265926Y0117630D01*
X0265844Y0117500D01*
X0265760Y0117372D01*
X0265672Y0117246D01*
X0265581Y0117123D01*
X0265487Y0117002D01*
X0265389Y0116884D01*
X0265289Y0116768D01*
X0265185Y0116655D01*
X0265079Y0116544D01*
X0264970Y0116436D01*
X0264858Y0116331D01*
X0264744Y0116230D01*
X0264626Y0116131D01*
X0264507Y0116035D01*
X0264385Y0115942D01*
X0264260Y0115853D01*
X0264133Y0115766D01*
X0264004Y0115684D01*
X0263873Y0115604D01*
X0263740Y0115528D01*
X0263605Y0115455D01*
X0263468Y0115386D01*
X0263329Y0115321D01*
X0263189Y0115259D01*
X0263047Y0115201D01*
X0262904Y0115146D01*
X0262759Y0115095D01*
X0262613Y0115048D01*
X0262466Y0115005D01*
X0262318Y0114966D01*
X0262169Y0114930D01*
X0262019Y0114899D01*
X0261868Y0114871D01*
X0261717Y0114847D01*
X0261564Y0114827D01*
X0261412Y0114811D01*
X0261259Y0114799D01*
X0261106Y0114791D01*
X0260953Y0114787D01*
X0260799Y0114787D01*
X0260646Y0114791D01*
X0260493Y0114799D01*
X0260340Y0114811D01*
X0260188Y0114827D01*
X0260035Y0114847D01*
X0259884Y0114871D01*
X0259733Y0114899D01*
X0259583Y0114930D01*
X0259434Y0114966D01*
X0259286Y0115005D01*
X0259139Y0115048D01*
X0258993Y0115095D01*
X0258848Y0115146D01*
X0258705Y0115201D01*
X0258563Y0115259D01*
X0258423Y0115321D01*
X0258284Y0115386D01*
X0258147Y0115455D01*
X0258012Y0115528D01*
X0257879Y0115604D01*
X0257748Y0115684D01*
X0257619Y0115766D01*
X0257492Y0115853D01*
X0257367Y0115942D01*
X0257245Y0116035D01*
X0257126Y0116131D01*
X0257008Y0116230D01*
X0256894Y0116331D01*
X0256782Y0116436D01*
X0256673Y0116544D01*
X0256567Y0116655D01*
X0256463Y0116768D01*
X0256363Y0116884D01*
X0256265Y0117002D01*
X0256171Y0117123D01*
X0256080Y0117246D01*
X0255992Y0117372D01*
X0255908Y0117500D01*
X0255826Y0117630D01*
X0255749Y0117762D01*
X0255674Y0117896D01*
X0255603Y0118032D01*
X0255536Y0118170D01*
X0255472Y0118310D01*
X0255412Y0118451D01*
X0255356Y0118593D01*
X0255303Y0118737D01*
X0255254Y0118883D01*
X0255209Y0119029D01*
X0255168Y0119177D01*
X0255131Y0119325D01*
X0255097Y0119475D01*
X0255067Y0119626D01*
X0255042Y0119777D01*
X0255020Y0119928D01*
X0255002Y0120081D01*
X0254988Y0120233D01*
X0254978Y0120386D01*
X0254972Y0120540D01*
X0254970Y0120693D01*
M02*
