G75*
%MOIN*%
%OFA0B0*%
%FSLAX25Y25*%
%IPPOS*%
%LPD*%
%AMOC8*
5,1,8,0,0,1.08239X$1,22.5*
%
%ADD10R,0.06299X0.05118*%
%ADD11C,0.06000*%
%ADD12OC8,0.06000*%
%ADD13OC8,0.06600*%
%ADD14C,0.06299*%
%ADD15C,0.01000*%
%ADD16C,0.02400*%
%ADD17C,0.04000*%
D10*
X0220561Y0038134D03*
X0220561Y0045614D03*
X0233750Y0045614D03*
X0246585Y0045654D03*
X0246585Y0038173D03*
X0233750Y0038134D03*
D11*
X0228750Y0017000D02*
X0228750Y0011000D01*
X0218750Y0011000D02*
X0218750Y0017000D01*
X0208750Y0017000D02*
X0208750Y0011000D01*
X0198750Y0011000D02*
X0198750Y0017000D01*
X0171250Y0017000D02*
X0171250Y0011000D01*
X0161250Y0011000D02*
X0161250Y0017000D01*
X0151250Y0017000D02*
X0151250Y0011000D01*
X0141250Y0011000D02*
X0141250Y0017000D01*
X0131250Y0017000D02*
X0131250Y0011000D01*
X0121250Y0011000D02*
X0121250Y0017000D01*
X0111250Y0017000D02*
X0111250Y0011000D01*
X0101250Y0011000D02*
X0101250Y0017000D01*
X0091250Y0017000D02*
X0091250Y0011000D01*
X0081250Y0011000D02*
X0081250Y0017000D01*
X0071250Y0017000D02*
X0071250Y0011000D01*
X0061250Y0011000D02*
X0061250Y0017000D01*
X0051250Y0017000D02*
X0051250Y0011000D01*
X0041250Y0011000D02*
X0041250Y0017000D01*
X0031250Y0017000D02*
X0031250Y0011000D01*
X0030750Y0029000D02*
X0036750Y0029000D01*
X0036750Y0039000D02*
X0030750Y0039000D01*
X0030750Y0049000D02*
X0036750Y0049000D01*
X0036750Y0059000D02*
X0030750Y0059000D01*
X0031250Y0071000D02*
X0031250Y0077000D01*
X0041250Y0077000D02*
X0041250Y0071000D01*
X0051250Y0071000D02*
X0051250Y0077000D01*
X0061250Y0077000D02*
X0061250Y0071000D01*
X0071250Y0071000D02*
X0071250Y0077000D01*
X0081250Y0077000D02*
X0081250Y0071000D01*
X0091250Y0071000D02*
X0091250Y0077000D01*
X0101250Y0077000D02*
X0101250Y0071000D01*
X0111250Y0071000D02*
X0111250Y0077000D01*
X0121250Y0077000D02*
X0121250Y0071000D01*
X0131250Y0071000D02*
X0131250Y0077000D01*
X0141250Y0077000D02*
X0141250Y0071000D01*
X0151250Y0071000D02*
X0151250Y0077000D01*
X0161250Y0077000D02*
X0161250Y0071000D01*
X0171250Y0071000D02*
X0171250Y0077000D01*
X0198750Y0067000D02*
X0198750Y0061000D01*
X0208750Y0061000D02*
X0208750Y0067000D01*
X0218750Y0067000D02*
X0218750Y0061000D01*
X0228750Y0061000D02*
X0228750Y0067000D01*
X0238750Y0067000D02*
X0238750Y0061000D01*
X0248750Y0061000D02*
X0248750Y0067000D01*
X0258750Y0067000D02*
X0258750Y0061000D01*
X0268750Y0061000D02*
X0268750Y0067000D01*
X0188750Y0093500D02*
X0188750Y0099500D01*
X0178750Y0099500D02*
X0178750Y0093500D01*
X0168750Y0093500D02*
X0168750Y0099500D01*
X0158750Y0099500D02*
X0158750Y0093500D01*
X0148750Y0093500D02*
X0148750Y0099500D01*
X0133750Y0099500D02*
X0133750Y0093500D01*
X0123750Y0093500D02*
X0123750Y0099500D01*
X0113750Y0099500D02*
X0113750Y0093500D01*
X0103750Y0093500D02*
X0103750Y0099500D01*
X0093750Y0099500D02*
X0093750Y0093500D01*
X0078750Y0093500D02*
X0078750Y0099500D01*
X0068750Y0099500D02*
X0068750Y0093500D01*
X0058750Y0093500D02*
X0058750Y0099500D01*
X0048750Y0099500D02*
X0048750Y0093500D01*
X0238750Y0017000D02*
X0238750Y0011000D01*
X0248750Y0011000D02*
X0248750Y0017000D01*
X0258750Y0017000D02*
X0258750Y0011000D01*
X0268750Y0011000D02*
X0268750Y0017000D01*
D12*
X0240719Y0114906D03*
X0230719Y0114906D03*
X0220719Y0114906D03*
X0210719Y0114906D03*
X0200719Y0114906D03*
X0190719Y0114906D03*
X0180719Y0114906D03*
X0170719Y0114906D03*
X0160719Y0114906D03*
X0150719Y0114906D03*
X0140719Y0114906D03*
X0130719Y0114906D03*
X0120719Y0114906D03*
X0110719Y0114906D03*
X0100719Y0114906D03*
X0090719Y0114906D03*
X0080719Y0114906D03*
X0070719Y0114906D03*
X0060719Y0114906D03*
X0050719Y0114906D03*
X0050719Y0124906D03*
X0060719Y0124906D03*
X0070719Y0124906D03*
X0080719Y0124906D03*
X0090719Y0124906D03*
X0100719Y0124906D03*
X0110719Y0124906D03*
X0120719Y0124906D03*
X0130719Y0124906D03*
X0140719Y0124906D03*
X0150719Y0124906D03*
X0160719Y0124906D03*
X0170719Y0124906D03*
X0180719Y0124906D03*
X0190719Y0124906D03*
X0200719Y0124906D03*
X0210719Y0124906D03*
X0220719Y0124906D03*
X0230719Y0124906D03*
X0240719Y0124906D03*
D13*
X0243435Y0096500D03*
X0235561Y0096500D03*
X0227687Y0096500D03*
X0219813Y0096500D03*
X0211939Y0096500D03*
X0204065Y0096500D03*
X0204065Y0079000D03*
X0211939Y0079000D03*
X0219813Y0079000D03*
X0227687Y0079000D03*
X0235561Y0079000D03*
X0243435Y0079000D03*
D14*
X0029085Y0092563D03*
X0029085Y0100437D03*
D15*
X0023250Y0022480D02*
X0023250Y0008500D01*
X0027669Y0008500D01*
X0027605Y0008564D01*
X0026950Y0010145D01*
X0026950Y0017855D01*
X0027605Y0019436D01*
X0028814Y0020645D01*
X0030395Y0021300D01*
X0032105Y0021300D01*
X0033686Y0020645D01*
X0034895Y0019436D01*
X0035550Y0017855D01*
X0035550Y0010145D01*
X0034895Y0008564D01*
X0034831Y0008500D01*
X0037669Y0008500D01*
X0037605Y0008564D01*
X0036950Y0010145D01*
X0036950Y0017855D01*
X0037605Y0019436D01*
X0038814Y0020645D01*
X0040395Y0021300D01*
X0042105Y0021300D01*
X0043686Y0020645D01*
X0044895Y0019436D01*
X0045550Y0017855D01*
X0045550Y0010145D01*
X0044895Y0008564D01*
X0044831Y0008500D01*
X0047669Y0008500D01*
X0047605Y0008564D01*
X0046950Y0010145D01*
X0046950Y0017855D01*
X0047605Y0019436D01*
X0048814Y0020645D01*
X0050395Y0021300D01*
X0052105Y0021300D01*
X0053686Y0020645D01*
X0054895Y0019436D01*
X0055550Y0017855D01*
X0055550Y0010145D01*
X0054895Y0008564D01*
X0054831Y0008500D01*
X0057669Y0008500D01*
X0057605Y0008564D01*
X0056950Y0010145D01*
X0056950Y0017855D01*
X0057605Y0019436D01*
X0058814Y0020645D01*
X0060395Y0021300D01*
X0062105Y0021300D01*
X0063686Y0020645D01*
X0064895Y0019436D01*
X0065550Y0017855D01*
X0065550Y0010145D01*
X0064895Y0008564D01*
X0064831Y0008500D01*
X0067669Y0008500D01*
X0067605Y0008564D01*
X0066950Y0010145D01*
X0066950Y0017855D01*
X0067605Y0019436D01*
X0068814Y0020645D01*
X0070395Y0021300D01*
X0072105Y0021300D01*
X0073686Y0020645D01*
X0074895Y0019436D01*
X0075550Y0017855D01*
X0075550Y0010145D01*
X0074895Y0008564D01*
X0074831Y0008500D01*
X0077669Y0008500D01*
X0077605Y0008564D01*
X0076950Y0010145D01*
X0076950Y0017855D01*
X0077605Y0019436D01*
X0078814Y0020645D01*
X0080395Y0021300D01*
X0082105Y0021300D01*
X0083686Y0020645D01*
X0084895Y0019436D01*
X0085550Y0017855D01*
X0085550Y0010145D01*
X0084895Y0008564D01*
X0084831Y0008500D01*
X0087669Y0008500D01*
X0087605Y0008564D01*
X0086950Y0010145D01*
X0086950Y0017855D01*
X0087605Y0019436D01*
X0088814Y0020645D01*
X0089450Y0020909D01*
X0089450Y0036799D01*
X0089381Y0036827D01*
X0088452Y0037756D01*
X0087950Y0038969D01*
X0087950Y0040281D01*
X0088452Y0041494D01*
X0089381Y0042423D01*
X0089450Y0042451D01*
X0089450Y0042871D01*
X0090504Y0043925D01*
X0091996Y0043925D01*
X0093050Y0042871D01*
X0093050Y0042451D01*
X0093119Y0042423D01*
X0094048Y0041494D01*
X0094550Y0040281D01*
X0094550Y0038969D01*
X0094048Y0037756D01*
X0093119Y0036827D01*
X0093050Y0036799D01*
X0093050Y0020909D01*
X0093686Y0020645D01*
X0094895Y0019436D01*
X0095550Y0017855D01*
X0095550Y0010145D01*
X0094895Y0008564D01*
X0094831Y0008500D01*
X0097669Y0008500D01*
X0097605Y0008564D01*
X0096950Y0010145D01*
X0096950Y0017855D01*
X0097605Y0019436D01*
X0098814Y0020645D01*
X0099450Y0020909D01*
X0099450Y0036799D01*
X0099381Y0036827D01*
X0098452Y0037756D01*
X0097950Y0038969D01*
X0097950Y0040281D01*
X0098452Y0041494D01*
X0099381Y0042423D01*
X0100584Y0042921D01*
X0099004Y0044500D01*
X0079176Y0044500D01*
X0079148Y0044431D01*
X0078219Y0043502D01*
X0077006Y0043000D01*
X0075694Y0043000D01*
X0074481Y0043502D01*
X0073552Y0044431D01*
X0073050Y0045644D01*
X0073050Y0046956D01*
X0073552Y0048169D01*
X0074383Y0049000D01*
X0069786Y0049000D01*
X0042666Y0021881D01*
X0041747Y0021500D01*
X0024768Y0021500D01*
X0023850Y0021881D01*
X0023250Y0022480D01*
X0023250Y0021973D02*
X0023757Y0021973D01*
X0023250Y0020975D02*
X0029609Y0020975D01*
X0028145Y0019976D02*
X0023250Y0019976D01*
X0023250Y0018978D02*
X0027415Y0018978D01*
X0027001Y0017979D02*
X0023250Y0017979D01*
X0023250Y0016981D02*
X0026950Y0016981D01*
X0026950Y0015982D02*
X0023250Y0015982D01*
X0023250Y0014984D02*
X0026950Y0014984D01*
X0026950Y0013985D02*
X0023250Y0013985D01*
X0023250Y0012987D02*
X0026950Y0012987D01*
X0026950Y0011988D02*
X0023250Y0011988D01*
X0023250Y0010990D02*
X0026950Y0010990D01*
X0027014Y0009991D02*
X0023250Y0009991D01*
X0023250Y0008993D02*
X0027427Y0008993D01*
X0035073Y0008993D02*
X0037427Y0008993D01*
X0037014Y0009991D02*
X0035486Y0009991D01*
X0035550Y0010990D02*
X0036950Y0010990D01*
X0036950Y0011988D02*
X0035550Y0011988D01*
X0035550Y0012987D02*
X0036950Y0012987D01*
X0036950Y0013985D02*
X0035550Y0013985D01*
X0035550Y0014984D02*
X0036950Y0014984D01*
X0036950Y0015982D02*
X0035550Y0015982D01*
X0035550Y0016981D02*
X0036950Y0016981D01*
X0037001Y0017979D02*
X0035499Y0017979D01*
X0035085Y0018978D02*
X0037415Y0018978D01*
X0038145Y0019976D02*
X0034355Y0019976D01*
X0032891Y0020975D02*
X0039609Y0020975D01*
X0042891Y0020975D02*
X0049609Y0020975D01*
X0048145Y0019976D02*
X0044355Y0019976D01*
X0045085Y0018978D02*
X0047415Y0018978D01*
X0047001Y0017979D02*
X0045499Y0017979D01*
X0045550Y0016981D02*
X0046950Y0016981D01*
X0046950Y0015982D02*
X0045550Y0015982D01*
X0045550Y0014984D02*
X0046950Y0014984D01*
X0046950Y0013985D02*
X0045550Y0013985D01*
X0045550Y0012987D02*
X0046950Y0012987D01*
X0046950Y0011988D02*
X0045550Y0011988D01*
X0045550Y0010990D02*
X0046950Y0010990D01*
X0047014Y0009991D02*
X0045486Y0009991D01*
X0045073Y0008993D02*
X0047427Y0008993D01*
X0055073Y0008993D02*
X0057427Y0008993D01*
X0057014Y0009991D02*
X0055486Y0009991D01*
X0055550Y0010990D02*
X0056950Y0010990D01*
X0056950Y0011988D02*
X0055550Y0011988D01*
X0055550Y0012987D02*
X0056950Y0012987D01*
X0056950Y0013985D02*
X0055550Y0013985D01*
X0055550Y0014984D02*
X0056950Y0014984D01*
X0056950Y0015982D02*
X0055550Y0015982D01*
X0055550Y0016981D02*
X0056950Y0016981D01*
X0057001Y0017979D02*
X0055499Y0017979D01*
X0055085Y0018978D02*
X0057415Y0018978D01*
X0058145Y0019976D02*
X0054355Y0019976D01*
X0052891Y0020975D02*
X0059609Y0020975D01*
X0062891Y0020975D02*
X0069609Y0020975D01*
X0068145Y0019976D02*
X0064355Y0019976D01*
X0065085Y0018978D02*
X0067415Y0018978D01*
X0067001Y0017979D02*
X0065499Y0017979D01*
X0065550Y0016981D02*
X0066950Y0016981D01*
X0066950Y0015982D02*
X0065550Y0015982D01*
X0065550Y0014984D02*
X0066950Y0014984D01*
X0066950Y0013985D02*
X0065550Y0013985D01*
X0065550Y0012987D02*
X0066950Y0012987D01*
X0066950Y0011988D02*
X0065550Y0011988D01*
X0065550Y0010990D02*
X0066950Y0010990D01*
X0067014Y0009991D02*
X0065486Y0009991D01*
X0065073Y0008993D02*
X0067427Y0008993D01*
X0075073Y0008993D02*
X0077427Y0008993D01*
X0077014Y0009991D02*
X0075486Y0009991D01*
X0075550Y0010990D02*
X0076950Y0010990D01*
X0076950Y0011988D02*
X0075550Y0011988D01*
X0075550Y0012987D02*
X0076950Y0012987D01*
X0076950Y0013985D02*
X0075550Y0013985D01*
X0075550Y0014984D02*
X0076950Y0014984D01*
X0076950Y0015982D02*
X0075550Y0015982D01*
X0075550Y0016981D02*
X0076950Y0016981D01*
X0077001Y0017979D02*
X0075499Y0017979D01*
X0075085Y0018978D02*
X0077415Y0018978D01*
X0078145Y0019976D02*
X0074355Y0019976D01*
X0072891Y0020975D02*
X0079609Y0020975D01*
X0082891Y0020975D02*
X0089450Y0020975D01*
X0089450Y0021973D02*
X0042759Y0021973D01*
X0043757Y0022972D02*
X0089450Y0022972D01*
X0089450Y0023970D02*
X0044756Y0023970D01*
X0045754Y0024969D02*
X0089450Y0024969D01*
X0089450Y0025967D02*
X0046753Y0025967D01*
X0047751Y0026966D02*
X0089450Y0026966D01*
X0089450Y0027964D02*
X0048750Y0027964D01*
X0049748Y0028963D02*
X0089450Y0028963D01*
X0089450Y0029961D02*
X0050747Y0029961D01*
X0051745Y0030960D02*
X0089450Y0030960D01*
X0089450Y0031958D02*
X0052744Y0031958D01*
X0053742Y0032957D02*
X0089450Y0032957D01*
X0089450Y0033955D02*
X0054741Y0033955D01*
X0055739Y0034954D02*
X0089450Y0034954D01*
X0089450Y0035952D02*
X0056738Y0035952D01*
X0057736Y0036951D02*
X0089257Y0036951D01*
X0088372Y0037949D02*
X0058735Y0037949D01*
X0059733Y0038948D02*
X0087959Y0038948D01*
X0087950Y0039946D02*
X0060732Y0039946D01*
X0061730Y0040945D02*
X0088225Y0040945D01*
X0088902Y0041943D02*
X0062729Y0041943D01*
X0063727Y0042942D02*
X0089521Y0042942D01*
X0091250Y0042125D02*
X0091250Y0016500D01*
X0091250Y0014000D01*
X0086950Y0013985D02*
X0085550Y0013985D01*
X0085550Y0012987D02*
X0086950Y0012987D01*
X0086950Y0011988D02*
X0085550Y0011988D01*
X0085550Y0010990D02*
X0086950Y0010990D01*
X0087014Y0009991D02*
X0085486Y0009991D01*
X0085073Y0008993D02*
X0087427Y0008993D01*
X0095073Y0008993D02*
X0097427Y0008993D01*
X0097014Y0009991D02*
X0095486Y0009991D01*
X0095550Y0010990D02*
X0096950Y0010990D01*
X0096950Y0011988D02*
X0095550Y0011988D01*
X0095550Y0012987D02*
X0096950Y0012987D01*
X0096950Y0013985D02*
X0095550Y0013985D01*
X0095550Y0014984D02*
X0096950Y0014984D01*
X0096950Y0015982D02*
X0095550Y0015982D01*
X0095550Y0016981D02*
X0096950Y0016981D01*
X0097001Y0017979D02*
X0095499Y0017979D01*
X0095085Y0018978D02*
X0097415Y0018978D01*
X0098145Y0019976D02*
X0094355Y0019976D01*
X0093050Y0020975D02*
X0099450Y0020975D01*
X0099450Y0021973D02*
X0093050Y0021973D01*
X0093050Y0022972D02*
X0099450Y0022972D01*
X0099450Y0023970D02*
X0093050Y0023970D01*
X0093050Y0024969D02*
X0099450Y0024969D01*
X0099450Y0025967D02*
X0093050Y0025967D01*
X0093050Y0026966D02*
X0099450Y0026966D01*
X0099450Y0027964D02*
X0093050Y0027964D01*
X0093050Y0028963D02*
X0099450Y0028963D01*
X0099450Y0029961D02*
X0093050Y0029961D01*
X0093050Y0030960D02*
X0099450Y0030960D01*
X0099450Y0031958D02*
X0093050Y0031958D01*
X0093050Y0032957D02*
X0099450Y0032957D01*
X0099450Y0033955D02*
X0093050Y0033955D01*
X0093050Y0034954D02*
X0099450Y0034954D01*
X0099450Y0035952D02*
X0093050Y0035952D01*
X0093243Y0036951D02*
X0099257Y0036951D01*
X0098372Y0037949D02*
X0094128Y0037949D01*
X0094541Y0038948D02*
X0097959Y0038948D01*
X0097950Y0039946D02*
X0094550Y0039946D01*
X0094275Y0040945D02*
X0098225Y0040945D01*
X0098902Y0041943D02*
X0093598Y0041943D01*
X0092979Y0042942D02*
X0100562Y0042942D01*
X0099564Y0043940D02*
X0078657Y0043940D01*
X0076350Y0046300D02*
X0099750Y0046300D01*
X0131250Y0014800D01*
X0131250Y0014000D01*
X0126950Y0013985D02*
X0125550Y0013985D01*
X0125550Y0012987D02*
X0126950Y0012987D01*
X0126950Y0011988D02*
X0125550Y0011988D01*
X0125550Y0010990D02*
X0126950Y0010990D01*
X0126950Y0010145D02*
X0126950Y0016554D01*
X0125480Y0018025D01*
X0125550Y0017855D01*
X0125550Y0010145D01*
X0124895Y0008564D01*
X0124831Y0008500D01*
X0127669Y0008500D01*
X0127605Y0008564D01*
X0126950Y0010145D01*
X0127014Y0009991D02*
X0125486Y0009991D01*
X0125073Y0008993D02*
X0127427Y0008993D01*
X0134831Y0008500D02*
X0134895Y0008564D01*
X0135550Y0010145D01*
X0135550Y0017855D01*
X0134895Y0019436D01*
X0133686Y0020645D01*
X0132105Y0021300D01*
X0130395Y0021300D01*
X0128814Y0020645D01*
X0128382Y0020213D01*
X0101550Y0047046D01*
X0100496Y0048100D01*
X0079176Y0048100D01*
X0079148Y0048169D01*
X0078317Y0049000D01*
X0189247Y0049000D01*
X0190166Y0049381D01*
X0197605Y0056820D01*
X0197895Y0056700D01*
X0199605Y0056700D01*
X0201186Y0057355D01*
X0202395Y0058564D01*
X0203050Y0060145D01*
X0203050Y0067855D01*
X0202395Y0069436D01*
X0202131Y0069700D01*
X0205369Y0069700D01*
X0205105Y0069436D01*
X0204450Y0067855D01*
X0204450Y0060145D01*
X0205105Y0058564D01*
X0206314Y0057355D01*
X0207895Y0056700D01*
X0209605Y0056700D01*
X0211186Y0057355D01*
X0212018Y0058187D01*
X0218550Y0051654D01*
X0218550Y0049473D01*
X0216873Y0049473D01*
X0216111Y0048712D01*
X0216111Y0042517D01*
X0216754Y0041874D01*
X0216111Y0041231D01*
X0216111Y0035036D01*
X0216376Y0034772D01*
X0201718Y0020113D01*
X0201186Y0020645D01*
X0199605Y0021300D01*
X0197895Y0021300D01*
X0196314Y0020645D01*
X0195105Y0019436D01*
X0194450Y0017855D01*
X0194450Y0010145D01*
X0195105Y0008564D01*
X0195169Y0008500D01*
X0174831Y0008500D01*
X0174895Y0008564D01*
X0175550Y0010145D01*
X0175550Y0017855D01*
X0174895Y0019436D01*
X0173686Y0020645D01*
X0172105Y0021300D01*
X0170395Y0021300D01*
X0168814Y0020645D01*
X0167605Y0019436D01*
X0166950Y0017855D01*
X0166950Y0010145D01*
X0167605Y0008564D01*
X0167669Y0008500D01*
X0164831Y0008500D01*
X0164895Y0008564D01*
X0165550Y0010145D01*
X0165550Y0017855D01*
X0164895Y0019436D01*
X0163686Y0020645D01*
X0162105Y0021300D01*
X0160395Y0021300D01*
X0158814Y0020645D01*
X0157605Y0019436D01*
X0156950Y0017855D01*
X0156950Y0010145D01*
X0157605Y0008564D01*
X0157669Y0008500D01*
X0154831Y0008500D01*
X0154895Y0008564D01*
X0155550Y0010145D01*
X0155550Y0017855D01*
X0154895Y0019436D01*
X0153686Y0020645D01*
X0152105Y0021300D01*
X0150395Y0021300D01*
X0148814Y0020645D01*
X0147605Y0019436D01*
X0146950Y0017855D01*
X0146950Y0010145D01*
X0147605Y0008564D01*
X0147669Y0008500D01*
X0144831Y0008500D01*
X0144895Y0008564D01*
X0145550Y0010145D01*
X0145550Y0017855D01*
X0144895Y0019436D01*
X0143686Y0020645D01*
X0142105Y0021300D01*
X0140395Y0021300D01*
X0138814Y0020645D01*
X0137605Y0019436D01*
X0136950Y0017855D01*
X0136950Y0010145D01*
X0137605Y0008564D01*
X0137669Y0008500D01*
X0134831Y0008500D01*
X0135073Y0008993D02*
X0137427Y0008993D01*
X0137014Y0009991D02*
X0135486Y0009991D01*
X0135550Y0010990D02*
X0136950Y0010990D01*
X0136950Y0011988D02*
X0135550Y0011988D01*
X0135550Y0012987D02*
X0136950Y0012987D01*
X0136950Y0013985D02*
X0135550Y0013985D01*
X0135550Y0014984D02*
X0136950Y0014984D01*
X0136950Y0015982D02*
X0135550Y0015982D01*
X0135550Y0016981D02*
X0136950Y0016981D01*
X0137001Y0017979D02*
X0135499Y0017979D01*
X0135085Y0018978D02*
X0137415Y0018978D01*
X0138145Y0019976D02*
X0134355Y0019976D01*
X0132891Y0020975D02*
X0139609Y0020975D01*
X0142891Y0020975D02*
X0149609Y0020975D01*
X0148145Y0019976D02*
X0144355Y0019976D01*
X0145085Y0018978D02*
X0147415Y0018978D01*
X0147001Y0017979D02*
X0145499Y0017979D01*
X0145550Y0016981D02*
X0146950Y0016981D01*
X0146950Y0015982D02*
X0145550Y0015982D01*
X0145550Y0014984D02*
X0146950Y0014984D01*
X0146950Y0013985D02*
X0145550Y0013985D01*
X0145550Y0012987D02*
X0146950Y0012987D01*
X0146950Y0011988D02*
X0145550Y0011988D01*
X0145550Y0010990D02*
X0146950Y0010990D01*
X0147014Y0009991D02*
X0145486Y0009991D01*
X0145073Y0008993D02*
X0147427Y0008993D01*
X0155073Y0008993D02*
X0157427Y0008993D01*
X0157014Y0009991D02*
X0155486Y0009991D01*
X0155550Y0010990D02*
X0156950Y0010990D01*
X0156950Y0011988D02*
X0155550Y0011988D01*
X0155550Y0012987D02*
X0156950Y0012987D01*
X0156950Y0013985D02*
X0155550Y0013985D01*
X0155550Y0014984D02*
X0156950Y0014984D01*
X0156950Y0015982D02*
X0155550Y0015982D01*
X0155550Y0016981D02*
X0156950Y0016981D01*
X0157001Y0017979D02*
X0155499Y0017979D01*
X0155085Y0018978D02*
X0157415Y0018978D01*
X0158145Y0019976D02*
X0154355Y0019976D01*
X0152891Y0020975D02*
X0159609Y0020975D01*
X0162891Y0020975D02*
X0169609Y0020975D01*
X0168145Y0019976D02*
X0164355Y0019976D01*
X0165085Y0018978D02*
X0167415Y0018978D01*
X0167001Y0017979D02*
X0165499Y0017979D01*
X0165550Y0016981D02*
X0166950Y0016981D01*
X0166950Y0015982D02*
X0165550Y0015982D01*
X0165550Y0014984D02*
X0166950Y0014984D01*
X0166950Y0013985D02*
X0165550Y0013985D01*
X0165550Y0012987D02*
X0166950Y0012987D01*
X0166950Y0011988D02*
X0165550Y0011988D01*
X0165550Y0010990D02*
X0166950Y0010990D01*
X0167014Y0009991D02*
X0165486Y0009991D01*
X0165073Y0008993D02*
X0167427Y0008993D01*
X0175073Y0008993D02*
X0194927Y0008993D01*
X0194514Y0009991D02*
X0175486Y0009991D01*
X0175550Y0010990D02*
X0194450Y0010990D01*
X0194450Y0011988D02*
X0175550Y0011988D01*
X0175550Y0012987D02*
X0194450Y0012987D01*
X0194450Y0013985D02*
X0175550Y0013985D01*
X0175550Y0014984D02*
X0194450Y0014984D01*
X0194450Y0015982D02*
X0175550Y0015982D01*
X0175550Y0016981D02*
X0194450Y0016981D01*
X0194501Y0017979D02*
X0175499Y0017979D01*
X0175085Y0018978D02*
X0194915Y0018978D01*
X0195645Y0019976D02*
X0174355Y0019976D01*
X0172891Y0020975D02*
X0197109Y0020975D01*
X0200391Y0020975D02*
X0202579Y0020975D01*
X0203578Y0021973D02*
X0126622Y0021973D01*
X0125624Y0022972D02*
X0204576Y0022972D01*
X0205575Y0023970D02*
X0124625Y0023970D01*
X0123627Y0024969D02*
X0206573Y0024969D01*
X0207572Y0025967D02*
X0122628Y0025967D01*
X0121630Y0026966D02*
X0208570Y0026966D01*
X0209569Y0027964D02*
X0120631Y0027964D01*
X0119633Y0028963D02*
X0210567Y0028963D01*
X0211566Y0029961D02*
X0118634Y0029961D01*
X0117636Y0030960D02*
X0212564Y0030960D01*
X0213563Y0031958D02*
X0116637Y0031958D01*
X0115639Y0032957D02*
X0214561Y0032957D01*
X0215560Y0033955D02*
X0114640Y0033955D01*
X0113642Y0034954D02*
X0216194Y0034954D01*
X0216111Y0035952D02*
X0112643Y0035952D01*
X0111645Y0036951D02*
X0216111Y0036951D01*
X0216111Y0037949D02*
X0110646Y0037949D01*
X0109648Y0038948D02*
X0216111Y0038948D01*
X0216111Y0039946D02*
X0108649Y0039946D01*
X0107651Y0040945D02*
X0216111Y0040945D01*
X0216685Y0041943D02*
X0106652Y0041943D01*
X0105654Y0042942D02*
X0216111Y0042942D01*
X0216111Y0043940D02*
X0104655Y0043940D01*
X0103657Y0044939D02*
X0216111Y0044939D01*
X0216111Y0045937D02*
X0102658Y0045937D01*
X0101660Y0046936D02*
X0216111Y0046936D01*
X0216111Y0047934D02*
X0100661Y0047934D01*
X0095504Y0054700D02*
X0179496Y0054700D01*
X0180550Y0055754D01*
X0194496Y0069700D01*
X0195369Y0069700D01*
X0195105Y0069436D01*
X0194450Y0067855D01*
X0194450Y0060736D01*
X0187714Y0054000D01*
X0068253Y0054000D01*
X0067334Y0053619D01*
X0066631Y0052916D01*
X0040478Y0026763D01*
X0041050Y0028145D01*
X0041050Y0028864D01*
X0063169Y0050984D01*
X0063550Y0051903D01*
X0063550Y0067298D01*
X0063686Y0067355D01*
X0064895Y0068564D01*
X0065550Y0070145D01*
X0065550Y0077855D01*
X0065117Y0078900D01*
X0067130Y0080516D01*
X0068685Y0080516D01*
X0067605Y0079436D01*
X0066950Y0077855D01*
X0066950Y0070145D01*
X0067605Y0068564D01*
X0068814Y0067355D01*
X0070395Y0066700D01*
X0072105Y0066700D01*
X0073686Y0067355D01*
X0074895Y0068564D01*
X0075550Y0070145D01*
X0075550Y0077855D01*
X0074895Y0079436D01*
X0073815Y0080516D01*
X0078685Y0080516D01*
X0077605Y0079436D01*
X0076950Y0077855D01*
X0076950Y0070145D01*
X0077605Y0068564D01*
X0078814Y0067355D01*
X0080395Y0066700D01*
X0082105Y0066700D01*
X0083095Y0067110D01*
X0095504Y0054700D01*
X0095280Y0054924D02*
X0063550Y0054924D01*
X0063550Y0053926D02*
X0068073Y0053926D01*
X0066642Y0052927D02*
X0063550Y0052927D01*
X0063550Y0051929D02*
X0065643Y0051929D01*
X0064645Y0050930D02*
X0063116Y0050930D01*
X0063646Y0049932D02*
X0062117Y0049932D01*
X0062647Y0048933D02*
X0061119Y0048933D01*
X0061649Y0047934D02*
X0060120Y0047934D01*
X0060650Y0046936D02*
X0059122Y0046936D01*
X0059652Y0045937D02*
X0058123Y0045937D01*
X0058653Y0044939D02*
X0057124Y0044939D01*
X0057655Y0043940D02*
X0056126Y0043940D01*
X0056656Y0042942D02*
X0055127Y0042942D01*
X0055658Y0041943D02*
X0054129Y0041943D01*
X0054659Y0040945D02*
X0053130Y0040945D01*
X0053661Y0039946D02*
X0052132Y0039946D01*
X0052662Y0038948D02*
X0051133Y0038948D01*
X0051664Y0037949D02*
X0050135Y0037949D01*
X0050665Y0036951D02*
X0049136Y0036951D01*
X0049667Y0035952D02*
X0048138Y0035952D01*
X0048668Y0034954D02*
X0047139Y0034954D01*
X0047670Y0033955D02*
X0046141Y0033955D01*
X0046671Y0032957D02*
X0045142Y0032957D01*
X0045673Y0031958D02*
X0044144Y0031958D01*
X0044674Y0030960D02*
X0043145Y0030960D01*
X0043676Y0029961D02*
X0042147Y0029961D01*
X0042677Y0028963D02*
X0041148Y0028963D01*
X0040975Y0027964D02*
X0041679Y0027964D01*
X0040680Y0026966D02*
X0040562Y0026966D01*
X0038177Y0033063D02*
X0037605Y0033300D01*
X0029895Y0033300D01*
X0028314Y0032645D01*
X0027766Y0032097D01*
X0027766Y0035903D01*
X0028314Y0035355D01*
X0029895Y0034700D01*
X0037605Y0034700D01*
X0039186Y0035355D01*
X0040331Y0036500D01*
X0041614Y0036500D01*
X0038177Y0033063D01*
X0039070Y0033955D02*
X0027766Y0033955D01*
X0027766Y0032957D02*
X0029066Y0032957D01*
X0029282Y0034954D02*
X0027766Y0034954D01*
X0038218Y0034954D02*
X0040068Y0034954D01*
X0039783Y0035952D02*
X0041067Y0035952D01*
X0040273Y0041558D02*
X0039186Y0042645D01*
X0037605Y0043300D01*
X0029895Y0043300D01*
X0028314Y0042645D01*
X0027766Y0042097D01*
X0027766Y0045217D01*
X0028165Y0045504D01*
X0028314Y0045355D01*
X0029895Y0044700D01*
X0037605Y0044700D01*
X0039186Y0045355D01*
X0040395Y0046564D01*
X0041050Y0048145D01*
X0041050Y0049855D01*
X0040395Y0051436D01*
X0039186Y0052645D01*
X0037605Y0053300D01*
X0029895Y0053300D01*
X0028347Y0052659D01*
X0027234Y0053625D01*
X0027234Y0056435D01*
X0028314Y0055355D01*
X0029895Y0054700D01*
X0037605Y0054700D01*
X0039186Y0055355D01*
X0040395Y0056564D01*
X0041050Y0058145D01*
X0041050Y0059855D01*
X0040395Y0061436D01*
X0039186Y0062645D01*
X0037605Y0063300D01*
X0029895Y0063300D01*
X0028314Y0062645D01*
X0027234Y0061565D01*
X0027234Y0069458D01*
X0027605Y0068564D01*
X0028814Y0067355D01*
X0030395Y0066700D01*
X0032105Y0066700D01*
X0033686Y0067355D01*
X0034895Y0068564D01*
X0035550Y0070145D01*
X0035550Y0077855D01*
X0034895Y0079436D01*
X0033686Y0080645D01*
X0032105Y0081300D01*
X0030395Y0081300D01*
X0028814Y0080645D01*
X0027605Y0079436D01*
X0027234Y0078541D01*
X0027234Y0083949D01*
X0031204Y0087919D01*
X0031557Y0088771D01*
X0031605Y0088791D01*
X0032857Y0090042D01*
X0033534Y0091678D01*
X0033534Y0092223D01*
X0038750Y0086110D01*
X0038750Y0080581D01*
X0037605Y0079436D01*
X0036950Y0077855D01*
X0036950Y0070145D01*
X0037605Y0068564D01*
X0038750Y0067419D01*
X0038750Y0066003D01*
X0039131Y0065084D01*
X0041250Y0062964D01*
X0041250Y0042536D01*
X0040273Y0041558D01*
X0039888Y0041943D02*
X0040658Y0041943D01*
X0041250Y0042942D02*
X0038470Y0042942D01*
X0041250Y0043940D02*
X0027766Y0043940D01*
X0027766Y0042942D02*
X0029030Y0042942D01*
X0029318Y0044939D02*
X0027766Y0044939D01*
X0024043Y0048699D02*
X0023850Y0048619D01*
X0023642Y0048412D01*
X0023404Y0048241D01*
X0023294Y0048064D01*
X0023250Y0048020D01*
X0023250Y0050433D01*
X0023318Y0050365D01*
X0023403Y0050330D01*
X0024721Y0049186D01*
X0024043Y0048699D01*
X0024368Y0048933D02*
X0023250Y0048933D01*
X0023250Y0049932D02*
X0023862Y0049932D01*
X0028039Y0052927D02*
X0028994Y0052927D01*
X0027234Y0053926D02*
X0041250Y0053926D01*
X0041250Y0054924D02*
X0038146Y0054924D01*
X0039754Y0055923D02*
X0041250Y0055923D01*
X0041250Y0056921D02*
X0040543Y0056921D01*
X0040957Y0057920D02*
X0041250Y0057920D01*
X0041250Y0058918D02*
X0041050Y0058918D01*
X0041025Y0059917D02*
X0041250Y0059917D01*
X0041250Y0060915D02*
X0040611Y0060915D01*
X0041250Y0061914D02*
X0039917Y0061914D01*
X0041250Y0062912D02*
X0038542Y0062912D01*
X0040304Y0063911D02*
X0027234Y0063911D01*
X0027234Y0064909D02*
X0039305Y0064909D01*
X0038789Y0065908D02*
X0027234Y0065908D01*
X0027234Y0066906D02*
X0029897Y0066906D01*
X0028264Y0067905D02*
X0027234Y0067905D01*
X0027234Y0068903D02*
X0027464Y0068903D01*
X0032603Y0066906D02*
X0038750Y0066906D01*
X0038264Y0067905D02*
X0034236Y0067905D01*
X0035036Y0068903D02*
X0037464Y0068903D01*
X0037051Y0069902D02*
X0035449Y0069902D01*
X0035550Y0070900D02*
X0036950Y0070900D01*
X0036950Y0071899D02*
X0035550Y0071899D01*
X0035550Y0072897D02*
X0036950Y0072897D01*
X0036950Y0073896D02*
X0035550Y0073896D01*
X0035550Y0074894D02*
X0036950Y0074894D01*
X0036950Y0075893D02*
X0035550Y0075893D01*
X0035550Y0076891D02*
X0036950Y0076891D01*
X0036964Y0077890D02*
X0035536Y0077890D01*
X0035122Y0078888D02*
X0037378Y0078888D01*
X0038056Y0079887D02*
X0034444Y0079887D01*
X0033106Y0080885D02*
X0038750Y0080885D01*
X0038750Y0081884D02*
X0027234Y0081884D01*
X0027234Y0082882D02*
X0038750Y0082882D01*
X0038750Y0083881D02*
X0027234Y0083881D01*
X0028165Y0084879D02*
X0038750Y0084879D01*
X0038750Y0085878D02*
X0029163Y0085878D01*
X0030162Y0086876D02*
X0038096Y0086876D01*
X0037244Y0087875D02*
X0031160Y0087875D01*
X0031688Y0088873D02*
X0036392Y0088873D01*
X0035540Y0089872D02*
X0032686Y0089872D01*
X0033200Y0090870D02*
X0034689Y0090870D01*
X0033837Y0091869D02*
X0033534Y0091869D01*
X0037853Y0094865D02*
X0044450Y0094865D01*
X0044450Y0095863D02*
X0037002Y0095863D01*
X0036150Y0096862D02*
X0044450Y0096862D01*
X0044450Y0097860D02*
X0035298Y0097860D01*
X0034446Y0098859D02*
X0044450Y0098859D01*
X0044450Y0099857D02*
X0033594Y0099857D01*
X0033534Y0099927D02*
X0033534Y0101322D01*
X0032857Y0102958D01*
X0031605Y0104209D01*
X0029970Y0104887D01*
X0028200Y0104887D01*
X0026564Y0104209D01*
X0025312Y0102958D01*
X0024635Y0101322D01*
X0024635Y0099552D01*
X0025312Y0097916D01*
X0026564Y0096665D01*
X0026962Y0096500D01*
X0026564Y0096335D01*
X0025312Y0095083D01*
X0024635Y0093448D01*
X0024635Y0091678D01*
X0025312Y0090042D01*
X0025785Y0089570D01*
X0023318Y0087104D01*
X0023250Y0087036D01*
X0023250Y0115955D01*
X0024203Y0114304D01*
X0026140Y0112366D01*
X0028513Y0110997D01*
X0031160Y0110287D01*
X0033899Y0110287D01*
X0036546Y0110997D01*
X0038919Y0112366D01*
X0040856Y0114304D01*
X0041250Y0114986D01*
X0041250Y0106003D01*
X0041631Y0105084D01*
X0042334Y0104381D01*
X0045009Y0101705D01*
X0044450Y0100355D01*
X0044450Y0092645D01*
X0045105Y0091064D01*
X0046314Y0089855D01*
X0047094Y0089531D01*
X0042403Y0089531D01*
X0033534Y0099927D01*
X0033534Y0100856D02*
X0044657Y0100856D01*
X0044860Y0101854D02*
X0033314Y0101854D01*
X0032900Y0102853D02*
X0043862Y0102853D01*
X0042863Y0103851D02*
X0031963Y0103851D01*
X0030059Y0104850D02*
X0041865Y0104850D01*
X0041314Y0105848D02*
X0023250Y0105848D01*
X0023250Y0104850D02*
X0028110Y0104850D01*
X0026206Y0103851D02*
X0023250Y0103851D01*
X0023250Y0102853D02*
X0025269Y0102853D01*
X0024855Y0101854D02*
X0023250Y0101854D01*
X0023250Y0100856D02*
X0024635Y0100856D01*
X0024635Y0099857D02*
X0023250Y0099857D01*
X0023250Y0098859D02*
X0024922Y0098859D01*
X0025369Y0097860D02*
X0023250Y0097860D01*
X0023250Y0096862D02*
X0026367Y0096862D01*
X0026092Y0095863D02*
X0023250Y0095863D01*
X0023250Y0094865D02*
X0025222Y0094865D01*
X0024808Y0093866D02*
X0023250Y0093866D01*
X0023250Y0092868D02*
X0024635Y0092868D01*
X0024635Y0091869D02*
X0023250Y0091869D01*
X0023250Y0090870D02*
X0024969Y0090870D01*
X0025483Y0089872D02*
X0023250Y0089872D01*
X0023250Y0088873D02*
X0025088Y0088873D01*
X0024089Y0087875D02*
X0023250Y0087875D01*
X0027234Y0080885D02*
X0029394Y0080885D01*
X0028056Y0079887D02*
X0027234Y0079887D01*
X0027234Y0078888D02*
X0027378Y0078888D01*
X0043750Y0080581D02*
X0043750Y0084531D01*
X0064145Y0084531D01*
X0059963Y0081173D01*
X0059834Y0081119D01*
X0059746Y0081031D01*
X0058814Y0080645D01*
X0057605Y0079436D01*
X0056950Y0077855D01*
X0056950Y0070145D01*
X0057605Y0068564D01*
X0058550Y0067619D01*
X0058550Y0053436D01*
X0046250Y0041136D01*
X0046250Y0064497D01*
X0045869Y0065416D01*
X0045166Y0066119D01*
X0043808Y0067477D01*
X0044895Y0068564D01*
X0045550Y0070145D01*
X0045550Y0077855D01*
X0044895Y0079436D01*
X0043750Y0080581D01*
X0043750Y0080885D02*
X0049394Y0080885D01*
X0048814Y0080645D02*
X0050395Y0081300D01*
X0052105Y0081300D01*
X0053686Y0080645D01*
X0054895Y0079436D01*
X0055550Y0077855D01*
X0055550Y0070145D01*
X0054895Y0068564D01*
X0053686Y0067355D01*
X0052105Y0066700D01*
X0050395Y0066700D01*
X0048814Y0067355D01*
X0047605Y0068564D01*
X0046950Y0070145D01*
X0046950Y0077855D01*
X0047605Y0079436D01*
X0048814Y0080645D01*
X0048056Y0079887D02*
X0044444Y0079887D01*
X0045122Y0078888D02*
X0047378Y0078888D01*
X0046964Y0077890D02*
X0045536Y0077890D01*
X0045550Y0076891D02*
X0046950Y0076891D01*
X0046950Y0075893D02*
X0045550Y0075893D01*
X0045550Y0074894D02*
X0046950Y0074894D01*
X0046950Y0073896D02*
X0045550Y0073896D01*
X0045550Y0072897D02*
X0046950Y0072897D01*
X0046950Y0071899D02*
X0045550Y0071899D01*
X0045550Y0070900D02*
X0046950Y0070900D01*
X0047051Y0069902D02*
X0045449Y0069902D01*
X0045036Y0068903D02*
X0047464Y0068903D01*
X0048264Y0067905D02*
X0044236Y0067905D01*
X0044379Y0066906D02*
X0049897Y0066906D01*
X0052603Y0066906D02*
X0058550Y0066906D01*
X0058550Y0065908D02*
X0045378Y0065908D01*
X0046079Y0064909D02*
X0058550Y0064909D01*
X0058550Y0063911D02*
X0046250Y0063911D01*
X0046250Y0062912D02*
X0058550Y0062912D01*
X0058550Y0061914D02*
X0046250Y0061914D01*
X0046250Y0060915D02*
X0058550Y0060915D01*
X0058550Y0059917D02*
X0046250Y0059917D01*
X0046250Y0058918D02*
X0058550Y0058918D01*
X0058550Y0057920D02*
X0046250Y0057920D01*
X0046250Y0056921D02*
X0058550Y0056921D01*
X0058550Y0055923D02*
X0046250Y0055923D01*
X0046250Y0054924D02*
X0058550Y0054924D01*
X0058550Y0053926D02*
X0046250Y0053926D01*
X0046250Y0052927D02*
X0058042Y0052927D01*
X0057043Y0051929D02*
X0046250Y0051929D01*
X0046250Y0050930D02*
X0056045Y0050930D01*
X0055046Y0049932D02*
X0046250Y0049932D01*
X0046250Y0048933D02*
X0054047Y0048933D01*
X0053049Y0047934D02*
X0046250Y0047934D01*
X0046250Y0046936D02*
X0052050Y0046936D01*
X0051052Y0045937D02*
X0046250Y0045937D01*
X0046250Y0044939D02*
X0050053Y0044939D01*
X0049055Y0043940D02*
X0046250Y0043940D01*
X0046250Y0042942D02*
X0048056Y0042942D01*
X0047058Y0041943D02*
X0046250Y0041943D01*
X0041250Y0044939D02*
X0038182Y0044939D01*
X0039769Y0045937D02*
X0041250Y0045937D01*
X0041250Y0046936D02*
X0040549Y0046936D01*
X0040963Y0047934D02*
X0041250Y0047934D01*
X0041250Y0048933D02*
X0041050Y0048933D01*
X0041018Y0049932D02*
X0041250Y0049932D01*
X0041250Y0050930D02*
X0040605Y0050930D01*
X0041250Y0051929D02*
X0039903Y0051929D01*
X0041250Y0052927D02*
X0038506Y0052927D01*
X0029354Y0054924D02*
X0027234Y0054924D01*
X0027234Y0055923D02*
X0027746Y0055923D01*
X0027583Y0061914D02*
X0027234Y0061914D01*
X0027234Y0062912D02*
X0028958Y0062912D01*
X0054236Y0067905D02*
X0058264Y0067905D01*
X0057464Y0068903D02*
X0055036Y0068903D01*
X0055449Y0069902D02*
X0057051Y0069902D01*
X0056950Y0070900D02*
X0055550Y0070900D01*
X0055550Y0071899D02*
X0056950Y0071899D01*
X0056950Y0072897D02*
X0055550Y0072897D01*
X0055550Y0073896D02*
X0056950Y0073896D01*
X0056950Y0074894D02*
X0055550Y0074894D01*
X0055550Y0075893D02*
X0056950Y0075893D01*
X0056950Y0076891D02*
X0055550Y0076891D01*
X0055536Y0077890D02*
X0056964Y0077890D01*
X0057378Y0078888D02*
X0055122Y0078888D01*
X0054444Y0079887D02*
X0058056Y0079887D01*
X0059394Y0080885D02*
X0053106Y0080885D01*
X0060848Y0081884D02*
X0043750Y0081884D01*
X0043750Y0082882D02*
X0062092Y0082882D01*
X0063335Y0083881D02*
X0043750Y0083881D01*
X0042113Y0089872D02*
X0046297Y0089872D01*
X0045298Y0090870D02*
X0041261Y0090870D01*
X0040409Y0091869D02*
X0044771Y0091869D01*
X0044450Y0092868D02*
X0039557Y0092868D01*
X0038705Y0093866D02*
X0044450Y0093866D01*
X0050406Y0089531D02*
X0051186Y0089855D01*
X0052395Y0091064D01*
X0053050Y0092645D01*
X0053050Y0100355D01*
X0052395Y0101936D01*
X0051186Y0103145D01*
X0050254Y0103531D01*
X0046250Y0107536D01*
X0046250Y0117964D01*
X0048914Y0120629D01*
X0048937Y0120606D01*
X0052500Y0120606D01*
X0054300Y0122406D01*
X0057137Y0122406D01*
X0058937Y0120606D01*
X0062500Y0120606D01*
X0065018Y0123124D01*
X0065018Y0126687D01*
X0062500Y0129205D01*
X0058937Y0129205D01*
X0057137Y0127405D01*
X0054300Y0127405D01*
X0052500Y0129205D01*
X0048937Y0129205D01*
X0046419Y0126687D01*
X0046419Y0125204D01*
X0042935Y0121721D01*
X0042935Y0122063D01*
X0042226Y0124709D01*
X0040856Y0127082D01*
X0038919Y0129019D01*
X0036586Y0130366D01*
X0256820Y0130366D01*
X0254487Y0129019D01*
X0252549Y0127082D01*
X0251180Y0124709D01*
X0250470Y0122063D01*
X0250470Y0119323D01*
X0251180Y0116677D01*
X0252549Y0114304D01*
X0254487Y0112366D01*
X0256860Y0110997D01*
X0259506Y0110287D01*
X0262246Y0110287D01*
X0264892Y0110997D01*
X0267265Y0112366D01*
X0269202Y0114304D01*
X0270572Y0116677D01*
X0271281Y0119323D01*
X0271281Y0122063D01*
X0270572Y0124709D01*
X0269202Y0127082D01*
X0267265Y0129019D01*
X0264932Y0130366D01*
X0273010Y0130366D01*
X0273010Y0067952D01*
X0272395Y0069436D01*
X0271250Y0070581D01*
X0271250Y0087371D01*
X0270869Y0088290D01*
X0270166Y0088993D01*
X0245018Y0114141D01*
X0245018Y0116687D01*
X0242500Y0119205D01*
X0238937Y0119205D01*
X0236419Y0116687D01*
X0236419Y0114141D01*
X0234667Y0112389D01*
X0234468Y0112260D01*
X0234318Y0112041D01*
X0234131Y0111853D01*
X0234040Y0111635D01*
X0233948Y0111500D01*
X0233394Y0111500D01*
X0235018Y0113124D01*
X0235018Y0116687D01*
X0232500Y0119205D01*
X0228937Y0119205D01*
X0226419Y0116687D01*
X0226419Y0113124D01*
X0228043Y0111500D01*
X0223394Y0111500D01*
X0225018Y0113124D01*
X0225018Y0116687D01*
X0222500Y0119205D01*
X0218937Y0119205D01*
X0216419Y0116687D01*
X0216419Y0113124D01*
X0218043Y0111500D01*
X0213394Y0111500D01*
X0215018Y0113124D01*
X0215018Y0116687D01*
X0212500Y0119205D01*
X0208937Y0119205D01*
X0206419Y0116687D01*
X0206419Y0113124D01*
X0208043Y0111500D01*
X0203394Y0111500D01*
X0205018Y0113124D01*
X0205018Y0116687D01*
X0202500Y0119205D01*
X0198937Y0119205D01*
X0196419Y0116687D01*
X0196419Y0113124D01*
X0198043Y0111500D01*
X0193394Y0111500D01*
X0195018Y0113124D01*
X0195018Y0116687D01*
X0192500Y0119205D01*
X0188937Y0119205D01*
X0186419Y0116687D01*
X0186419Y0113124D01*
X0188043Y0111500D01*
X0183394Y0111500D01*
X0185018Y0113124D01*
X0185018Y0116687D01*
X0182500Y0119205D01*
X0178937Y0119205D01*
X0176419Y0116687D01*
X0176419Y0113124D01*
X0178043Y0111500D01*
X0174786Y0111500D01*
X0174090Y0112196D01*
X0175018Y0113124D01*
X0175018Y0116687D01*
X0172500Y0119205D01*
X0168937Y0119205D01*
X0166419Y0116687D01*
X0166419Y0113124D01*
X0168043Y0111500D01*
X0163394Y0111500D01*
X0165018Y0113124D01*
X0165018Y0116687D01*
X0162500Y0119205D01*
X0158937Y0119205D01*
X0156419Y0116687D01*
X0156419Y0113124D01*
X0158043Y0111500D01*
X0153394Y0111500D01*
X0155018Y0113124D01*
X0155018Y0116687D01*
X0152500Y0119205D01*
X0148937Y0119205D01*
X0146419Y0116687D01*
X0146419Y0113124D01*
X0148043Y0111500D01*
X0143394Y0111500D01*
X0145018Y0113124D01*
X0145018Y0116687D01*
X0142500Y0119205D01*
X0138937Y0119205D01*
X0136419Y0116687D01*
X0136419Y0113124D01*
X0138043Y0111500D01*
X0133394Y0111500D01*
X0135018Y0113124D01*
X0135018Y0116687D01*
X0132500Y0119205D01*
X0128937Y0119205D01*
X0126419Y0116687D01*
X0126419Y0113124D01*
X0128043Y0111500D01*
X0123394Y0111500D01*
X0125018Y0113124D01*
X0125018Y0116687D01*
X0122500Y0119205D01*
X0118937Y0119205D01*
X0116419Y0116687D01*
X0116419Y0113124D01*
X0118043Y0111500D01*
X0113394Y0111500D01*
X0115018Y0113124D01*
X0115018Y0116687D01*
X0112500Y0119205D01*
X0108937Y0119205D01*
X0106419Y0116687D01*
X0106419Y0113124D01*
X0108043Y0111500D01*
X0103394Y0111500D01*
X0105018Y0113124D01*
X0105018Y0116687D01*
X0102500Y0119205D01*
X0098937Y0119205D01*
X0096419Y0116687D01*
X0096419Y0113124D01*
X0098043Y0111500D01*
X0097286Y0111500D01*
X0095018Y0113767D01*
X0095018Y0116687D01*
X0092500Y0119205D01*
X0088937Y0119205D01*
X0086419Y0116687D01*
X0086419Y0113124D01*
X0088937Y0110606D01*
X0091109Y0110606D01*
X0093414Y0108300D01*
X0076996Y0108300D01*
X0073595Y0111701D01*
X0075018Y0113124D01*
X0075018Y0116687D01*
X0072500Y0119205D01*
X0068937Y0119205D01*
X0066419Y0116687D01*
X0066419Y0113124D01*
X0068937Y0110606D01*
X0069599Y0110606D01*
X0074404Y0105800D01*
X0072370Y0105800D01*
X0065018Y0113151D01*
X0065018Y0116687D01*
X0062500Y0119205D01*
X0058937Y0119205D01*
X0056419Y0116687D01*
X0056419Y0113124D01*
X0058937Y0110606D01*
X0062473Y0110606D01*
X0069278Y0103800D01*
X0067895Y0103800D01*
X0066314Y0103145D01*
X0065105Y0101936D01*
X0064450Y0100355D01*
X0064450Y0092645D01*
X0065105Y0091064D01*
X0066314Y0089855D01*
X0067094Y0089531D01*
X0060406Y0089531D01*
X0061186Y0089855D01*
X0062395Y0091064D01*
X0063050Y0092645D01*
X0063050Y0100355D01*
X0062395Y0101936D01*
X0061186Y0103145D01*
X0059605Y0103800D01*
X0057895Y0103800D01*
X0056314Y0103145D01*
X0055105Y0101936D01*
X0054450Y0100355D01*
X0054450Y0092645D01*
X0055105Y0091064D01*
X0056314Y0089855D01*
X0057094Y0089531D01*
X0050406Y0089531D01*
X0051203Y0089872D02*
X0056297Y0089872D01*
X0055298Y0090870D02*
X0052202Y0090870D01*
X0052729Y0091869D02*
X0054771Y0091869D01*
X0054450Y0092868D02*
X0053050Y0092868D01*
X0053050Y0093866D02*
X0054450Y0093866D01*
X0054450Y0094865D02*
X0053050Y0094865D01*
X0053050Y0095863D02*
X0054450Y0095863D01*
X0054450Y0096862D02*
X0053050Y0096862D01*
X0053050Y0097860D02*
X0054450Y0097860D01*
X0054450Y0098859D02*
X0053050Y0098859D01*
X0053050Y0099857D02*
X0054450Y0099857D01*
X0054657Y0100856D02*
X0052843Y0100856D01*
X0052429Y0101854D02*
X0055071Y0101854D01*
X0056022Y0102853D02*
X0051478Y0102853D01*
X0049934Y0103851D02*
X0069227Y0103851D01*
X0068229Y0104850D02*
X0048936Y0104850D01*
X0047937Y0105848D02*
X0067230Y0105848D01*
X0066232Y0106847D02*
X0046939Y0106847D01*
X0046250Y0107845D02*
X0065233Y0107845D01*
X0064235Y0108844D02*
X0046250Y0108844D01*
X0046250Y0109842D02*
X0063236Y0109842D01*
X0066330Y0111839D02*
X0067704Y0111839D01*
X0067329Y0110841D02*
X0068702Y0110841D01*
X0068327Y0109842D02*
X0070362Y0109842D01*
X0071361Y0108844D02*
X0069326Y0108844D01*
X0070324Y0107845D02*
X0072359Y0107845D01*
X0073358Y0106847D02*
X0071323Y0106847D01*
X0072321Y0105848D02*
X0074356Y0105848D01*
X0076250Y0106500D02*
X0118750Y0106500D01*
X0123750Y0101500D01*
X0123750Y0096500D01*
X0128050Y0096862D02*
X0129450Y0096862D01*
X0129450Y0097860D02*
X0128050Y0097860D01*
X0128050Y0098859D02*
X0129450Y0098859D01*
X0129450Y0099857D02*
X0128050Y0099857D01*
X0128050Y0100355D02*
X0127395Y0101936D01*
X0126186Y0103145D01*
X0124605Y0103800D01*
X0123996Y0103800D01*
X0121296Y0106500D01*
X0132714Y0106500D01*
X0131631Y0105416D01*
X0131250Y0104497D01*
X0131250Y0103081D01*
X0130105Y0101936D01*
X0129450Y0100355D01*
X0129450Y0092645D01*
X0130105Y0091064D01*
X0131314Y0089855D01*
X0132895Y0089200D01*
X0134605Y0089200D01*
X0136186Y0089855D01*
X0137395Y0091064D01*
X0138050Y0092645D01*
X0138050Y0100355D01*
X0137395Y0101936D01*
X0136308Y0103023D01*
X0139786Y0106500D01*
X0186250Y0106500D01*
X0186250Y0103081D01*
X0185105Y0101936D01*
X0184450Y0100355D01*
X0184450Y0092645D01*
X0185105Y0091064D01*
X0186314Y0089855D01*
X0187895Y0089200D01*
X0189605Y0089200D01*
X0191186Y0089855D01*
X0192395Y0091064D01*
X0193050Y0092645D01*
X0193050Y0100355D01*
X0192395Y0101936D01*
X0191250Y0103081D01*
X0191250Y0106500D01*
X0201565Y0106500D01*
X0201565Y0100505D01*
X0199465Y0098405D01*
X0199465Y0094595D01*
X0202160Y0091900D01*
X0205970Y0091900D01*
X0208002Y0093932D01*
X0209569Y0092365D01*
X0208004Y0090800D01*
X0195504Y0090800D01*
X0175550Y0070846D01*
X0175550Y0077855D01*
X0174895Y0079436D01*
X0173686Y0080645D01*
X0172105Y0081300D01*
X0170395Y0081300D01*
X0168814Y0080645D01*
X0167605Y0079436D01*
X0166950Y0077855D01*
X0166950Y0070145D01*
X0167605Y0068564D01*
X0168814Y0067355D01*
X0170395Y0066700D01*
X0171404Y0066700D01*
X0170504Y0065800D01*
X0119496Y0065800D01*
X0115433Y0069862D01*
X0115550Y0070145D01*
X0115550Y0077855D01*
X0114895Y0079436D01*
X0113686Y0080645D01*
X0112105Y0081300D01*
X0110395Y0081300D01*
X0108814Y0080645D01*
X0107605Y0079436D01*
X0106950Y0077855D01*
X0106950Y0070145D01*
X0107605Y0068564D01*
X0108814Y0067355D01*
X0110395Y0066700D01*
X0112105Y0066700D01*
X0113095Y0067110D01*
X0116904Y0063300D01*
X0111996Y0063300D01*
X0105433Y0069862D01*
X0105550Y0070145D01*
X0105550Y0077855D01*
X0104895Y0079436D01*
X0103686Y0080645D01*
X0102105Y0081300D01*
X0100395Y0081300D01*
X0098814Y0080645D01*
X0097605Y0079436D01*
X0096950Y0077855D01*
X0096950Y0070145D01*
X0097605Y0068564D01*
X0098814Y0067355D01*
X0100395Y0066700D01*
X0102105Y0066700D01*
X0103095Y0067110D01*
X0109404Y0060800D01*
X0104496Y0060800D01*
X0095433Y0069862D01*
X0095550Y0070145D01*
X0095550Y0077855D01*
X0094895Y0079436D01*
X0093686Y0080645D01*
X0092105Y0081300D01*
X0090395Y0081300D01*
X0088814Y0080645D01*
X0087605Y0079436D01*
X0086950Y0077855D01*
X0086950Y0070145D01*
X0087605Y0068564D01*
X0088814Y0067355D01*
X0090395Y0066700D01*
X0092105Y0066700D01*
X0093095Y0067110D01*
X0101904Y0058300D01*
X0096996Y0058300D01*
X0085433Y0069862D01*
X0085550Y0070145D01*
X0085550Y0077855D01*
X0084895Y0079436D01*
X0083815Y0080516D01*
X0084247Y0080516D01*
X0084303Y0080539D01*
X0084364Y0080542D01*
X0084761Y0080728D01*
X0085166Y0080896D01*
X0085209Y0080939D01*
X0085264Y0080965D01*
X0085559Y0081289D01*
X0085869Y0081600D01*
X0085893Y0081656D01*
X0092798Y0089240D01*
X0092895Y0089200D01*
X0094605Y0089200D01*
X0096186Y0089855D01*
X0097395Y0091064D01*
X0098050Y0092645D01*
X0098050Y0100355D01*
X0097395Y0101936D01*
X0097131Y0102200D01*
X0100369Y0102200D01*
X0100105Y0101936D01*
X0099450Y0100355D01*
X0099450Y0092645D01*
X0100105Y0091064D01*
X0101314Y0089855D01*
X0102895Y0089200D01*
X0104605Y0089200D01*
X0104895Y0089320D01*
X0109834Y0084381D01*
X0110753Y0084000D01*
X0144247Y0084000D01*
X0145166Y0084381D01*
X0145869Y0085084D01*
X0148750Y0087964D01*
X0157509Y0079205D01*
X0156950Y0077855D01*
X0156950Y0070145D01*
X0157605Y0068564D01*
X0158814Y0067355D01*
X0160395Y0066700D01*
X0162105Y0066700D01*
X0163686Y0067355D01*
X0164895Y0068564D01*
X0165550Y0070145D01*
X0165550Y0077855D01*
X0164895Y0079436D01*
X0163686Y0080645D01*
X0162754Y0081031D01*
X0162666Y0081119D01*
X0152491Y0091295D01*
X0153050Y0092645D01*
X0153050Y0100355D01*
X0152395Y0101936D01*
X0151186Y0103145D01*
X0149605Y0103800D01*
X0147895Y0103800D01*
X0146314Y0103145D01*
X0145105Y0101936D01*
X0144450Y0100355D01*
X0144450Y0092645D01*
X0145009Y0091295D01*
X0142714Y0089000D01*
X0112286Y0089000D01*
X0111513Y0089772D01*
X0112895Y0089200D01*
X0114605Y0089200D01*
X0116186Y0089855D01*
X0117395Y0091064D01*
X0118050Y0092645D01*
X0118050Y0100355D01*
X0117395Y0101936D01*
X0116186Y0103145D01*
X0114605Y0103800D01*
X0113996Y0103800D01*
X0113096Y0104700D01*
X0118004Y0104700D01*
X0120437Y0102268D01*
X0120105Y0101936D01*
X0119450Y0100355D01*
X0119450Y0092645D01*
X0120105Y0091064D01*
X0121314Y0089855D01*
X0122895Y0089200D01*
X0124605Y0089200D01*
X0126186Y0089855D01*
X0127395Y0091064D01*
X0128050Y0092645D01*
X0128050Y0100355D01*
X0127843Y0100856D02*
X0129657Y0100856D01*
X0130071Y0101854D02*
X0127429Y0101854D01*
X0126478Y0102853D02*
X0131022Y0102853D01*
X0131250Y0103851D02*
X0123944Y0103851D01*
X0122946Y0104850D02*
X0131396Y0104850D01*
X0132063Y0105848D02*
X0121947Y0105848D01*
X0118853Y0103851D02*
X0113944Y0103851D01*
X0113750Y0101500D02*
X0111250Y0104000D01*
X0071624Y0104000D01*
X0060719Y0114906D01*
X0056419Y0114835D02*
X0055018Y0114835D01*
X0055018Y0115833D02*
X0056419Y0115833D01*
X0056564Y0116832D02*
X0054873Y0116832D01*
X0055018Y0116687D02*
X0052500Y0119205D01*
X0048937Y0119205D01*
X0046419Y0116687D01*
X0046419Y0113124D01*
X0048937Y0110606D01*
X0052500Y0110606D01*
X0055018Y0113124D01*
X0055018Y0116687D01*
X0053875Y0117830D02*
X0057562Y0117830D01*
X0058561Y0118829D02*
X0052876Y0118829D01*
X0052720Y0120826D02*
X0058717Y0120826D01*
X0057719Y0121824D02*
X0053718Y0121824D01*
X0048113Y0119827D02*
X0250470Y0119827D01*
X0250470Y0120826D02*
X0242720Y0120826D01*
X0242500Y0120606D02*
X0245018Y0123124D01*
X0245018Y0126687D01*
X0242500Y0129205D01*
X0238937Y0129205D01*
X0236419Y0126687D01*
X0236419Y0123124D01*
X0238937Y0120606D01*
X0242500Y0120606D01*
X0243718Y0121824D02*
X0250470Y0121824D01*
X0250674Y0122823D02*
X0244717Y0122823D01*
X0245018Y0123821D02*
X0250942Y0123821D01*
X0251243Y0124820D02*
X0245018Y0124820D01*
X0245018Y0125818D02*
X0251820Y0125818D01*
X0252396Y0126817D02*
X0244888Y0126817D01*
X0243890Y0127815D02*
X0253283Y0127815D01*
X0254281Y0128814D02*
X0242891Y0128814D01*
X0238546Y0128814D02*
X0232891Y0128814D01*
X0232500Y0129205D02*
X0235018Y0126687D01*
X0235018Y0123124D01*
X0232500Y0120606D01*
X0228937Y0120606D01*
X0226419Y0123124D01*
X0226419Y0126687D01*
X0228937Y0129205D01*
X0232500Y0129205D01*
X0233890Y0127815D02*
X0237547Y0127815D01*
X0236549Y0126817D02*
X0234888Y0126817D01*
X0235018Y0125818D02*
X0236419Y0125818D01*
X0236419Y0124820D02*
X0235018Y0124820D01*
X0235018Y0123821D02*
X0236419Y0123821D01*
X0236720Y0122823D02*
X0234717Y0122823D01*
X0233718Y0121824D02*
X0237719Y0121824D01*
X0238717Y0120826D02*
X0232720Y0120826D01*
X0232876Y0118829D02*
X0238561Y0118829D01*
X0237562Y0117830D02*
X0233875Y0117830D01*
X0234873Y0116832D02*
X0236564Y0116832D01*
X0236419Y0115833D02*
X0235018Y0115833D01*
X0235018Y0114835D02*
X0236419Y0114835D01*
X0236114Y0113836D02*
X0235018Y0113836D01*
X0235115Y0112838D02*
X0234732Y0112838D01*
X0234125Y0111839D02*
X0233733Y0111839D01*
X0238182Y0108833D02*
X0239954Y0110606D01*
X0241483Y0110606D01*
X0266250Y0085838D01*
X0266250Y0070581D01*
X0265105Y0069436D01*
X0264450Y0067855D01*
X0264450Y0060145D01*
X0265009Y0058795D01*
X0262714Y0056500D01*
X0224786Y0056500D01*
X0222491Y0058795D01*
X0223050Y0060145D01*
X0223050Y0067855D01*
X0222395Y0069436D01*
X0221186Y0070645D01*
X0219605Y0071300D01*
X0218596Y0071300D01*
X0221613Y0074317D01*
X0221613Y0074400D01*
X0221718Y0074400D01*
X0223750Y0076432D01*
X0225782Y0074400D01*
X0229592Y0074400D01*
X0231624Y0076432D01*
X0232135Y0075921D01*
X0227334Y0071119D01*
X0227246Y0071031D01*
X0226314Y0070645D01*
X0225105Y0069436D01*
X0224450Y0067855D01*
X0224450Y0060145D01*
X0225105Y0058564D01*
X0226314Y0057355D01*
X0227895Y0056700D01*
X0229605Y0056700D01*
X0231186Y0057355D01*
X0232395Y0058564D01*
X0233050Y0060145D01*
X0233050Y0067855D01*
X0232491Y0069205D01*
X0237680Y0074395D01*
X0237835Y0074769D01*
X0239498Y0076432D01*
X0241072Y0074858D01*
X0237334Y0071119D01*
X0237246Y0071031D01*
X0236314Y0070645D01*
X0235105Y0069436D01*
X0234450Y0067855D01*
X0234450Y0060145D01*
X0235105Y0058564D01*
X0236314Y0057355D01*
X0237895Y0056700D01*
X0239605Y0056700D01*
X0241186Y0057355D01*
X0242395Y0058564D01*
X0243050Y0060145D01*
X0243050Y0067855D01*
X0242491Y0069205D01*
X0245869Y0072584D01*
X0246250Y0073503D01*
X0246250Y0075310D01*
X0246250Y0070581D01*
X0245105Y0069436D01*
X0244450Y0067855D01*
X0244450Y0060145D01*
X0245105Y0058564D01*
X0246314Y0057355D01*
X0247895Y0056700D01*
X0249605Y0056700D01*
X0251186Y0057355D01*
X0252395Y0058564D01*
X0253050Y0060145D01*
X0253050Y0067855D01*
X0252395Y0069436D01*
X0251250Y0070581D01*
X0251250Y0082964D01*
X0256250Y0077964D01*
X0256250Y0070581D01*
X0255105Y0069436D01*
X0254450Y0067855D01*
X0254450Y0060145D01*
X0255105Y0058564D01*
X0256314Y0057355D01*
X0257895Y0056700D01*
X0259605Y0056700D01*
X0261186Y0057355D01*
X0262395Y0058564D01*
X0263050Y0060145D01*
X0263050Y0067855D01*
X0262395Y0069436D01*
X0261250Y0070581D01*
X0261250Y0079497D01*
X0260869Y0080416D01*
X0260166Y0081119D01*
X0247363Y0093923D01*
X0248035Y0094595D01*
X0248035Y0098405D01*
X0245340Y0101100D01*
X0241530Y0101100D01*
X0239498Y0099068D01*
X0237466Y0101100D01*
X0233656Y0101100D01*
X0231624Y0099068D01*
X0229592Y0101100D01*
X0225782Y0101100D01*
X0223750Y0099068D01*
X0221718Y0101100D01*
X0217908Y0101100D01*
X0215876Y0099068D01*
X0213844Y0101100D01*
X0210034Y0101100D01*
X0208002Y0099068D01*
X0206565Y0100505D01*
X0206565Y0105779D01*
X0207286Y0106500D01*
X0235005Y0106500D01*
X0235236Y0106451D01*
X0235497Y0106500D01*
X0235763Y0106500D01*
X0235982Y0106591D01*
X0236214Y0106634D01*
X0236437Y0106779D01*
X0236682Y0106881D01*
X0236849Y0107048D01*
X0237047Y0107177D01*
X0237197Y0107396D01*
X0237385Y0107584D01*
X0237476Y0107802D01*
X0238182Y0108833D01*
X0238192Y0108844D02*
X0243245Y0108844D01*
X0242246Y0109842D02*
X0239191Y0109842D01*
X0237505Y0107845D02*
X0244243Y0107845D01*
X0245242Y0106847D02*
X0236600Y0106847D01*
X0246240Y0105848D02*
X0206634Y0105848D01*
X0206565Y0104850D02*
X0247239Y0104850D01*
X0248237Y0103851D02*
X0206565Y0103851D01*
X0206565Y0102853D02*
X0249236Y0102853D01*
X0250234Y0101854D02*
X0206565Y0101854D01*
X0206565Y0100856D02*
X0209789Y0100856D01*
X0208791Y0099857D02*
X0207213Y0099857D01*
X0201565Y0100856D02*
X0192843Y0100856D01*
X0193050Y0099857D02*
X0200917Y0099857D01*
X0199918Y0098859D02*
X0193050Y0098859D01*
X0193050Y0097860D02*
X0199465Y0097860D01*
X0199465Y0096862D02*
X0193050Y0096862D01*
X0193050Y0095863D02*
X0199465Y0095863D01*
X0199465Y0094865D02*
X0193050Y0094865D01*
X0193050Y0093866D02*
X0200194Y0093866D01*
X0201192Y0092868D02*
X0193050Y0092868D01*
X0192729Y0091869D02*
X0209073Y0091869D01*
X0209066Y0092868D02*
X0206938Y0092868D01*
X0207936Y0093866D02*
X0208068Y0093866D01*
X0211939Y0092189D02*
X0208750Y0089000D01*
X0196250Y0089000D01*
X0171250Y0064000D01*
X0118750Y0064000D01*
X0111250Y0071500D01*
X0111250Y0074000D01*
X0106950Y0073896D02*
X0105550Y0073896D01*
X0105550Y0074894D02*
X0106950Y0074894D01*
X0106950Y0075893D02*
X0105550Y0075893D01*
X0105550Y0076891D02*
X0106950Y0076891D01*
X0106964Y0077890D02*
X0105536Y0077890D01*
X0105122Y0078888D02*
X0107378Y0078888D01*
X0108056Y0079887D02*
X0104444Y0079887D01*
X0103106Y0080885D02*
X0109394Y0080885D01*
X0113106Y0080885D02*
X0119394Y0080885D01*
X0118814Y0080645D02*
X0120395Y0081300D01*
X0122105Y0081300D01*
X0123686Y0080645D01*
X0124895Y0079436D01*
X0125550Y0077855D01*
X0125550Y0070145D01*
X0124895Y0068564D01*
X0123686Y0067355D01*
X0122105Y0066700D01*
X0120395Y0066700D01*
X0118814Y0067355D01*
X0117605Y0068564D01*
X0116950Y0070145D01*
X0116950Y0077855D01*
X0117605Y0079436D01*
X0118814Y0080645D01*
X0118056Y0079887D02*
X0114444Y0079887D01*
X0115122Y0078888D02*
X0117378Y0078888D01*
X0116964Y0077890D02*
X0115536Y0077890D01*
X0115550Y0076891D02*
X0116950Y0076891D01*
X0116950Y0075893D02*
X0115550Y0075893D01*
X0115550Y0074894D02*
X0116950Y0074894D01*
X0116950Y0073896D02*
X0115550Y0073896D01*
X0115550Y0072897D02*
X0116950Y0072897D01*
X0116950Y0071899D02*
X0115550Y0071899D01*
X0115550Y0070900D02*
X0116950Y0070900D01*
X0117051Y0069902D02*
X0115449Y0069902D01*
X0116392Y0068903D02*
X0117464Y0068903D01*
X0117391Y0067905D02*
X0118264Y0067905D01*
X0118389Y0066906D02*
X0119897Y0066906D01*
X0119388Y0065908D02*
X0170612Y0065908D01*
X0169897Y0066906D02*
X0162603Y0066906D01*
X0164236Y0067905D02*
X0168264Y0067905D01*
X0167464Y0068903D02*
X0165036Y0068903D01*
X0165449Y0069902D02*
X0167051Y0069902D01*
X0166950Y0070900D02*
X0165550Y0070900D01*
X0165550Y0071899D02*
X0166950Y0071899D01*
X0166950Y0072897D02*
X0165550Y0072897D01*
X0165550Y0073896D02*
X0166950Y0073896D01*
X0166950Y0074894D02*
X0165550Y0074894D01*
X0165550Y0075893D02*
X0166950Y0075893D01*
X0166950Y0076891D02*
X0165550Y0076891D01*
X0165536Y0077890D02*
X0166964Y0077890D01*
X0167378Y0078888D02*
X0165122Y0078888D01*
X0164444Y0079887D02*
X0168056Y0079887D01*
X0169394Y0080885D02*
X0163106Y0080885D01*
X0162666Y0081119D02*
X0162666Y0081119D01*
X0161902Y0081884D02*
X0186588Y0081884D01*
X0185590Y0080885D02*
X0173106Y0080885D01*
X0174444Y0079887D02*
X0184591Y0079887D01*
X0183593Y0078888D02*
X0175122Y0078888D01*
X0175536Y0077890D02*
X0182594Y0077890D01*
X0181596Y0076891D02*
X0175550Y0076891D01*
X0175550Y0075893D02*
X0180597Y0075893D01*
X0179599Y0074894D02*
X0175550Y0074894D01*
X0175550Y0073896D02*
X0178600Y0073896D01*
X0177602Y0072897D02*
X0175550Y0072897D01*
X0175550Y0071899D02*
X0176603Y0071899D01*
X0175605Y0070900D02*
X0175550Y0070900D01*
X0187708Y0062912D02*
X0194450Y0062912D01*
X0194450Y0061914D02*
X0186709Y0061914D01*
X0185711Y0060915D02*
X0194450Y0060915D01*
X0193631Y0059917D02*
X0184712Y0059917D01*
X0183714Y0058918D02*
X0192633Y0058918D01*
X0191634Y0057920D02*
X0182715Y0057920D01*
X0181717Y0056921D02*
X0190636Y0056921D01*
X0189637Y0055923D02*
X0180718Y0055923D01*
X0179720Y0054924D02*
X0188639Y0054924D01*
X0192714Y0051929D02*
X0218276Y0051929D01*
X0218550Y0050930D02*
X0191716Y0050930D01*
X0190717Y0049932D02*
X0218550Y0049932D01*
X0216333Y0048933D02*
X0078384Y0048933D01*
X0074316Y0048933D02*
X0069719Y0048933D01*
X0068720Y0047934D02*
X0073455Y0047934D01*
X0073050Y0046936D02*
X0067722Y0046936D01*
X0066723Y0045937D02*
X0073050Y0045937D01*
X0073342Y0044939D02*
X0065724Y0044939D01*
X0064726Y0043940D02*
X0074043Y0043940D01*
X0063550Y0055923D02*
X0094282Y0055923D01*
X0093283Y0056921D02*
X0063550Y0056921D01*
X0063550Y0057920D02*
X0092285Y0057920D01*
X0091286Y0058918D02*
X0063550Y0058918D01*
X0063550Y0059917D02*
X0090288Y0059917D01*
X0089289Y0060915D02*
X0063550Y0060915D01*
X0063550Y0061914D02*
X0088291Y0061914D01*
X0087292Y0062912D02*
X0063550Y0062912D01*
X0063550Y0063911D02*
X0086294Y0063911D01*
X0085295Y0064909D02*
X0063550Y0064909D01*
X0063550Y0065908D02*
X0084297Y0065908D01*
X0083298Y0066906D02*
X0082603Y0066906D01*
X0079897Y0066906D02*
X0072603Y0066906D01*
X0074236Y0067905D02*
X0078264Y0067905D01*
X0077464Y0068903D02*
X0075036Y0068903D01*
X0075449Y0069902D02*
X0077051Y0069902D01*
X0076950Y0070900D02*
X0075550Y0070900D01*
X0075550Y0071899D02*
X0076950Y0071899D01*
X0076950Y0072897D02*
X0075550Y0072897D01*
X0075550Y0073896D02*
X0076950Y0073896D01*
X0076950Y0074894D02*
X0075550Y0074894D01*
X0075550Y0075893D02*
X0076950Y0075893D01*
X0076950Y0076891D02*
X0075550Y0076891D01*
X0075536Y0077890D02*
X0076964Y0077890D01*
X0077378Y0078888D02*
X0075122Y0078888D01*
X0074444Y0079887D02*
X0078056Y0079887D01*
X0084444Y0079887D02*
X0088056Y0079887D01*
X0087378Y0078888D02*
X0085122Y0078888D01*
X0085536Y0077890D02*
X0086964Y0077890D01*
X0086950Y0076891D02*
X0085550Y0076891D01*
X0085550Y0075893D02*
X0086950Y0075893D01*
X0086950Y0074894D02*
X0085550Y0074894D01*
X0085550Y0073896D02*
X0086950Y0073896D01*
X0086950Y0072897D02*
X0085550Y0072897D01*
X0085550Y0071899D02*
X0086950Y0071899D01*
X0086950Y0070900D02*
X0085550Y0070900D01*
X0085449Y0069902D02*
X0087051Y0069902D01*
X0087464Y0068903D02*
X0086392Y0068903D01*
X0087391Y0067905D02*
X0088264Y0067905D01*
X0088389Y0066906D02*
X0089897Y0066906D01*
X0089388Y0065908D02*
X0094297Y0065908D01*
X0093298Y0066906D02*
X0092603Y0066906D01*
X0096392Y0068903D02*
X0097464Y0068903D01*
X0097391Y0067905D02*
X0098264Y0067905D01*
X0098389Y0066906D02*
X0099897Y0066906D01*
X0099388Y0065908D02*
X0104297Y0065908D01*
X0103298Y0066906D02*
X0102603Y0066906D01*
X0106392Y0068903D02*
X0107464Y0068903D01*
X0107391Y0067905D02*
X0108264Y0067905D01*
X0108389Y0066906D02*
X0109897Y0066906D01*
X0109388Y0065908D02*
X0114297Y0065908D01*
X0113298Y0066906D02*
X0112603Y0066906D01*
X0110386Y0064909D02*
X0115295Y0064909D01*
X0116294Y0063911D02*
X0111385Y0063911D01*
X0111250Y0061500D02*
X0101250Y0071500D01*
X0101250Y0074000D01*
X0105550Y0072897D02*
X0106950Y0072897D01*
X0106950Y0071899D02*
X0105550Y0071899D01*
X0105550Y0070900D02*
X0106950Y0070900D01*
X0107051Y0069902D02*
X0105449Y0069902D01*
X0097051Y0069902D02*
X0095449Y0069902D01*
X0095550Y0070900D02*
X0096950Y0070900D01*
X0096950Y0071899D02*
X0095550Y0071899D01*
X0095550Y0072897D02*
X0096950Y0072897D01*
X0096950Y0073896D02*
X0095550Y0073896D01*
X0095550Y0074894D02*
X0096950Y0074894D01*
X0096950Y0075893D02*
X0095550Y0075893D01*
X0095550Y0076891D02*
X0096950Y0076891D01*
X0096964Y0077890D02*
X0095536Y0077890D01*
X0095122Y0078888D02*
X0097378Y0078888D01*
X0098056Y0079887D02*
X0094444Y0079887D01*
X0093106Y0080885D02*
X0099394Y0080885D01*
X0108337Y0085878D02*
X0089737Y0085878D01*
X0090646Y0086876D02*
X0107338Y0086876D01*
X0106340Y0087875D02*
X0091555Y0087875D01*
X0092464Y0088873D02*
X0105341Y0088873D01*
X0101297Y0089872D02*
X0096203Y0089872D01*
X0097202Y0090870D02*
X0100298Y0090870D01*
X0099771Y0091869D02*
X0097729Y0091869D01*
X0098050Y0092868D02*
X0099450Y0092868D01*
X0099450Y0093866D02*
X0098050Y0093866D01*
X0098050Y0094865D02*
X0099450Y0094865D01*
X0099450Y0095863D02*
X0098050Y0095863D01*
X0098050Y0096862D02*
X0099450Y0096862D01*
X0099450Y0097860D02*
X0098050Y0097860D01*
X0098050Y0098859D02*
X0099450Y0098859D01*
X0099450Y0099857D02*
X0098050Y0099857D01*
X0097843Y0100856D02*
X0099657Y0100856D01*
X0100071Y0101854D02*
X0097429Y0101854D01*
X0090369Y0102200D02*
X0090105Y0101936D01*
X0089450Y0100355D01*
X0089450Y0092990D01*
X0082645Y0085516D01*
X0073270Y0085516D01*
X0073369Y0085615D01*
X0073426Y0085753D01*
X0076586Y0089742D01*
X0077895Y0089200D01*
X0079605Y0089200D01*
X0081186Y0089855D01*
X0082395Y0091064D01*
X0083050Y0092645D01*
X0083050Y0100355D01*
X0082395Y0101936D01*
X0082131Y0102200D01*
X0090369Y0102200D01*
X0090071Y0101854D02*
X0082429Y0101854D01*
X0082843Y0100856D02*
X0089657Y0100856D01*
X0089450Y0099857D02*
X0083050Y0099857D01*
X0083050Y0098859D02*
X0089450Y0098859D01*
X0089450Y0097860D02*
X0083050Y0097860D01*
X0083050Y0096862D02*
X0089450Y0096862D01*
X0089450Y0095863D02*
X0083050Y0095863D01*
X0083050Y0094865D02*
X0089450Y0094865D01*
X0089450Y0093866D02*
X0083050Y0093866D01*
X0083050Y0092868D02*
X0089338Y0092868D01*
X0088429Y0091869D02*
X0082729Y0091869D01*
X0082202Y0090870D02*
X0087520Y0090870D01*
X0086611Y0089872D02*
X0081203Y0089872D01*
X0085702Y0088873D02*
X0075898Y0088873D01*
X0075107Y0087875D02*
X0084793Y0087875D01*
X0083884Y0086876D02*
X0074316Y0086876D01*
X0073525Y0085878D02*
X0082975Y0085878D01*
X0087009Y0082882D02*
X0153832Y0082882D01*
X0154831Y0081884D02*
X0086100Y0081884D01*
X0085140Y0080885D02*
X0089394Y0080885D01*
X0087918Y0083881D02*
X0152834Y0083881D01*
X0151835Y0084879D02*
X0145665Y0084879D01*
X0145869Y0085084D02*
X0145869Y0085084D01*
X0146663Y0085878D02*
X0150837Y0085878D01*
X0149838Y0086876D02*
X0147662Y0086876D01*
X0148660Y0087875D02*
X0148840Y0087875D01*
X0153914Y0089872D02*
X0156297Y0089872D01*
X0156314Y0089855D02*
X0157895Y0089200D01*
X0159605Y0089200D01*
X0161186Y0089855D01*
X0162395Y0091064D01*
X0163050Y0092645D01*
X0163050Y0100355D01*
X0162395Y0101936D01*
X0161186Y0103145D01*
X0159605Y0103800D01*
X0157895Y0103800D01*
X0156314Y0103145D01*
X0155105Y0101936D01*
X0154450Y0100355D01*
X0154450Y0092645D01*
X0155105Y0091064D01*
X0156314Y0089855D01*
X0155298Y0090870D02*
X0152915Y0090870D01*
X0152729Y0091869D02*
X0154771Y0091869D01*
X0154450Y0092868D02*
X0153050Y0092868D01*
X0153050Y0093866D02*
X0154450Y0093866D01*
X0154450Y0094865D02*
X0153050Y0094865D01*
X0153050Y0095863D02*
X0154450Y0095863D01*
X0154450Y0096862D02*
X0153050Y0096862D01*
X0153050Y0097860D02*
X0154450Y0097860D01*
X0154450Y0098859D02*
X0153050Y0098859D01*
X0153050Y0099857D02*
X0154450Y0099857D01*
X0154657Y0100856D02*
X0152843Y0100856D01*
X0152429Y0101854D02*
X0155071Y0101854D01*
X0156022Y0102853D02*
X0151478Y0102853D01*
X0146022Y0102853D02*
X0136478Y0102853D01*
X0137137Y0103851D02*
X0186250Y0103851D01*
X0186250Y0104850D02*
X0138135Y0104850D01*
X0139134Y0105848D02*
X0186250Y0105848D01*
X0191250Y0105848D02*
X0201565Y0105848D01*
X0201565Y0104850D02*
X0191250Y0104850D01*
X0191250Y0103851D02*
X0201565Y0103851D01*
X0201565Y0102853D02*
X0191478Y0102853D01*
X0192429Y0101854D02*
X0201565Y0101854D01*
X0211939Y0096500D02*
X0211939Y0092189D01*
X0213739Y0091900D02*
X0213739Y0091535D01*
X0216006Y0093802D01*
X0215876Y0093932D01*
X0213844Y0091900D01*
X0213739Y0091900D01*
X0213739Y0091869D02*
X0214073Y0091869D01*
X0214812Y0092868D02*
X0215072Y0092868D01*
X0215810Y0093866D02*
X0215942Y0093866D01*
X0219165Y0091869D02*
X0225187Y0091869D01*
X0225187Y0092495D02*
X0225187Y0083005D01*
X0223750Y0081568D01*
X0221718Y0083600D01*
X0217908Y0083600D01*
X0215876Y0081568D01*
X0213844Y0083600D01*
X0210896Y0083600D01*
X0219196Y0091900D01*
X0221718Y0091900D01*
X0223750Y0093932D01*
X0225187Y0092495D01*
X0224814Y0092868D02*
X0222686Y0092868D01*
X0223684Y0093866D02*
X0223816Y0093866D01*
X0219813Y0095063D02*
X0208750Y0084000D01*
X0196250Y0084000D01*
X0173750Y0061500D01*
X0111250Y0061500D01*
X0109289Y0060915D02*
X0104380Y0060915D01*
X0103382Y0061914D02*
X0108291Y0061914D01*
X0107292Y0062912D02*
X0102383Y0062912D01*
X0101385Y0063911D02*
X0106294Y0063911D01*
X0105295Y0064909D02*
X0100386Y0064909D01*
X0097292Y0062912D02*
X0092383Y0062912D01*
X0091385Y0063911D02*
X0096294Y0063911D01*
X0095295Y0064909D02*
X0090386Y0064909D01*
X0093382Y0061914D02*
X0098291Y0061914D01*
X0099289Y0060915D02*
X0094380Y0060915D01*
X0095379Y0059917D02*
X0100288Y0059917D01*
X0101286Y0058918D02*
X0096377Y0058918D01*
X0096250Y0056500D02*
X0081250Y0071500D01*
X0081250Y0074000D01*
X0091250Y0074000D02*
X0091250Y0071500D01*
X0103750Y0059000D01*
X0176250Y0059000D01*
X0191250Y0074000D01*
X0208750Y0074000D01*
X0211939Y0077189D01*
X0211939Y0079000D01*
X0208634Y0082200D02*
X0208002Y0081568D01*
X0207370Y0082200D01*
X0208634Y0082200D01*
X0208317Y0081884D02*
X0207686Y0081884D01*
X0211176Y0083881D02*
X0225187Y0083881D01*
X0225187Y0084879D02*
X0212175Y0084879D01*
X0213173Y0085878D02*
X0225187Y0085878D01*
X0225187Y0086876D02*
X0214172Y0086876D01*
X0215171Y0087875D02*
X0225187Y0087875D01*
X0225187Y0088873D02*
X0216169Y0088873D01*
X0217168Y0089872D02*
X0225187Y0089872D01*
X0225187Y0090870D02*
X0218166Y0090870D01*
X0219813Y0095063D02*
X0219813Y0096500D01*
X0222961Y0099857D02*
X0224539Y0099857D01*
X0225537Y0100856D02*
X0221963Y0100856D01*
X0217663Y0100856D02*
X0214089Y0100856D01*
X0215087Y0099857D02*
X0216665Y0099857D01*
X0229837Y0100856D02*
X0233411Y0100856D01*
X0232413Y0099857D02*
X0230835Y0099857D01*
X0237711Y0100856D02*
X0241285Y0100856D01*
X0240287Y0099857D02*
X0238709Y0099857D01*
X0245585Y0100856D02*
X0251233Y0100856D01*
X0252231Y0099857D02*
X0246583Y0099857D01*
X0247582Y0098859D02*
X0253230Y0098859D01*
X0254228Y0097860D02*
X0248035Y0097860D01*
X0248035Y0096862D02*
X0255227Y0096862D01*
X0256225Y0095863D02*
X0248035Y0095863D01*
X0248035Y0094865D02*
X0257224Y0094865D01*
X0258222Y0093866D02*
X0247420Y0093866D01*
X0248418Y0092868D02*
X0259221Y0092868D01*
X0260219Y0091869D02*
X0249417Y0091869D01*
X0250415Y0090870D02*
X0261218Y0090870D01*
X0262217Y0089872D02*
X0251414Y0089872D01*
X0252412Y0088873D02*
X0263215Y0088873D01*
X0264214Y0087875D02*
X0253411Y0087875D01*
X0254409Y0086876D02*
X0265212Y0086876D01*
X0266211Y0085878D02*
X0255408Y0085878D01*
X0256406Y0084879D02*
X0266250Y0084879D01*
X0266250Y0083881D02*
X0257405Y0083881D01*
X0258403Y0082882D02*
X0266250Y0082882D01*
X0266250Y0081884D02*
X0259402Y0081884D01*
X0260400Y0080885D02*
X0266250Y0080885D01*
X0266250Y0079887D02*
X0261089Y0079887D01*
X0261250Y0078888D02*
X0266250Y0078888D01*
X0266250Y0077890D02*
X0261250Y0077890D01*
X0261250Y0076891D02*
X0266250Y0076891D01*
X0266250Y0075893D02*
X0261250Y0075893D01*
X0261250Y0074894D02*
X0266250Y0074894D01*
X0266250Y0073896D02*
X0261250Y0073896D01*
X0261250Y0072897D02*
X0266250Y0072897D01*
X0266250Y0071899D02*
X0261250Y0071899D01*
X0261250Y0070900D02*
X0266250Y0070900D01*
X0265571Y0069902D02*
X0261929Y0069902D01*
X0262616Y0068903D02*
X0264884Y0068903D01*
X0264470Y0067905D02*
X0263030Y0067905D01*
X0263050Y0066906D02*
X0264450Y0066906D01*
X0264450Y0065908D02*
X0263050Y0065908D01*
X0263050Y0064909D02*
X0264450Y0064909D01*
X0264450Y0063911D02*
X0263050Y0063911D01*
X0263050Y0062912D02*
X0264450Y0062912D01*
X0264450Y0061914D02*
X0263050Y0061914D01*
X0263050Y0060915D02*
X0264450Y0060915D01*
X0264544Y0059917D02*
X0262956Y0059917D01*
X0262542Y0058918D02*
X0264958Y0058918D01*
X0264134Y0057920D02*
X0261751Y0057920D01*
X0263136Y0056921D02*
X0260139Y0056921D01*
X0257361Y0056921D02*
X0250139Y0056921D01*
X0251751Y0057920D02*
X0255749Y0057920D01*
X0254958Y0058918D02*
X0252542Y0058918D01*
X0252956Y0059917D02*
X0254544Y0059917D01*
X0254450Y0060915D02*
X0253050Y0060915D01*
X0253050Y0061914D02*
X0254450Y0061914D01*
X0254450Y0062912D02*
X0253050Y0062912D01*
X0253050Y0063911D02*
X0254450Y0063911D01*
X0254450Y0064909D02*
X0253050Y0064909D01*
X0253050Y0065908D02*
X0254450Y0065908D01*
X0254450Y0066906D02*
X0253050Y0066906D01*
X0253030Y0067905D02*
X0254470Y0067905D01*
X0254884Y0068903D02*
X0252616Y0068903D01*
X0251929Y0069902D02*
X0255571Y0069902D01*
X0256250Y0070900D02*
X0251250Y0070900D01*
X0251250Y0071899D02*
X0256250Y0071899D01*
X0256250Y0072897D02*
X0251250Y0072897D01*
X0251250Y0073896D02*
X0256250Y0073896D01*
X0256250Y0074894D02*
X0251250Y0074894D01*
X0251250Y0075893D02*
X0256250Y0075893D01*
X0256250Y0076891D02*
X0251250Y0076891D01*
X0251250Y0077890D02*
X0256250Y0077890D01*
X0255326Y0078888D02*
X0251250Y0078888D01*
X0251250Y0079887D02*
X0254328Y0079887D01*
X0253329Y0080885D02*
X0251250Y0080885D01*
X0251250Y0081884D02*
X0252331Y0081884D01*
X0251332Y0082882D02*
X0251250Y0082882D01*
X0246250Y0082882D02*
X0246058Y0082882D01*
X0246250Y0082964D02*
X0246250Y0082690D01*
X0245340Y0083600D01*
X0241530Y0083600D01*
X0239498Y0081568D01*
X0237466Y0083600D01*
X0233656Y0083600D01*
X0231624Y0081568D01*
X0230187Y0083005D01*
X0230187Y0092495D01*
X0231624Y0093932D01*
X0233435Y0092121D01*
X0233755Y0088455D01*
X0233778Y0088005D01*
X0233799Y0087961D01*
X0233803Y0087913D01*
X0234011Y0087513D01*
X0234204Y0087106D01*
X0234240Y0087074D01*
X0234262Y0087030D01*
X0234607Y0086741D01*
X0234941Y0086439D01*
X0234987Y0086422D01*
X0235024Y0086391D01*
X0235454Y0086256D01*
X0235878Y0086104D01*
X0235926Y0086107D01*
X0235973Y0086092D01*
X0236421Y0086131D01*
X0242767Y0086448D01*
X0246250Y0082964D01*
X0245334Y0083881D02*
X0230187Y0083881D01*
X0230187Y0084879D02*
X0244335Y0084879D01*
X0243337Y0085878D02*
X0230187Y0085878D01*
X0230187Y0086876D02*
X0234446Y0086876D01*
X0233823Y0087875D02*
X0230187Y0087875D01*
X0230187Y0088873D02*
X0233719Y0088873D01*
X0233631Y0089872D02*
X0230187Y0089872D01*
X0230187Y0090870D02*
X0233544Y0090870D01*
X0233457Y0091869D02*
X0230187Y0091869D01*
X0230560Y0092868D02*
X0232688Y0092868D01*
X0231690Y0093866D02*
X0231558Y0093866D01*
X0238392Y0092826D02*
X0238531Y0091243D01*
X0242761Y0091454D01*
X0242314Y0091900D01*
X0241530Y0091900D01*
X0239498Y0093932D01*
X0238392Y0092826D01*
X0238434Y0092868D02*
X0240562Y0092868D01*
X0239564Y0093866D02*
X0239432Y0093866D01*
X0238476Y0091869D02*
X0242345Y0091869D01*
X0258304Y0100856D02*
X0273010Y0100856D01*
X0273010Y0101854D02*
X0257305Y0101854D01*
X0256307Y0102853D02*
X0273010Y0102853D01*
X0273010Y0103851D02*
X0255308Y0103851D01*
X0254310Y0104850D02*
X0273010Y0104850D01*
X0273010Y0105848D02*
X0253311Y0105848D01*
X0252313Y0106847D02*
X0273010Y0106847D01*
X0273010Y0107845D02*
X0251314Y0107845D01*
X0250316Y0108844D02*
X0273010Y0108844D01*
X0273010Y0109842D02*
X0249317Y0109842D01*
X0248319Y0110841D02*
X0257441Y0110841D01*
X0255400Y0111839D02*
X0247320Y0111839D01*
X0246322Y0112838D02*
X0254016Y0112838D01*
X0253017Y0113836D02*
X0245323Y0113836D01*
X0245018Y0114835D02*
X0252243Y0114835D01*
X0251666Y0115833D02*
X0245018Y0115833D01*
X0244873Y0116832D02*
X0251138Y0116832D01*
X0250870Y0117830D02*
X0243875Y0117830D01*
X0242876Y0118829D02*
X0250603Y0118829D01*
X0264311Y0110841D02*
X0273010Y0110841D01*
X0273010Y0111839D02*
X0266352Y0111839D01*
X0267736Y0112838D02*
X0273010Y0112838D01*
X0273010Y0113836D02*
X0268735Y0113836D01*
X0269509Y0114835D02*
X0273010Y0114835D01*
X0273010Y0115833D02*
X0270086Y0115833D01*
X0270614Y0116832D02*
X0273010Y0116832D01*
X0273010Y0117830D02*
X0270882Y0117830D01*
X0271149Y0118829D02*
X0273010Y0118829D01*
X0273010Y0119827D02*
X0271281Y0119827D01*
X0271281Y0120826D02*
X0273010Y0120826D01*
X0273010Y0121824D02*
X0271281Y0121824D01*
X0271078Y0122823D02*
X0273010Y0122823D01*
X0273010Y0123821D02*
X0270810Y0123821D01*
X0270509Y0124820D02*
X0273010Y0124820D01*
X0273010Y0125818D02*
X0269932Y0125818D01*
X0269356Y0126817D02*
X0273010Y0126817D01*
X0273010Y0127815D02*
X0268469Y0127815D01*
X0267471Y0128814D02*
X0273010Y0128814D01*
X0273010Y0129812D02*
X0265892Y0129812D01*
X0255860Y0129812D02*
X0037545Y0129812D01*
X0039124Y0128814D02*
X0048546Y0128814D01*
X0047547Y0127815D02*
X0040123Y0127815D01*
X0041009Y0126817D02*
X0046549Y0126817D01*
X0046419Y0125818D02*
X0041586Y0125818D01*
X0042162Y0124820D02*
X0046034Y0124820D01*
X0045036Y0123821D02*
X0042464Y0123821D01*
X0042731Y0122823D02*
X0044037Y0122823D01*
X0043039Y0121824D02*
X0042935Y0121824D01*
X0047114Y0118829D02*
X0048561Y0118829D01*
X0047562Y0117830D02*
X0046250Y0117830D01*
X0046250Y0116832D02*
X0046564Y0116832D01*
X0046419Y0115833D02*
X0046250Y0115833D01*
X0046250Y0114835D02*
X0046419Y0114835D01*
X0046419Y0113836D02*
X0046250Y0113836D01*
X0046250Y0112838D02*
X0046705Y0112838D01*
X0046250Y0111839D02*
X0047704Y0111839D01*
X0048702Y0110841D02*
X0046250Y0110841D01*
X0041250Y0110841D02*
X0035964Y0110841D01*
X0038005Y0111839D02*
X0041250Y0111839D01*
X0041250Y0112838D02*
X0039390Y0112838D01*
X0040388Y0113836D02*
X0041250Y0113836D01*
X0041250Y0114835D02*
X0041163Y0114835D01*
X0041250Y0109842D02*
X0023250Y0109842D01*
X0023250Y0108844D02*
X0041250Y0108844D01*
X0041250Y0107845D02*
X0023250Y0107845D01*
X0023250Y0106847D02*
X0041250Y0106847D01*
X0052735Y0110841D02*
X0058702Y0110841D01*
X0057704Y0111839D02*
X0053733Y0111839D01*
X0054732Y0112838D02*
X0056705Y0112838D01*
X0056419Y0113836D02*
X0055018Y0113836D01*
X0063875Y0117830D02*
X0067562Y0117830D01*
X0066564Y0116832D02*
X0064873Y0116832D01*
X0065018Y0115833D02*
X0066419Y0115833D01*
X0066419Y0114835D02*
X0065018Y0114835D01*
X0065018Y0113836D02*
X0066419Y0113836D01*
X0066705Y0112838D02*
X0065332Y0112838D01*
X0070719Y0112031D02*
X0076250Y0106500D01*
X0076452Y0108844D02*
X0092871Y0108844D01*
X0091872Y0109842D02*
X0075453Y0109842D01*
X0074455Y0110841D02*
X0078702Y0110841D01*
X0078937Y0110606D02*
X0082500Y0110606D01*
X0085018Y0113124D01*
X0085018Y0116687D01*
X0082500Y0119205D01*
X0078937Y0119205D01*
X0076419Y0116687D01*
X0076419Y0113124D01*
X0078937Y0110606D01*
X0077704Y0111839D02*
X0073733Y0111839D01*
X0074732Y0112838D02*
X0076705Y0112838D01*
X0076419Y0113836D02*
X0075018Y0113836D01*
X0075018Y0114835D02*
X0076419Y0114835D01*
X0076419Y0115833D02*
X0075018Y0115833D01*
X0074873Y0116832D02*
X0076564Y0116832D01*
X0077562Y0117830D02*
X0073875Y0117830D01*
X0072876Y0118829D02*
X0078561Y0118829D01*
X0078937Y0120606D02*
X0082500Y0120606D01*
X0085018Y0123124D01*
X0085018Y0126687D01*
X0082500Y0129205D01*
X0078937Y0129205D01*
X0076419Y0126687D01*
X0076419Y0123124D01*
X0078937Y0120606D01*
X0078717Y0120826D02*
X0072720Y0120826D01*
X0072500Y0120606D02*
X0075018Y0123124D01*
X0075018Y0126687D01*
X0072500Y0129205D01*
X0068937Y0129205D01*
X0066419Y0126687D01*
X0066419Y0123124D01*
X0068937Y0120606D01*
X0072500Y0120606D01*
X0073718Y0121824D02*
X0077719Y0121824D01*
X0076720Y0122823D02*
X0074717Y0122823D01*
X0075018Y0123821D02*
X0076419Y0123821D01*
X0076419Y0124820D02*
X0075018Y0124820D01*
X0075018Y0125818D02*
X0076419Y0125818D01*
X0076549Y0126817D02*
X0074888Y0126817D01*
X0073890Y0127815D02*
X0077547Y0127815D01*
X0078546Y0128814D02*
X0072891Y0128814D01*
X0068546Y0128814D02*
X0062891Y0128814D01*
X0063890Y0127815D02*
X0067547Y0127815D01*
X0066549Y0126817D02*
X0064888Y0126817D01*
X0065018Y0125818D02*
X0066419Y0125818D01*
X0066419Y0124820D02*
X0065018Y0124820D01*
X0065018Y0123821D02*
X0066419Y0123821D01*
X0066720Y0122823D02*
X0064717Y0122823D01*
X0063718Y0121824D02*
X0067719Y0121824D01*
X0068717Y0120826D02*
X0062720Y0120826D01*
X0062876Y0118829D02*
X0068561Y0118829D01*
X0070719Y0114906D02*
X0070719Y0112031D01*
X0082735Y0110841D02*
X0088702Y0110841D01*
X0087704Y0111839D02*
X0083733Y0111839D01*
X0084732Y0112838D02*
X0086705Y0112838D01*
X0086419Y0113836D02*
X0085018Y0113836D01*
X0085018Y0114835D02*
X0086419Y0114835D01*
X0086419Y0115833D02*
X0085018Y0115833D01*
X0084873Y0116832D02*
X0086564Y0116832D01*
X0087562Y0117830D02*
X0083875Y0117830D01*
X0082876Y0118829D02*
X0088561Y0118829D01*
X0088937Y0120606D02*
X0092500Y0120606D01*
X0095018Y0123124D01*
X0095018Y0126687D01*
X0092500Y0129205D01*
X0088937Y0129205D01*
X0086419Y0126687D01*
X0086419Y0123124D01*
X0088937Y0120606D01*
X0088717Y0120826D02*
X0082720Y0120826D01*
X0083718Y0121824D02*
X0087719Y0121824D01*
X0086720Y0122823D02*
X0084717Y0122823D01*
X0085018Y0123821D02*
X0086419Y0123821D01*
X0086419Y0124820D02*
X0085018Y0124820D01*
X0085018Y0125818D02*
X0086419Y0125818D01*
X0086549Y0126817D02*
X0084888Y0126817D01*
X0083890Y0127815D02*
X0087547Y0127815D01*
X0088546Y0128814D02*
X0082891Y0128814D01*
X0092891Y0128814D02*
X0098546Y0128814D01*
X0098937Y0129205D02*
X0096419Y0126687D01*
X0096419Y0123124D01*
X0098937Y0120606D01*
X0102500Y0120606D01*
X0105018Y0123124D01*
X0105018Y0126687D01*
X0102500Y0129205D01*
X0098937Y0129205D01*
X0097547Y0127815D02*
X0093890Y0127815D01*
X0094888Y0126817D02*
X0096549Y0126817D01*
X0096419Y0125818D02*
X0095018Y0125818D01*
X0095018Y0124820D02*
X0096419Y0124820D01*
X0096419Y0123821D02*
X0095018Y0123821D01*
X0094717Y0122823D02*
X0096720Y0122823D01*
X0097719Y0121824D02*
X0093718Y0121824D01*
X0092720Y0120826D02*
X0098717Y0120826D01*
X0098561Y0118829D02*
X0092876Y0118829D01*
X0093875Y0117830D02*
X0097562Y0117830D01*
X0096564Y0116832D02*
X0094873Y0116832D01*
X0095018Y0115833D02*
X0096419Y0115833D01*
X0096419Y0114835D02*
X0095018Y0114835D01*
X0095018Y0113836D02*
X0096419Y0113836D01*
X0096705Y0112838D02*
X0095948Y0112838D01*
X0096946Y0111839D02*
X0097704Y0111839D01*
X0103733Y0111839D02*
X0107704Y0111839D01*
X0106705Y0112838D02*
X0104732Y0112838D01*
X0105018Y0113836D02*
X0106419Y0113836D01*
X0106419Y0114835D02*
X0105018Y0114835D01*
X0105018Y0115833D02*
X0106419Y0115833D01*
X0106564Y0116832D02*
X0104873Y0116832D01*
X0103875Y0117830D02*
X0107562Y0117830D01*
X0108561Y0118829D02*
X0102876Y0118829D01*
X0102720Y0120826D02*
X0108717Y0120826D01*
X0108937Y0120606D02*
X0112500Y0120606D01*
X0115018Y0123124D01*
X0115018Y0126687D01*
X0112500Y0129205D01*
X0108937Y0129205D01*
X0106419Y0126687D01*
X0106419Y0123124D01*
X0108937Y0120606D01*
X0107719Y0121824D02*
X0103718Y0121824D01*
X0104717Y0122823D02*
X0106720Y0122823D01*
X0106419Y0123821D02*
X0105018Y0123821D01*
X0105018Y0124820D02*
X0106419Y0124820D01*
X0106419Y0125818D02*
X0105018Y0125818D01*
X0104888Y0126817D02*
X0106549Y0126817D01*
X0107547Y0127815D02*
X0103890Y0127815D01*
X0102891Y0128814D02*
X0108546Y0128814D01*
X0112891Y0128814D02*
X0118546Y0128814D01*
X0118937Y0129205D02*
X0116419Y0126687D01*
X0116419Y0123124D01*
X0118937Y0120606D01*
X0122500Y0120606D01*
X0125018Y0123124D01*
X0125018Y0126687D01*
X0122500Y0129205D01*
X0118937Y0129205D01*
X0117547Y0127815D02*
X0113890Y0127815D01*
X0114888Y0126817D02*
X0116549Y0126817D01*
X0116419Y0125818D02*
X0115018Y0125818D01*
X0115018Y0124820D02*
X0116419Y0124820D01*
X0116419Y0123821D02*
X0115018Y0123821D01*
X0114717Y0122823D02*
X0116720Y0122823D01*
X0117719Y0121824D02*
X0113718Y0121824D01*
X0112720Y0120826D02*
X0118717Y0120826D01*
X0118561Y0118829D02*
X0112876Y0118829D01*
X0113875Y0117830D02*
X0117562Y0117830D01*
X0116564Y0116832D02*
X0114873Y0116832D01*
X0115018Y0115833D02*
X0116419Y0115833D01*
X0116419Y0114835D02*
X0115018Y0114835D01*
X0115018Y0113836D02*
X0116419Y0113836D01*
X0116705Y0112838D02*
X0114732Y0112838D01*
X0113733Y0111839D02*
X0117704Y0111839D01*
X0123733Y0111839D02*
X0127704Y0111839D01*
X0126705Y0112838D02*
X0124732Y0112838D01*
X0125018Y0113836D02*
X0126419Y0113836D01*
X0126419Y0114835D02*
X0125018Y0114835D01*
X0125018Y0115833D02*
X0126419Y0115833D01*
X0126564Y0116832D02*
X0124873Y0116832D01*
X0123875Y0117830D02*
X0127562Y0117830D01*
X0128561Y0118829D02*
X0122876Y0118829D01*
X0122720Y0120826D02*
X0128717Y0120826D01*
X0128937Y0120606D02*
X0132500Y0120606D01*
X0135018Y0123124D01*
X0135018Y0126687D01*
X0132500Y0129205D01*
X0128937Y0129205D01*
X0126419Y0126687D01*
X0126419Y0123124D01*
X0128937Y0120606D01*
X0127719Y0121824D02*
X0123718Y0121824D01*
X0124717Y0122823D02*
X0126720Y0122823D01*
X0126419Y0123821D02*
X0125018Y0123821D01*
X0125018Y0124820D02*
X0126419Y0124820D01*
X0126419Y0125818D02*
X0125018Y0125818D01*
X0124888Y0126817D02*
X0126549Y0126817D01*
X0127547Y0127815D02*
X0123890Y0127815D01*
X0122891Y0128814D02*
X0128546Y0128814D01*
X0132891Y0128814D02*
X0138546Y0128814D01*
X0138937Y0129205D02*
X0136419Y0126687D01*
X0136419Y0123124D01*
X0138937Y0120606D01*
X0142500Y0120606D01*
X0145018Y0123124D01*
X0145018Y0126687D01*
X0142500Y0129205D01*
X0138937Y0129205D01*
X0137547Y0127815D02*
X0133890Y0127815D01*
X0134888Y0126817D02*
X0136549Y0126817D01*
X0136419Y0125818D02*
X0135018Y0125818D01*
X0135018Y0124820D02*
X0136419Y0124820D01*
X0136419Y0123821D02*
X0135018Y0123821D01*
X0134717Y0122823D02*
X0136720Y0122823D01*
X0137719Y0121824D02*
X0133718Y0121824D01*
X0132720Y0120826D02*
X0138717Y0120826D01*
X0138561Y0118829D02*
X0132876Y0118829D01*
X0133875Y0117830D02*
X0137562Y0117830D01*
X0136564Y0116832D02*
X0134873Y0116832D01*
X0135018Y0115833D02*
X0136419Y0115833D01*
X0136419Y0114835D02*
X0135018Y0114835D01*
X0135018Y0113836D02*
X0136419Y0113836D01*
X0136705Y0112838D02*
X0134732Y0112838D01*
X0133733Y0111839D02*
X0137704Y0111839D01*
X0143733Y0111839D02*
X0147704Y0111839D01*
X0146705Y0112838D02*
X0144732Y0112838D01*
X0145018Y0113836D02*
X0146419Y0113836D01*
X0146419Y0114835D02*
X0145018Y0114835D01*
X0145018Y0115833D02*
X0146419Y0115833D01*
X0146564Y0116832D02*
X0144873Y0116832D01*
X0143875Y0117830D02*
X0147562Y0117830D01*
X0148561Y0118829D02*
X0142876Y0118829D01*
X0142720Y0120826D02*
X0148717Y0120826D01*
X0148937Y0120606D02*
X0152500Y0120606D01*
X0155018Y0123124D01*
X0155018Y0126687D01*
X0152500Y0129205D01*
X0148937Y0129205D01*
X0146419Y0126687D01*
X0146419Y0123124D01*
X0148937Y0120606D01*
X0147719Y0121824D02*
X0143718Y0121824D01*
X0144717Y0122823D02*
X0146720Y0122823D01*
X0146419Y0123821D02*
X0145018Y0123821D01*
X0145018Y0124820D02*
X0146419Y0124820D01*
X0146419Y0125818D02*
X0145018Y0125818D01*
X0144888Y0126817D02*
X0146549Y0126817D01*
X0147547Y0127815D02*
X0143890Y0127815D01*
X0142891Y0128814D02*
X0148546Y0128814D01*
X0152891Y0128814D02*
X0158546Y0128814D01*
X0158937Y0129205D02*
X0156419Y0126687D01*
X0156419Y0123124D01*
X0158937Y0120606D01*
X0162500Y0120606D01*
X0165018Y0123124D01*
X0165018Y0126687D01*
X0162500Y0129205D01*
X0158937Y0129205D01*
X0157547Y0127815D02*
X0153890Y0127815D01*
X0154888Y0126817D02*
X0156549Y0126817D01*
X0156419Y0125818D02*
X0155018Y0125818D01*
X0155018Y0124820D02*
X0156419Y0124820D01*
X0156419Y0123821D02*
X0155018Y0123821D01*
X0154717Y0122823D02*
X0156720Y0122823D01*
X0157719Y0121824D02*
X0153718Y0121824D01*
X0152720Y0120826D02*
X0158717Y0120826D01*
X0158561Y0118829D02*
X0152876Y0118829D01*
X0153875Y0117830D02*
X0157562Y0117830D01*
X0156564Y0116832D02*
X0154873Y0116832D01*
X0155018Y0115833D02*
X0156419Y0115833D01*
X0156419Y0114835D02*
X0155018Y0114835D01*
X0155018Y0113836D02*
X0156419Y0113836D01*
X0156705Y0112838D02*
X0154732Y0112838D01*
X0153733Y0111839D02*
X0157704Y0111839D01*
X0163733Y0111839D02*
X0167704Y0111839D01*
X0166705Y0112838D02*
X0164732Y0112838D01*
X0165018Y0113836D02*
X0166419Y0113836D01*
X0166419Y0114835D02*
X0165018Y0114835D01*
X0165018Y0115833D02*
X0166419Y0115833D01*
X0166564Y0116832D02*
X0164873Y0116832D01*
X0163875Y0117830D02*
X0167562Y0117830D01*
X0168561Y0118829D02*
X0162876Y0118829D01*
X0162720Y0120826D02*
X0168717Y0120826D01*
X0168937Y0120606D02*
X0172500Y0120606D01*
X0175018Y0123124D01*
X0175018Y0126687D01*
X0172500Y0129205D01*
X0168937Y0129205D01*
X0166419Y0126687D01*
X0166419Y0123124D01*
X0168937Y0120606D01*
X0167719Y0121824D02*
X0163718Y0121824D01*
X0164717Y0122823D02*
X0166720Y0122823D01*
X0166419Y0123821D02*
X0165018Y0123821D01*
X0165018Y0124820D02*
X0166419Y0124820D01*
X0166419Y0125818D02*
X0165018Y0125818D01*
X0164888Y0126817D02*
X0166549Y0126817D01*
X0167547Y0127815D02*
X0163890Y0127815D01*
X0162891Y0128814D02*
X0168546Y0128814D01*
X0172891Y0128814D02*
X0178546Y0128814D01*
X0178937Y0129205D02*
X0176419Y0126687D01*
X0176419Y0123124D01*
X0178937Y0120606D01*
X0182500Y0120606D01*
X0185018Y0123124D01*
X0185018Y0126687D01*
X0182500Y0129205D01*
X0178937Y0129205D01*
X0177547Y0127815D02*
X0173890Y0127815D01*
X0174888Y0126817D02*
X0176549Y0126817D01*
X0176419Y0125818D02*
X0175018Y0125818D01*
X0175018Y0124820D02*
X0176419Y0124820D01*
X0176419Y0123821D02*
X0175018Y0123821D01*
X0174717Y0122823D02*
X0176720Y0122823D01*
X0177719Y0121824D02*
X0173718Y0121824D01*
X0172720Y0120826D02*
X0178717Y0120826D01*
X0178561Y0118829D02*
X0172876Y0118829D01*
X0173875Y0117830D02*
X0177562Y0117830D01*
X0176564Y0116832D02*
X0174873Y0116832D01*
X0175018Y0115833D02*
X0176419Y0115833D01*
X0176419Y0114835D02*
X0175018Y0114835D01*
X0175018Y0113836D02*
X0176419Y0113836D01*
X0176705Y0112838D02*
X0174732Y0112838D01*
X0174446Y0111839D02*
X0177704Y0111839D01*
X0183733Y0111839D02*
X0187704Y0111839D01*
X0186705Y0112838D02*
X0184732Y0112838D01*
X0185018Y0113836D02*
X0186419Y0113836D01*
X0186419Y0114835D02*
X0185018Y0114835D01*
X0185018Y0115833D02*
X0186419Y0115833D01*
X0186564Y0116832D02*
X0184873Y0116832D01*
X0183875Y0117830D02*
X0187562Y0117830D01*
X0188561Y0118829D02*
X0182876Y0118829D01*
X0182720Y0120826D02*
X0188717Y0120826D01*
X0188937Y0120606D02*
X0192500Y0120606D01*
X0195018Y0123124D01*
X0195018Y0126687D01*
X0192500Y0129205D01*
X0188937Y0129205D01*
X0186419Y0126687D01*
X0186419Y0123124D01*
X0188937Y0120606D01*
X0187719Y0121824D02*
X0183718Y0121824D01*
X0184717Y0122823D02*
X0186720Y0122823D01*
X0186419Y0123821D02*
X0185018Y0123821D01*
X0185018Y0124820D02*
X0186419Y0124820D01*
X0186419Y0125818D02*
X0185018Y0125818D01*
X0184888Y0126817D02*
X0186549Y0126817D01*
X0187547Y0127815D02*
X0183890Y0127815D01*
X0182891Y0128814D02*
X0188546Y0128814D01*
X0192891Y0128814D02*
X0198546Y0128814D01*
X0198937Y0129205D02*
X0196419Y0126687D01*
X0196419Y0123124D01*
X0198937Y0120606D01*
X0202500Y0120606D01*
X0205018Y0123124D01*
X0205018Y0126687D01*
X0202500Y0129205D01*
X0198937Y0129205D01*
X0197547Y0127815D02*
X0193890Y0127815D01*
X0194888Y0126817D02*
X0196549Y0126817D01*
X0196419Y0125818D02*
X0195018Y0125818D01*
X0195018Y0124820D02*
X0196419Y0124820D01*
X0196419Y0123821D02*
X0195018Y0123821D01*
X0194717Y0122823D02*
X0196720Y0122823D01*
X0197719Y0121824D02*
X0193718Y0121824D01*
X0192720Y0120826D02*
X0198717Y0120826D01*
X0198561Y0118829D02*
X0192876Y0118829D01*
X0193875Y0117830D02*
X0197562Y0117830D01*
X0196564Y0116832D02*
X0194873Y0116832D01*
X0195018Y0115833D02*
X0196419Y0115833D01*
X0196419Y0114835D02*
X0195018Y0114835D01*
X0195018Y0113836D02*
X0196419Y0113836D01*
X0196705Y0112838D02*
X0194732Y0112838D01*
X0193733Y0111839D02*
X0197704Y0111839D01*
X0203733Y0111839D02*
X0207704Y0111839D01*
X0206705Y0112838D02*
X0204732Y0112838D01*
X0205018Y0113836D02*
X0206419Y0113836D01*
X0206419Y0114835D02*
X0205018Y0114835D01*
X0205018Y0115833D02*
X0206419Y0115833D01*
X0206564Y0116832D02*
X0204873Y0116832D01*
X0203875Y0117830D02*
X0207562Y0117830D01*
X0208561Y0118829D02*
X0202876Y0118829D01*
X0202720Y0120826D02*
X0208717Y0120826D01*
X0208937Y0120606D02*
X0212500Y0120606D01*
X0215018Y0123124D01*
X0215018Y0126687D01*
X0212500Y0129205D01*
X0208937Y0129205D01*
X0206419Y0126687D01*
X0206419Y0123124D01*
X0208937Y0120606D01*
X0207719Y0121824D02*
X0203718Y0121824D01*
X0204717Y0122823D02*
X0206720Y0122823D01*
X0206419Y0123821D02*
X0205018Y0123821D01*
X0205018Y0124820D02*
X0206419Y0124820D01*
X0206419Y0125818D02*
X0205018Y0125818D01*
X0204888Y0126817D02*
X0206549Y0126817D01*
X0207547Y0127815D02*
X0203890Y0127815D01*
X0202891Y0128814D02*
X0208546Y0128814D01*
X0212891Y0128814D02*
X0218546Y0128814D01*
X0218937Y0129205D02*
X0216419Y0126687D01*
X0216419Y0123124D01*
X0218937Y0120606D01*
X0222500Y0120606D01*
X0225018Y0123124D01*
X0225018Y0126687D01*
X0222500Y0129205D01*
X0218937Y0129205D01*
X0217547Y0127815D02*
X0213890Y0127815D01*
X0214888Y0126817D02*
X0216549Y0126817D01*
X0216419Y0125818D02*
X0215018Y0125818D01*
X0215018Y0124820D02*
X0216419Y0124820D01*
X0216419Y0123821D02*
X0215018Y0123821D01*
X0214717Y0122823D02*
X0216720Y0122823D01*
X0217719Y0121824D02*
X0213718Y0121824D01*
X0212720Y0120826D02*
X0218717Y0120826D01*
X0218561Y0118829D02*
X0212876Y0118829D01*
X0213875Y0117830D02*
X0217562Y0117830D01*
X0216564Y0116832D02*
X0214873Y0116832D01*
X0215018Y0115833D02*
X0216419Y0115833D01*
X0216419Y0114835D02*
X0215018Y0114835D01*
X0215018Y0113836D02*
X0216419Y0113836D01*
X0216705Y0112838D02*
X0214732Y0112838D01*
X0213733Y0111839D02*
X0217704Y0111839D01*
X0223733Y0111839D02*
X0227704Y0111839D01*
X0226705Y0112838D02*
X0224732Y0112838D01*
X0225018Y0113836D02*
X0226419Y0113836D01*
X0226419Y0114835D02*
X0225018Y0114835D01*
X0225018Y0115833D02*
X0226419Y0115833D01*
X0226564Y0116832D02*
X0224873Y0116832D01*
X0223875Y0117830D02*
X0227562Y0117830D01*
X0228561Y0118829D02*
X0222876Y0118829D01*
X0222720Y0120826D02*
X0228717Y0120826D01*
X0227719Y0121824D02*
X0223718Y0121824D01*
X0224717Y0122823D02*
X0226720Y0122823D01*
X0226419Y0123821D02*
X0225018Y0123821D01*
X0225018Y0124820D02*
X0226419Y0124820D01*
X0226419Y0125818D02*
X0225018Y0125818D01*
X0224888Y0126817D02*
X0226549Y0126817D01*
X0227547Y0127815D02*
X0223890Y0127815D01*
X0222891Y0128814D02*
X0228546Y0128814D01*
X0182395Y0101936D02*
X0181186Y0103145D01*
X0179605Y0103800D01*
X0177895Y0103800D01*
X0176314Y0103145D01*
X0175105Y0101936D01*
X0174450Y0100355D01*
X0174450Y0092645D01*
X0175105Y0091064D01*
X0176314Y0089855D01*
X0177895Y0089200D01*
X0179605Y0089200D01*
X0181186Y0089855D01*
X0182395Y0091064D01*
X0183050Y0092645D01*
X0183050Y0100355D01*
X0182395Y0101936D01*
X0182429Y0101854D02*
X0185071Y0101854D01*
X0184657Y0100856D02*
X0182843Y0100856D01*
X0183050Y0099857D02*
X0184450Y0099857D01*
X0184450Y0098859D02*
X0183050Y0098859D01*
X0183050Y0097860D02*
X0184450Y0097860D01*
X0184450Y0096862D02*
X0183050Y0096862D01*
X0183050Y0095863D02*
X0184450Y0095863D01*
X0184450Y0094865D02*
X0183050Y0094865D01*
X0183050Y0093866D02*
X0184450Y0093866D01*
X0184450Y0092868D02*
X0183050Y0092868D01*
X0182729Y0091869D02*
X0184771Y0091869D01*
X0185298Y0090870D02*
X0182202Y0090870D01*
X0181203Y0089872D02*
X0186297Y0089872D01*
X0191203Y0089872D02*
X0194576Y0089872D01*
X0193578Y0088873D02*
X0154912Y0088873D01*
X0155911Y0087875D02*
X0192579Y0087875D01*
X0191581Y0086876D02*
X0156909Y0086876D01*
X0157908Y0085878D02*
X0190582Y0085878D01*
X0189584Y0084879D02*
X0158906Y0084879D01*
X0159905Y0083881D02*
X0188585Y0083881D01*
X0187587Y0082882D02*
X0160903Y0082882D01*
X0156828Y0079887D02*
X0154444Y0079887D01*
X0154895Y0079436D02*
X0153686Y0080645D01*
X0152105Y0081300D01*
X0150395Y0081300D01*
X0148814Y0080645D01*
X0147605Y0079436D01*
X0146950Y0077855D01*
X0146950Y0070145D01*
X0147605Y0068564D01*
X0148814Y0067355D01*
X0150395Y0066700D01*
X0152105Y0066700D01*
X0153686Y0067355D01*
X0154895Y0068564D01*
X0155550Y0070145D01*
X0155550Y0077855D01*
X0154895Y0079436D01*
X0155122Y0078888D02*
X0157378Y0078888D01*
X0156964Y0077890D02*
X0155536Y0077890D01*
X0155550Y0076891D02*
X0156950Y0076891D01*
X0156950Y0075893D02*
X0155550Y0075893D01*
X0155550Y0074894D02*
X0156950Y0074894D01*
X0156950Y0073896D02*
X0155550Y0073896D01*
X0155550Y0072897D02*
X0156950Y0072897D01*
X0156950Y0071899D02*
X0155550Y0071899D01*
X0155550Y0070900D02*
X0156950Y0070900D01*
X0157051Y0069902D02*
X0155449Y0069902D01*
X0155036Y0068903D02*
X0157464Y0068903D01*
X0158264Y0067905D02*
X0154236Y0067905D01*
X0152603Y0066906D02*
X0159897Y0066906D01*
X0149897Y0066906D02*
X0142603Y0066906D01*
X0142105Y0066700D02*
X0143686Y0067355D01*
X0144895Y0068564D01*
X0145550Y0070145D01*
X0145550Y0077855D01*
X0144895Y0079436D01*
X0143686Y0080645D01*
X0142105Y0081300D01*
X0140395Y0081300D01*
X0138814Y0080645D01*
X0137605Y0079436D01*
X0136950Y0077855D01*
X0136950Y0070145D01*
X0137605Y0068564D01*
X0138814Y0067355D01*
X0140395Y0066700D01*
X0142105Y0066700D01*
X0139897Y0066906D02*
X0132603Y0066906D01*
X0132105Y0066700D02*
X0133686Y0067355D01*
X0134895Y0068564D01*
X0135550Y0070145D01*
X0135550Y0077855D01*
X0134895Y0079436D01*
X0133686Y0080645D01*
X0132105Y0081300D01*
X0130395Y0081300D01*
X0128814Y0080645D01*
X0127605Y0079436D01*
X0126950Y0077855D01*
X0126950Y0070145D01*
X0127605Y0068564D01*
X0128814Y0067355D01*
X0130395Y0066700D01*
X0132105Y0066700D01*
X0129897Y0066906D02*
X0122603Y0066906D01*
X0124236Y0067905D02*
X0128264Y0067905D01*
X0127464Y0068903D02*
X0125036Y0068903D01*
X0125449Y0069902D02*
X0127051Y0069902D01*
X0126950Y0070900D02*
X0125550Y0070900D01*
X0125550Y0071899D02*
X0126950Y0071899D01*
X0126950Y0072897D02*
X0125550Y0072897D01*
X0125550Y0073896D02*
X0126950Y0073896D01*
X0126950Y0074894D02*
X0125550Y0074894D01*
X0125550Y0075893D02*
X0126950Y0075893D01*
X0126950Y0076891D02*
X0125550Y0076891D01*
X0125536Y0077890D02*
X0126964Y0077890D01*
X0127378Y0078888D02*
X0125122Y0078888D01*
X0124444Y0079887D02*
X0128056Y0079887D01*
X0129394Y0080885D02*
X0123106Y0080885D01*
X0133106Y0080885D02*
X0139394Y0080885D01*
X0138056Y0079887D02*
X0134444Y0079887D01*
X0135122Y0078888D02*
X0137378Y0078888D01*
X0136964Y0077890D02*
X0135536Y0077890D01*
X0135550Y0076891D02*
X0136950Y0076891D01*
X0136950Y0075893D02*
X0135550Y0075893D01*
X0135550Y0074894D02*
X0136950Y0074894D01*
X0136950Y0073896D02*
X0135550Y0073896D01*
X0135550Y0072897D02*
X0136950Y0072897D01*
X0136950Y0071899D02*
X0135550Y0071899D01*
X0135550Y0070900D02*
X0136950Y0070900D01*
X0137051Y0069902D02*
X0135449Y0069902D01*
X0135036Y0068903D02*
X0137464Y0068903D01*
X0138264Y0067905D02*
X0134236Y0067905D01*
X0144236Y0067905D02*
X0148264Y0067905D01*
X0147464Y0068903D02*
X0145036Y0068903D01*
X0145449Y0069902D02*
X0147051Y0069902D01*
X0146950Y0070900D02*
X0145550Y0070900D01*
X0145550Y0071899D02*
X0146950Y0071899D01*
X0146950Y0072897D02*
X0145550Y0072897D01*
X0145550Y0073896D02*
X0146950Y0073896D01*
X0146950Y0074894D02*
X0145550Y0074894D01*
X0145550Y0075893D02*
X0146950Y0075893D01*
X0146950Y0076891D02*
X0145550Y0076891D01*
X0145536Y0077890D02*
X0146964Y0077890D01*
X0147378Y0078888D02*
X0145122Y0078888D01*
X0144444Y0079887D02*
X0148056Y0079887D01*
X0149394Y0080885D02*
X0143106Y0080885D01*
X0153106Y0080885D02*
X0155829Y0080885D01*
X0161203Y0089872D02*
X0166297Y0089872D01*
X0166314Y0089855D02*
X0167895Y0089200D01*
X0169605Y0089200D01*
X0171186Y0089855D01*
X0172395Y0091064D01*
X0173050Y0092645D01*
X0173050Y0100355D01*
X0172395Y0101936D01*
X0171186Y0103145D01*
X0169605Y0103800D01*
X0167895Y0103800D01*
X0166314Y0103145D01*
X0165105Y0101936D01*
X0164450Y0100355D01*
X0164450Y0092645D01*
X0165105Y0091064D01*
X0166314Y0089855D01*
X0165298Y0090870D02*
X0162202Y0090870D01*
X0162729Y0091869D02*
X0164771Y0091869D01*
X0164450Y0092868D02*
X0163050Y0092868D01*
X0163050Y0093866D02*
X0164450Y0093866D01*
X0164450Y0094865D02*
X0163050Y0094865D01*
X0163050Y0095863D02*
X0164450Y0095863D01*
X0164450Y0096862D02*
X0163050Y0096862D01*
X0163050Y0097860D02*
X0164450Y0097860D01*
X0164450Y0098859D02*
X0163050Y0098859D01*
X0163050Y0099857D02*
X0164450Y0099857D01*
X0164657Y0100856D02*
X0162843Y0100856D01*
X0162429Y0101854D02*
X0165071Y0101854D01*
X0166022Y0102853D02*
X0161478Y0102853D01*
X0171478Y0102853D02*
X0176022Y0102853D01*
X0175071Y0101854D02*
X0172429Y0101854D01*
X0172843Y0100856D02*
X0174657Y0100856D01*
X0174450Y0099857D02*
X0173050Y0099857D01*
X0173050Y0098859D02*
X0174450Y0098859D01*
X0174450Y0097860D02*
X0173050Y0097860D01*
X0173050Y0096862D02*
X0174450Y0096862D01*
X0174450Y0095863D02*
X0173050Y0095863D01*
X0173050Y0094865D02*
X0174450Y0094865D01*
X0174450Y0093866D02*
X0173050Y0093866D01*
X0173050Y0092868D02*
X0174450Y0092868D01*
X0174771Y0091869D02*
X0172729Y0091869D01*
X0172202Y0090870D02*
X0175298Y0090870D01*
X0176297Y0089872D02*
X0171203Y0089872D01*
X0192202Y0090870D02*
X0208075Y0090870D01*
X0209404Y0087200D02*
X0196996Y0087200D01*
X0195596Y0085800D01*
X0208004Y0085800D01*
X0209404Y0087200D01*
X0209081Y0086876D02*
X0196672Y0086876D01*
X0195673Y0085878D02*
X0208082Y0085878D01*
X0214562Y0082882D02*
X0217190Y0082882D01*
X0216191Y0081884D02*
X0215560Y0081884D01*
X0219813Y0079000D02*
X0219813Y0075063D01*
X0216250Y0071500D01*
X0193750Y0071500D01*
X0178750Y0056500D01*
X0096250Y0056500D01*
X0069897Y0066906D02*
X0063550Y0066906D01*
X0064236Y0067905D02*
X0068264Y0067905D01*
X0067464Y0068903D02*
X0065036Y0068903D01*
X0065449Y0069902D02*
X0067051Y0069902D01*
X0066950Y0070900D02*
X0065550Y0070900D01*
X0065550Y0071899D02*
X0066950Y0071899D01*
X0066950Y0072897D02*
X0065550Y0072897D01*
X0065550Y0073896D02*
X0066950Y0073896D01*
X0066950Y0074894D02*
X0065550Y0074894D01*
X0065550Y0075893D02*
X0066950Y0075893D01*
X0066950Y0076891D02*
X0065550Y0076891D01*
X0065536Y0077890D02*
X0066964Y0077890D01*
X0067378Y0078888D02*
X0065122Y0078888D01*
X0066347Y0079887D02*
X0068056Y0079887D01*
X0061250Y0074000D02*
X0061050Y0074000D01*
X0088827Y0084879D02*
X0109335Y0084879D01*
X0116203Y0089872D02*
X0121297Y0089872D01*
X0120298Y0090870D02*
X0117202Y0090870D01*
X0117729Y0091869D02*
X0119771Y0091869D01*
X0119450Y0092868D02*
X0118050Y0092868D01*
X0118050Y0093866D02*
X0119450Y0093866D01*
X0119450Y0094865D02*
X0118050Y0094865D01*
X0118050Y0095863D02*
X0119450Y0095863D01*
X0119450Y0096862D02*
X0118050Y0096862D01*
X0118050Y0097860D02*
X0119450Y0097860D01*
X0119450Y0098859D02*
X0118050Y0098859D01*
X0118050Y0099857D02*
X0119450Y0099857D01*
X0119657Y0100856D02*
X0117843Y0100856D01*
X0117429Y0101854D02*
X0120071Y0101854D01*
X0119852Y0102853D02*
X0116478Y0102853D01*
X0113750Y0101500D02*
X0113750Y0096500D01*
X0109450Y0096862D02*
X0108050Y0096862D01*
X0108050Y0097860D02*
X0109450Y0097860D01*
X0109450Y0098859D02*
X0108050Y0098859D01*
X0108050Y0099857D02*
X0109450Y0099857D01*
X0109450Y0100355D02*
X0109450Y0092645D01*
X0110022Y0091263D01*
X0108050Y0093236D01*
X0108050Y0100355D01*
X0107395Y0101936D01*
X0107131Y0102200D01*
X0110369Y0102200D01*
X0110105Y0101936D01*
X0109450Y0100355D01*
X0109657Y0100856D02*
X0107843Y0100856D01*
X0107429Y0101854D02*
X0110071Y0101854D01*
X0109450Y0095863D02*
X0108050Y0095863D01*
X0108050Y0094865D02*
X0109450Y0094865D01*
X0109450Y0093866D02*
X0108050Y0093866D01*
X0108418Y0092868D02*
X0109450Y0092868D01*
X0109417Y0091869D02*
X0109771Y0091869D01*
X0126203Y0089872D02*
X0131297Y0089872D01*
X0130298Y0090870D02*
X0127202Y0090870D01*
X0127729Y0091869D02*
X0129771Y0091869D01*
X0129450Y0092868D02*
X0128050Y0092868D01*
X0128050Y0093866D02*
X0129450Y0093866D01*
X0129450Y0094865D02*
X0128050Y0094865D01*
X0128050Y0095863D02*
X0129450Y0095863D01*
X0138050Y0095863D02*
X0144450Y0095863D01*
X0144450Y0094865D02*
X0138050Y0094865D01*
X0138050Y0093866D02*
X0144450Y0093866D01*
X0144450Y0092868D02*
X0138050Y0092868D01*
X0137729Y0091869D02*
X0144771Y0091869D01*
X0144585Y0090870D02*
X0137202Y0090870D01*
X0136203Y0089872D02*
X0143586Y0089872D01*
X0144450Y0096862D02*
X0138050Y0096862D01*
X0138050Y0097860D02*
X0144450Y0097860D01*
X0144450Y0098859D02*
X0138050Y0098859D01*
X0138050Y0099857D02*
X0144450Y0099857D01*
X0144657Y0100856D02*
X0137843Y0100856D01*
X0137429Y0101854D02*
X0145071Y0101854D01*
X0181478Y0102853D02*
X0186022Y0102853D01*
X0196996Y0082200D02*
X0190596Y0075800D01*
X0200760Y0075800D01*
X0199465Y0077095D01*
X0199465Y0080905D01*
X0200760Y0082200D01*
X0196996Y0082200D01*
X0196679Y0081884D02*
X0200443Y0081884D01*
X0199465Y0080885D02*
X0195681Y0080885D01*
X0194682Y0079887D02*
X0199465Y0079887D01*
X0199465Y0078888D02*
X0193684Y0078888D01*
X0192685Y0077890D02*
X0199465Y0077890D01*
X0199668Y0076891D02*
X0191687Y0076891D01*
X0190688Y0075893D02*
X0200667Y0075893D01*
X0207370Y0075800D02*
X0208002Y0076432D01*
X0208319Y0076115D01*
X0208004Y0075800D01*
X0207370Y0075800D01*
X0207463Y0075893D02*
X0208097Y0075893D01*
X0210596Y0073300D02*
X0211696Y0074400D01*
X0213844Y0074400D01*
X0215876Y0076432D01*
X0217256Y0075052D01*
X0215504Y0073300D01*
X0210596Y0073300D01*
X0211191Y0073896D02*
X0216100Y0073896D01*
X0217099Y0074894D02*
X0214339Y0074894D01*
X0215337Y0075893D02*
X0216415Y0075893D01*
X0221191Y0073896D02*
X0230110Y0073896D01*
X0230087Y0074894D02*
X0231109Y0074894D01*
X0231085Y0075893D02*
X0232107Y0075893D01*
X0229112Y0072897D02*
X0220193Y0072897D01*
X0219194Y0071899D02*
X0228113Y0071899D01*
X0226930Y0070900D02*
X0220570Y0070900D01*
X0221929Y0069902D02*
X0225571Y0069902D01*
X0224884Y0068903D02*
X0222616Y0068903D01*
X0223030Y0067905D02*
X0224470Y0067905D01*
X0224450Y0066906D02*
X0223050Y0066906D01*
X0223050Y0065908D02*
X0224450Y0065908D01*
X0224450Y0064909D02*
X0223050Y0064909D01*
X0223050Y0063911D02*
X0224450Y0063911D01*
X0224450Y0062912D02*
X0223050Y0062912D01*
X0223050Y0061914D02*
X0224450Y0061914D01*
X0224450Y0060915D02*
X0223050Y0060915D01*
X0222956Y0059917D02*
X0224544Y0059917D01*
X0224958Y0058918D02*
X0222542Y0058918D01*
X0223366Y0057920D02*
X0225749Y0057920D01*
X0224364Y0056921D02*
X0227361Y0056921D01*
X0230139Y0056921D02*
X0237361Y0056921D01*
X0235749Y0057920D02*
X0231751Y0057920D01*
X0232542Y0058918D02*
X0234958Y0058918D01*
X0234544Y0059917D02*
X0232956Y0059917D01*
X0233050Y0060915D02*
X0234450Y0060915D01*
X0234450Y0061914D02*
X0233050Y0061914D01*
X0233050Y0062912D02*
X0234450Y0062912D01*
X0234450Y0063911D02*
X0233050Y0063911D01*
X0233050Y0064909D02*
X0234450Y0064909D01*
X0234450Y0065908D02*
X0233050Y0065908D01*
X0233050Y0066906D02*
X0234450Y0066906D01*
X0234470Y0067905D02*
X0233030Y0067905D01*
X0232616Y0068903D02*
X0234884Y0068903D01*
X0235571Y0069902D02*
X0233187Y0069902D01*
X0234186Y0070900D02*
X0236930Y0070900D01*
X0238113Y0071899D02*
X0235184Y0071899D01*
X0236183Y0072897D02*
X0239112Y0072897D01*
X0240110Y0073896D02*
X0237181Y0073896D01*
X0237961Y0074894D02*
X0241035Y0074894D01*
X0240037Y0075893D02*
X0238959Y0075893D01*
X0246250Y0075310D02*
X0246250Y0075310D01*
X0246250Y0074894D02*
X0246250Y0074894D01*
X0246250Y0073896D02*
X0246250Y0073896D01*
X0246250Y0072897D02*
X0245999Y0072897D01*
X0246250Y0071899D02*
X0245184Y0071899D01*
X0244186Y0070900D02*
X0246250Y0070900D01*
X0245571Y0069902D02*
X0243187Y0069902D01*
X0242616Y0068903D02*
X0244884Y0068903D01*
X0244470Y0067905D02*
X0243030Y0067905D01*
X0243050Y0066906D02*
X0244450Y0066906D01*
X0244450Y0065908D02*
X0243050Y0065908D01*
X0243050Y0064909D02*
X0244450Y0064909D01*
X0244450Y0063911D02*
X0243050Y0063911D01*
X0243050Y0062912D02*
X0244450Y0062912D01*
X0244450Y0061914D02*
X0243050Y0061914D01*
X0243050Y0060915D02*
X0244450Y0060915D01*
X0244544Y0059917D02*
X0242956Y0059917D01*
X0242542Y0058918D02*
X0244958Y0058918D01*
X0245749Y0057920D02*
X0241751Y0057920D01*
X0240139Y0056921D02*
X0247361Y0056921D01*
X0250273Y0049513D02*
X0242897Y0049513D01*
X0242135Y0048751D01*
X0242135Y0047900D01*
X0238200Y0047900D01*
X0238200Y0048712D01*
X0237438Y0049473D01*
X0230062Y0049473D01*
X0229300Y0048712D01*
X0229300Y0047900D01*
X0225011Y0047900D01*
X0225011Y0048712D01*
X0224249Y0049473D01*
X0222150Y0049473D01*
X0222150Y0052064D01*
X0222334Y0051881D01*
X0223253Y0051500D01*
X0264247Y0051500D01*
X0265166Y0051881D01*
X0270166Y0056881D01*
X0270254Y0056969D01*
X0271186Y0057355D01*
X0272395Y0058564D01*
X0273010Y0060048D01*
X0273010Y0017952D01*
X0272395Y0019436D01*
X0271186Y0020645D01*
X0269605Y0021300D01*
X0267895Y0021300D01*
X0266314Y0020645D01*
X0265105Y0019436D01*
X0264450Y0017855D01*
X0264450Y0010145D01*
X0265105Y0008564D01*
X0265169Y0008500D01*
X0262331Y0008500D01*
X0262395Y0008564D01*
X0263050Y0010145D01*
X0263050Y0017855D01*
X0262395Y0019436D01*
X0261186Y0020645D01*
X0259605Y0021300D01*
X0257895Y0021300D01*
X0256314Y0020645D01*
X0255482Y0019813D01*
X0249150Y0026146D01*
X0249150Y0034314D01*
X0250273Y0034314D01*
X0251034Y0035076D01*
X0251034Y0041271D01*
X0250392Y0041913D01*
X0251034Y0042556D01*
X0251034Y0048751D01*
X0250273Y0049513D01*
X0250852Y0048933D02*
X0273010Y0048933D01*
X0273010Y0047934D02*
X0251034Y0047934D01*
X0251034Y0046936D02*
X0273010Y0046936D01*
X0273010Y0045937D02*
X0251034Y0045937D01*
X0251034Y0044939D02*
X0273010Y0044939D01*
X0273010Y0043940D02*
X0251034Y0043940D01*
X0251034Y0042942D02*
X0273010Y0042942D01*
X0273010Y0041943D02*
X0250422Y0041943D01*
X0251034Y0040945D02*
X0273010Y0040945D01*
X0273010Y0039946D02*
X0251034Y0039946D01*
X0251034Y0038948D02*
X0273010Y0038948D01*
X0273010Y0037949D02*
X0251034Y0037949D01*
X0251034Y0036951D02*
X0273010Y0036951D01*
X0273010Y0035952D02*
X0251034Y0035952D01*
X0250912Y0034954D02*
X0273010Y0034954D01*
X0273010Y0033955D02*
X0249150Y0033955D01*
X0249150Y0032957D02*
X0273010Y0032957D01*
X0273010Y0031958D02*
X0249150Y0031958D01*
X0249150Y0030960D02*
X0273010Y0030960D01*
X0273010Y0029961D02*
X0249150Y0029961D01*
X0249150Y0028963D02*
X0273010Y0028963D01*
X0273010Y0027964D02*
X0249150Y0027964D01*
X0249150Y0026966D02*
X0273010Y0026966D01*
X0273010Y0025967D02*
X0249328Y0025967D01*
X0250327Y0024969D02*
X0273010Y0024969D01*
X0273010Y0023970D02*
X0251325Y0023970D01*
X0252324Y0022972D02*
X0273010Y0022972D01*
X0273010Y0021973D02*
X0253322Y0021973D01*
X0254321Y0020975D02*
X0257109Y0020975D01*
X0255645Y0019976D02*
X0255319Y0019976D01*
X0260391Y0020975D02*
X0267109Y0020975D01*
X0265645Y0019976D02*
X0261855Y0019976D01*
X0262585Y0018978D02*
X0264915Y0018978D01*
X0264501Y0017979D02*
X0262999Y0017979D01*
X0263050Y0016981D02*
X0264450Y0016981D01*
X0264450Y0015982D02*
X0263050Y0015982D01*
X0263050Y0014984D02*
X0264450Y0014984D01*
X0264450Y0013985D02*
X0263050Y0013985D01*
X0263050Y0012987D02*
X0264450Y0012987D01*
X0264450Y0011988D02*
X0263050Y0011988D01*
X0263050Y0010990D02*
X0264450Y0010990D01*
X0264514Y0009991D02*
X0262986Y0009991D01*
X0262573Y0008993D02*
X0264927Y0008993D01*
X0272331Y0008500D02*
X0272395Y0008564D01*
X0273010Y0010048D01*
X0273010Y0008500D01*
X0272331Y0008500D01*
X0272573Y0008993D02*
X0273010Y0008993D01*
X0272986Y0009991D02*
X0273010Y0009991D01*
X0272999Y0017979D02*
X0273010Y0017979D01*
X0273010Y0018978D02*
X0272585Y0018978D01*
X0273010Y0019976D02*
X0271855Y0019976D01*
X0273010Y0020975D02*
X0270391Y0020975D01*
X0258750Y0014000D02*
X0247350Y0025400D01*
X0247350Y0038000D01*
X0246585Y0038173D01*
X0242135Y0037949D02*
X0238200Y0037949D01*
X0238200Y0036951D02*
X0242135Y0036951D01*
X0242135Y0035952D02*
X0238200Y0035952D01*
X0238200Y0035036D02*
X0238200Y0041231D01*
X0237557Y0041874D01*
X0238200Y0042517D01*
X0238200Y0044300D01*
X0242135Y0044300D01*
X0242135Y0042556D01*
X0242778Y0041913D01*
X0242135Y0041271D01*
X0242135Y0035076D01*
X0242897Y0034314D01*
X0245550Y0034314D01*
X0245550Y0024654D01*
X0248904Y0021300D01*
X0247895Y0021300D01*
X0246314Y0020645D01*
X0245105Y0019436D01*
X0244450Y0017855D01*
X0244450Y0010145D01*
X0245105Y0008564D01*
X0245169Y0008500D01*
X0242331Y0008500D01*
X0242395Y0008564D01*
X0243050Y0010145D01*
X0243050Y0017855D01*
X0242395Y0019436D01*
X0241186Y0020645D01*
X0239605Y0021300D01*
X0237895Y0021300D01*
X0236314Y0020645D01*
X0235105Y0019436D01*
X0234750Y0018580D01*
X0234750Y0034275D01*
X0237438Y0034275D01*
X0238200Y0035036D01*
X0238117Y0034954D02*
X0242257Y0034954D01*
X0245550Y0033955D02*
X0234750Y0033955D01*
X0234750Y0032957D02*
X0245550Y0032957D01*
X0245550Y0031958D02*
X0234750Y0031958D01*
X0234750Y0030960D02*
X0245550Y0030960D01*
X0245550Y0029961D02*
X0234750Y0029961D01*
X0234750Y0028963D02*
X0245550Y0028963D01*
X0245550Y0027964D02*
X0234750Y0027964D01*
X0234750Y0026966D02*
X0245550Y0026966D01*
X0245550Y0025967D02*
X0234750Y0025967D01*
X0234750Y0024969D02*
X0245550Y0024969D01*
X0246234Y0023970D02*
X0234750Y0023970D01*
X0234750Y0022972D02*
X0247233Y0022972D01*
X0248231Y0021973D02*
X0234750Y0021973D01*
X0234750Y0020975D02*
X0237109Y0020975D01*
X0235645Y0019976D02*
X0234750Y0019976D01*
X0234750Y0018978D02*
X0234915Y0018978D01*
X0234450Y0017154D02*
X0234450Y0010145D01*
X0235105Y0008564D01*
X0235169Y0008500D01*
X0232331Y0008500D01*
X0232395Y0008564D01*
X0233050Y0010145D01*
X0233050Y0015754D01*
X0234450Y0017154D01*
X0234450Y0016981D02*
X0234276Y0016981D01*
X0234450Y0015982D02*
X0233278Y0015982D01*
X0233050Y0014984D02*
X0234450Y0014984D01*
X0234450Y0013985D02*
X0233050Y0013985D01*
X0233050Y0012987D02*
X0234450Y0012987D01*
X0234450Y0011988D02*
X0233050Y0011988D01*
X0233050Y0010990D02*
X0234450Y0010990D01*
X0234514Y0009991D02*
X0232986Y0009991D01*
X0232573Y0008993D02*
X0234927Y0008993D01*
X0242573Y0008993D02*
X0244927Y0008993D01*
X0244514Y0009991D02*
X0242986Y0009991D01*
X0243050Y0010990D02*
X0244450Y0010990D01*
X0244450Y0011988D02*
X0243050Y0011988D01*
X0243050Y0012987D02*
X0244450Y0012987D01*
X0244450Y0013985D02*
X0243050Y0013985D01*
X0243050Y0014984D02*
X0244450Y0014984D01*
X0244450Y0015982D02*
X0243050Y0015982D01*
X0243050Y0016981D02*
X0244450Y0016981D01*
X0244501Y0017979D02*
X0242999Y0017979D01*
X0242585Y0018978D02*
X0244915Y0018978D01*
X0245645Y0019976D02*
X0241855Y0019976D01*
X0240391Y0020975D02*
X0247109Y0020975D01*
X0253050Y0017154D02*
X0254450Y0015754D01*
X0254450Y0010145D01*
X0255105Y0008564D01*
X0255169Y0008500D01*
X0252331Y0008500D01*
X0252395Y0008564D01*
X0253050Y0010145D01*
X0253050Y0017154D01*
X0253050Y0016981D02*
X0253224Y0016981D01*
X0253050Y0015982D02*
X0254222Y0015982D01*
X0254450Y0014984D02*
X0253050Y0014984D01*
X0253050Y0013985D02*
X0254450Y0013985D01*
X0254450Y0012987D02*
X0253050Y0012987D01*
X0253050Y0011988D02*
X0254450Y0011988D01*
X0254450Y0010990D02*
X0253050Y0010990D01*
X0252986Y0009991D02*
X0254514Y0009991D01*
X0254927Y0008993D02*
X0252573Y0008993D01*
X0232950Y0018200D02*
X0228750Y0014000D01*
X0224450Y0013985D02*
X0223050Y0013985D01*
X0223050Y0012987D02*
X0224450Y0012987D01*
X0224450Y0011988D02*
X0223050Y0011988D01*
X0223050Y0010990D02*
X0224450Y0010990D01*
X0224450Y0010145D02*
X0225105Y0008564D01*
X0225169Y0008500D01*
X0222331Y0008500D01*
X0222395Y0008564D01*
X0223050Y0010145D01*
X0223050Y0017855D01*
X0222395Y0019436D01*
X0221186Y0020645D01*
X0219605Y0021300D01*
X0217895Y0021300D01*
X0216314Y0020645D01*
X0215105Y0019436D01*
X0214450Y0017855D01*
X0214450Y0010145D01*
X0215105Y0008564D01*
X0215169Y0008500D01*
X0212331Y0008500D01*
X0212395Y0008564D01*
X0213050Y0010145D01*
X0213050Y0017855D01*
X0212395Y0019436D01*
X0211186Y0020645D01*
X0209605Y0021300D01*
X0207996Y0021300D01*
X0220970Y0034275D01*
X0224249Y0034275D01*
X0225011Y0035036D01*
X0225011Y0041231D01*
X0224368Y0041874D01*
X0225011Y0042517D01*
X0225011Y0044300D01*
X0229300Y0044300D01*
X0229300Y0042517D01*
X0229943Y0041874D01*
X0229300Y0041231D01*
X0229300Y0035036D01*
X0230062Y0034275D01*
X0231150Y0034275D01*
X0231150Y0020660D01*
X0229605Y0021300D01*
X0227895Y0021300D01*
X0226314Y0020645D01*
X0225105Y0019436D01*
X0224450Y0017855D01*
X0224450Y0010145D01*
X0224514Y0009991D02*
X0222986Y0009991D01*
X0222573Y0008993D02*
X0224927Y0008993D01*
X0224450Y0014984D02*
X0223050Y0014984D01*
X0223050Y0015982D02*
X0224450Y0015982D01*
X0224450Y0016981D02*
X0223050Y0016981D01*
X0222999Y0017979D02*
X0224501Y0017979D01*
X0224915Y0018978D02*
X0222585Y0018978D01*
X0221855Y0019976D02*
X0225645Y0019976D01*
X0227109Y0020975D02*
X0220391Y0020975D01*
X0217109Y0020975D02*
X0210391Y0020975D01*
X0211855Y0019976D02*
X0215645Y0019976D01*
X0214915Y0018978D02*
X0212585Y0018978D01*
X0212999Y0017979D02*
X0214501Y0017979D01*
X0214450Y0016981D02*
X0213050Y0016981D01*
X0213050Y0015982D02*
X0214450Y0015982D01*
X0214450Y0014984D02*
X0213050Y0014984D01*
X0213050Y0013985D02*
X0214450Y0013985D01*
X0214450Y0012987D02*
X0213050Y0012987D01*
X0213050Y0011988D02*
X0214450Y0011988D01*
X0214450Y0010990D02*
X0213050Y0010990D01*
X0212986Y0009991D02*
X0214514Y0009991D01*
X0214927Y0008993D02*
X0212573Y0008993D01*
X0205169Y0008500D02*
X0202331Y0008500D01*
X0202395Y0008564D01*
X0203050Y0010145D01*
X0203050Y0016354D01*
X0204450Y0017754D01*
X0204450Y0010145D01*
X0205105Y0008564D01*
X0205169Y0008500D01*
X0204927Y0008993D02*
X0202573Y0008993D01*
X0202986Y0009991D02*
X0204514Y0009991D01*
X0204450Y0010990D02*
X0203050Y0010990D01*
X0203050Y0011988D02*
X0204450Y0011988D01*
X0204450Y0012987D02*
X0203050Y0012987D01*
X0203050Y0013985D02*
X0204450Y0013985D01*
X0204450Y0014984D02*
X0203050Y0014984D01*
X0203050Y0015982D02*
X0204450Y0015982D01*
X0204450Y0016981D02*
X0203676Y0016981D01*
X0198750Y0014600D02*
X0198750Y0014000D01*
X0198750Y0014600D02*
X0220350Y0036200D01*
X0220350Y0038000D01*
X0220561Y0038134D01*
X0225011Y0037949D02*
X0229300Y0037949D01*
X0229300Y0036951D02*
X0225011Y0036951D01*
X0225011Y0035952D02*
X0229300Y0035952D01*
X0229383Y0034954D02*
X0224928Y0034954D01*
X0220651Y0033955D02*
X0231150Y0033955D01*
X0231150Y0032957D02*
X0219652Y0032957D01*
X0218654Y0031958D02*
X0231150Y0031958D01*
X0231150Y0030960D02*
X0217655Y0030960D01*
X0216657Y0029961D02*
X0231150Y0029961D01*
X0231150Y0028963D02*
X0215658Y0028963D01*
X0214660Y0027964D02*
X0231150Y0027964D01*
X0231150Y0026966D02*
X0213661Y0026966D01*
X0212663Y0025967D02*
X0231150Y0025967D01*
X0231150Y0024969D02*
X0211664Y0024969D01*
X0210666Y0023970D02*
X0231150Y0023970D01*
X0231150Y0022972D02*
X0209667Y0022972D01*
X0208669Y0021973D02*
X0231150Y0021973D01*
X0231150Y0020975D02*
X0230391Y0020975D01*
X0232950Y0018200D02*
X0232950Y0038000D01*
X0233750Y0038134D01*
X0238200Y0038948D02*
X0242135Y0038948D01*
X0242135Y0039946D02*
X0238200Y0039946D01*
X0238200Y0040945D02*
X0242135Y0040945D01*
X0242748Y0041943D02*
X0237626Y0041943D01*
X0238200Y0042942D02*
X0242135Y0042942D01*
X0242135Y0043940D02*
X0238200Y0043940D01*
X0233750Y0045614D02*
X0233850Y0046100D01*
X0246450Y0046100D01*
X0246585Y0045654D01*
X0242135Y0047934D02*
X0238200Y0047934D01*
X0237978Y0048933D02*
X0242317Y0048933D01*
X0233750Y0045614D02*
X0232950Y0046100D01*
X0221250Y0046100D01*
X0220561Y0045614D01*
X0220350Y0046100D01*
X0220350Y0052400D01*
X0208750Y0064000D01*
X0213050Y0063911D02*
X0214450Y0063911D01*
X0214450Y0064909D02*
X0213050Y0064909D01*
X0213050Y0065908D02*
X0214450Y0065908D01*
X0214450Y0066906D02*
X0213050Y0066906D01*
X0213050Y0067855D02*
X0212395Y0069436D01*
X0212131Y0069700D01*
X0215369Y0069700D01*
X0215105Y0069436D01*
X0214450Y0067855D01*
X0214450Y0060846D01*
X0213050Y0062246D01*
X0213050Y0067855D01*
X0213030Y0067905D02*
X0214470Y0067905D01*
X0214884Y0068903D02*
X0212616Y0068903D01*
X0204884Y0068903D02*
X0202616Y0068903D01*
X0203030Y0067905D02*
X0204470Y0067905D01*
X0204450Y0066906D02*
X0203050Y0066906D01*
X0203050Y0065908D02*
X0204450Y0065908D01*
X0204450Y0064909D02*
X0203050Y0064909D01*
X0203050Y0063911D02*
X0204450Y0063911D01*
X0204450Y0062912D02*
X0203050Y0062912D01*
X0203050Y0061914D02*
X0204450Y0061914D01*
X0204450Y0060915D02*
X0203050Y0060915D01*
X0202956Y0059917D02*
X0204544Y0059917D01*
X0204958Y0058918D02*
X0202542Y0058918D01*
X0201751Y0057920D02*
X0205749Y0057920D01*
X0207361Y0056921D02*
X0200139Y0056921D01*
X0196708Y0055923D02*
X0214282Y0055923D01*
X0213283Y0056921D02*
X0210139Y0056921D01*
X0211751Y0057920D02*
X0212285Y0057920D01*
X0214380Y0060915D02*
X0214450Y0060915D01*
X0214450Y0061914D02*
X0213382Y0061914D01*
X0213050Y0062912D02*
X0214450Y0062912D01*
X0215280Y0054924D02*
X0195710Y0054924D01*
X0194711Y0053926D02*
X0216279Y0053926D01*
X0217277Y0052927D02*
X0193713Y0052927D01*
X0194450Y0063911D02*
X0188706Y0063911D01*
X0189705Y0064909D02*
X0194450Y0064909D01*
X0194450Y0065908D02*
X0190703Y0065908D01*
X0191702Y0066906D02*
X0194450Y0066906D01*
X0194470Y0067905D02*
X0192700Y0067905D01*
X0193699Y0068903D02*
X0194884Y0068903D01*
X0222213Y0074894D02*
X0225287Y0074894D01*
X0224289Y0075893D02*
X0223211Y0075893D01*
X0223434Y0081884D02*
X0224066Y0081884D01*
X0225064Y0082882D02*
X0222436Y0082882D01*
X0230310Y0082882D02*
X0232938Y0082882D01*
X0231940Y0081884D02*
X0231308Y0081884D01*
X0238184Y0082882D02*
X0240812Y0082882D01*
X0239814Y0081884D02*
X0239183Y0081884D01*
X0265294Y0093866D02*
X0273010Y0093866D01*
X0273010Y0092868D02*
X0266292Y0092868D01*
X0267291Y0091869D02*
X0273010Y0091869D01*
X0273010Y0090870D02*
X0268289Y0090870D01*
X0269288Y0089872D02*
X0273010Y0089872D01*
X0273010Y0088873D02*
X0270286Y0088873D01*
X0270166Y0088993D02*
X0270166Y0088993D01*
X0271041Y0087875D02*
X0273010Y0087875D01*
X0273010Y0086876D02*
X0271250Y0086876D01*
X0271250Y0085878D02*
X0273010Y0085878D01*
X0273010Y0084879D02*
X0271250Y0084879D01*
X0271250Y0083881D02*
X0273010Y0083881D01*
X0273010Y0082882D02*
X0271250Y0082882D01*
X0271250Y0081884D02*
X0273010Y0081884D01*
X0273010Y0080885D02*
X0271250Y0080885D01*
X0271250Y0079887D02*
X0273010Y0079887D01*
X0273010Y0078888D02*
X0271250Y0078888D01*
X0271250Y0077890D02*
X0273010Y0077890D01*
X0273010Y0076891D02*
X0271250Y0076891D01*
X0271250Y0075893D02*
X0273010Y0075893D01*
X0273010Y0074894D02*
X0271250Y0074894D01*
X0271250Y0073896D02*
X0273010Y0073896D01*
X0273010Y0072897D02*
X0271250Y0072897D01*
X0271250Y0071899D02*
X0273010Y0071899D01*
X0273010Y0070900D02*
X0271250Y0070900D01*
X0271929Y0069902D02*
X0273010Y0069902D01*
X0273010Y0068903D02*
X0272616Y0068903D01*
X0272956Y0059917D02*
X0273010Y0059917D01*
X0273010Y0058918D02*
X0272542Y0058918D01*
X0273010Y0057920D02*
X0271751Y0057920D01*
X0273010Y0056921D02*
X0270207Y0056921D01*
X0269208Y0055923D02*
X0273010Y0055923D01*
X0273010Y0054924D02*
X0268210Y0054924D01*
X0267211Y0053926D02*
X0273010Y0053926D01*
X0273010Y0052927D02*
X0266213Y0052927D01*
X0265214Y0051929D02*
X0273010Y0051929D01*
X0273010Y0050930D02*
X0222150Y0050930D01*
X0222150Y0049932D02*
X0273010Y0049932D01*
X0229874Y0041943D02*
X0224437Y0041943D01*
X0225011Y0040945D02*
X0229300Y0040945D01*
X0229300Y0039946D02*
X0225011Y0039946D01*
X0225011Y0038948D02*
X0229300Y0038948D01*
X0229300Y0042942D02*
X0225011Y0042942D01*
X0225011Y0043940D02*
X0229300Y0043940D01*
X0229300Y0047934D02*
X0225011Y0047934D01*
X0224789Y0048933D02*
X0229522Y0048933D01*
X0222286Y0051929D02*
X0222150Y0051929D01*
X0264295Y0094865D02*
X0273010Y0094865D01*
X0273010Y0095863D02*
X0263296Y0095863D01*
X0262298Y0096862D02*
X0273010Y0096862D01*
X0273010Y0097860D02*
X0261299Y0097860D01*
X0260301Y0098859D02*
X0273010Y0098859D01*
X0273010Y0099857D02*
X0259302Y0099857D01*
X0115540Y0027964D02*
X0103050Y0027964D01*
X0103050Y0026966D02*
X0116539Y0026966D01*
X0117537Y0025967D02*
X0103050Y0025967D01*
X0103050Y0024969D02*
X0118536Y0024969D01*
X0119534Y0023970D02*
X0103050Y0023970D01*
X0103050Y0022972D02*
X0120533Y0022972D01*
X0121531Y0021973D02*
X0103050Y0021973D01*
X0103050Y0020975D02*
X0109609Y0020975D01*
X0110395Y0021300D02*
X0108814Y0020645D01*
X0107605Y0019436D01*
X0106950Y0017855D01*
X0106950Y0010145D01*
X0107605Y0008564D01*
X0107669Y0008500D01*
X0104831Y0008500D01*
X0104895Y0008564D01*
X0105550Y0010145D01*
X0105550Y0017855D01*
X0104895Y0019436D01*
X0103686Y0020645D01*
X0103050Y0020909D01*
X0103050Y0036799D01*
X0103119Y0036827D01*
X0104048Y0037756D01*
X0104546Y0038959D01*
X0122275Y0021230D01*
X0122105Y0021300D01*
X0120395Y0021300D01*
X0118814Y0020645D01*
X0117605Y0019436D01*
X0116950Y0017855D01*
X0116950Y0010145D01*
X0117605Y0008564D01*
X0117669Y0008500D01*
X0114831Y0008500D01*
X0114895Y0008564D01*
X0115550Y0010145D01*
X0115550Y0017855D01*
X0114895Y0019436D01*
X0113686Y0020645D01*
X0112105Y0021300D01*
X0110395Y0021300D01*
X0112891Y0020975D02*
X0119609Y0020975D01*
X0118145Y0019976D02*
X0114355Y0019976D01*
X0115085Y0018978D02*
X0117415Y0018978D01*
X0117001Y0017979D02*
X0115499Y0017979D01*
X0115550Y0016981D02*
X0116950Y0016981D01*
X0116950Y0015982D02*
X0115550Y0015982D01*
X0115550Y0014984D02*
X0116950Y0014984D01*
X0116950Y0013985D02*
X0115550Y0013985D01*
X0115550Y0012987D02*
X0116950Y0012987D01*
X0116950Y0011988D02*
X0115550Y0011988D01*
X0115550Y0010990D02*
X0116950Y0010990D01*
X0117014Y0009991D02*
X0115486Y0009991D01*
X0115073Y0008993D02*
X0117427Y0008993D01*
X0107427Y0008993D02*
X0105073Y0008993D01*
X0105486Y0009991D02*
X0107014Y0009991D01*
X0106950Y0010990D02*
X0105550Y0010990D01*
X0105550Y0011988D02*
X0106950Y0011988D01*
X0106950Y0012987D02*
X0105550Y0012987D01*
X0105550Y0013985D02*
X0106950Y0013985D01*
X0106950Y0014984D02*
X0105550Y0014984D01*
X0105550Y0015982D02*
X0106950Y0015982D01*
X0106950Y0016981D02*
X0105550Y0016981D01*
X0105499Y0017979D02*
X0107001Y0017979D01*
X0107415Y0018978D02*
X0105085Y0018978D01*
X0104355Y0019976D02*
X0108145Y0019976D01*
X0101250Y0014000D02*
X0101250Y0039625D01*
X0104128Y0037949D02*
X0105555Y0037949D01*
X0106554Y0036951D02*
X0103243Y0036951D01*
X0103050Y0035952D02*
X0107552Y0035952D01*
X0108551Y0034954D02*
X0103050Y0034954D01*
X0103050Y0033955D02*
X0109549Y0033955D01*
X0110548Y0032957D02*
X0103050Y0032957D01*
X0103050Y0031958D02*
X0111546Y0031958D01*
X0112545Y0030960D02*
X0103050Y0030960D01*
X0103050Y0029961D02*
X0113543Y0029961D01*
X0114542Y0028963D02*
X0103050Y0028963D01*
X0088145Y0019976D02*
X0084355Y0019976D01*
X0085085Y0018978D02*
X0087415Y0018978D01*
X0087001Y0017979D02*
X0085499Y0017979D01*
X0085550Y0016981D02*
X0086950Y0016981D01*
X0086950Y0015982D02*
X0085550Y0015982D01*
X0085550Y0014984D02*
X0086950Y0014984D01*
X0125550Y0014984D02*
X0126950Y0014984D01*
X0126950Y0015982D02*
X0125550Y0015982D01*
X0125550Y0016981D02*
X0126524Y0016981D01*
X0125525Y0017979D02*
X0125499Y0017979D01*
X0127621Y0020975D02*
X0129609Y0020975D01*
X0104557Y0038948D02*
X0104541Y0038948D01*
X0066297Y0089872D02*
X0061203Y0089872D01*
X0062202Y0090870D02*
X0065298Y0090870D01*
X0064771Y0091869D02*
X0062729Y0091869D01*
X0063050Y0092868D02*
X0064450Y0092868D01*
X0064450Y0093866D02*
X0063050Y0093866D01*
X0063050Y0094865D02*
X0064450Y0094865D01*
X0064450Y0095863D02*
X0063050Y0095863D01*
X0063050Y0096862D02*
X0064450Y0096862D01*
X0064450Y0097860D02*
X0063050Y0097860D01*
X0063050Y0098859D02*
X0064450Y0098859D01*
X0064450Y0099857D02*
X0063050Y0099857D01*
X0062843Y0100856D02*
X0064657Y0100856D01*
X0065071Y0101854D02*
X0062429Y0101854D01*
X0061478Y0102853D02*
X0066022Y0102853D01*
X0072131Y0102200D02*
X0075369Y0102200D01*
X0075105Y0101936D01*
X0074450Y0100355D01*
X0074450Y0095098D01*
X0073050Y0093330D01*
X0073050Y0100355D01*
X0072395Y0101936D01*
X0072131Y0102200D01*
X0072429Y0101854D02*
X0075071Y0101854D01*
X0074657Y0100856D02*
X0072843Y0100856D01*
X0073050Y0099857D02*
X0074450Y0099857D01*
X0074450Y0098859D02*
X0073050Y0098859D01*
X0073050Y0097860D02*
X0074450Y0097860D01*
X0074450Y0096862D02*
X0073050Y0096862D01*
X0073050Y0095863D02*
X0074450Y0095863D01*
X0074265Y0094865D02*
X0073050Y0094865D01*
X0073050Y0093866D02*
X0073474Y0093866D01*
X0029095Y0110841D02*
X0023250Y0110841D01*
X0023250Y0111839D02*
X0027054Y0111839D01*
X0025669Y0112838D02*
X0023250Y0112838D01*
X0023250Y0113836D02*
X0024671Y0113836D01*
X0023896Y0114835D02*
X0023250Y0114835D01*
X0023250Y0115833D02*
X0023320Y0115833D01*
X0023250Y0125431D02*
X0023250Y0130366D01*
X0028473Y0130366D01*
X0026140Y0129019D01*
X0024203Y0127082D01*
X0023250Y0125431D01*
X0023250Y0125818D02*
X0023473Y0125818D01*
X0023250Y0126817D02*
X0024050Y0126817D01*
X0023250Y0127815D02*
X0024936Y0127815D01*
X0025935Y0128814D02*
X0023250Y0128814D01*
X0023250Y0129812D02*
X0027514Y0129812D01*
X0052891Y0128814D02*
X0058546Y0128814D01*
X0057547Y0127815D02*
X0053890Y0127815D01*
D16*
X0050719Y0124906D02*
X0049813Y0124000D01*
X0048750Y0124000D01*
X0043750Y0119000D01*
X0043750Y0106500D01*
X0048750Y0101500D01*
X0048750Y0096500D01*
X0041250Y0087031D02*
X0071250Y0087031D01*
X0078750Y0096500D01*
X0083750Y0083016D02*
X0093750Y0094000D01*
X0093750Y0096500D01*
X0103750Y0096500D02*
X0103750Y0094000D01*
X0111250Y0086500D01*
X0143750Y0086500D01*
X0148750Y0091500D01*
X0148750Y0096500D01*
X0148750Y0091500D02*
X0161250Y0079000D01*
X0161250Y0074000D01*
X0188750Y0051500D02*
X0198750Y0061500D01*
X0198750Y0064000D01*
X0218750Y0064000D02*
X0218750Y0059000D01*
X0223750Y0054000D01*
X0263750Y0054000D01*
X0268750Y0059000D01*
X0268750Y0064000D01*
X0268750Y0086874D01*
X0240719Y0114906D01*
X0236250Y0110437D01*
X0235266Y0109000D01*
X0206250Y0109000D01*
X0204065Y0106815D01*
X0204065Y0096500D01*
X0188750Y0096500D02*
X0188750Y0109000D01*
X0206250Y0109000D01*
X0188750Y0109000D02*
X0173750Y0109000D01*
X0138750Y0109000D01*
X0096250Y0109000D01*
X0090719Y0114531D01*
X0090719Y0114906D01*
X0060719Y0124906D02*
X0050719Y0124906D01*
X0029813Y0100437D02*
X0041250Y0087031D01*
X0041250Y0074000D01*
X0041250Y0066500D01*
X0043750Y0064000D01*
X0043750Y0041500D01*
X0041250Y0039000D01*
X0033750Y0039000D01*
X0028750Y0049000D02*
X0025266Y0046500D01*
X0025266Y0024000D01*
X0041250Y0024000D01*
X0068750Y0051500D01*
X0188750Y0051500D01*
X0228750Y0064000D02*
X0228750Y0069000D01*
X0235561Y0075811D01*
X0235561Y0079000D01*
X0243435Y0079000D02*
X0243435Y0076815D01*
X0243750Y0076500D01*
X0243750Y0074000D01*
X0238750Y0069000D01*
X0238750Y0064000D01*
X0248750Y0064000D02*
X0248750Y0084000D01*
X0243750Y0089000D01*
X0236250Y0088626D01*
X0235561Y0096500D01*
X0243435Y0096500D02*
X0243435Y0094315D01*
X0258750Y0079000D01*
X0258750Y0064000D01*
X0227687Y0079000D02*
X0227687Y0096500D01*
X0173750Y0109000D02*
X0170719Y0112031D01*
X0170719Y0114906D01*
X0138750Y0109000D02*
X0133750Y0104000D01*
X0133750Y0096500D01*
X0083750Y0083016D02*
X0066250Y0083016D01*
X0061250Y0079000D01*
X0061250Y0074000D01*
X0061050Y0074000D02*
X0061050Y0052400D01*
X0037650Y0029000D01*
X0033750Y0029000D01*
X0033750Y0049000D02*
X0028750Y0049000D01*
X0024734Y0052484D01*
X0024734Y0084984D01*
X0029085Y0089335D01*
X0029085Y0092563D01*
X0029085Y0100437D02*
X0029813Y0100437D01*
D17*
X0076350Y0046300D03*
X0091250Y0039625D03*
X0101250Y0039625D03*
M02*
