%
M48
M72
T01C0.02400
T02C0.02756
T03C0.03200
T04C0.04000
T05C0.11811
%
T01
X91250Y39625
X101250Y39625
X76350Y46300
T02
X29085Y92563
X29085Y100437
T03
X204065Y96500
X211939Y96500
X219813Y96500
X227687Y96500
X235561Y96500
X243435Y96500
X243435Y79000
X235561Y79000
X227687Y79000
X219813Y79000
X211939Y79000
X204065Y79000
T04
X31250Y14000
X41250Y14000
X51250Y14000
X61250Y14000
X71250Y14000
X81250Y14000
X91250Y14000
X101250Y14000
X111250Y14000
X121250Y14000
X131250Y14000
X141250Y14000
X151250Y14000
X161250Y14000
X171250Y14000
X198750Y14000
X208750Y14000
X218750Y14000
X228750Y14000
X238750Y14000
X248750Y14000
X258750Y14000
X268750Y14000
X268750Y64000
X258750Y64000
X248750Y64000
X238750Y64000
X228750Y64000
X218750Y64000
X208750Y64000
X198750Y64000
X171250Y74000
X161250Y74000
X151250Y74000
X141250Y74000
X131250Y74000
X121250Y74000
X111250Y74000
X101250Y74000
X91250Y74000
X81250Y74000
X71250Y74000
X61250Y74000
X51250Y74000
X41250Y74000
X31250Y74000
X33750Y59000
X33750Y49000
X33750Y39000
X33750Y29000
X48750Y96500
X58750Y96500
X68750Y96500
X78750Y96500
X93750Y96500
X103750Y96500
X113750Y96500
X123750Y96500
X133750Y96500
X148750Y96500
X158750Y96500
X168750Y96500
X178750Y96500
X188750Y96500
X190719Y114906
X200719Y114906
X210719Y114906
X220719Y114906
X230719Y114906
X240719Y114906
X240719Y124906
X230719Y124906
X220719Y124906
X210719Y124906
X200719Y124906
X190719Y124906
X180719Y124906
X170719Y124906
X160719Y124906
X150719Y124906
X140719Y124906
X130719Y124906
X120719Y124906
X110719Y124906
X100719Y124906
X90719Y124906
X80719Y124906
X70719Y124906
X60719Y124906
X50719Y124906
X50719Y114906
X60719Y114906
X70719Y114906
X80719Y114906
X90719Y114906
X100719Y114906
X110719Y114906
X120719Y114906
X130719Y114906
X140719Y114906
X150719Y114906
X160719Y114906
X170719Y114906
X180719Y114906
T05
X260876Y120693
X32530Y120693
M30
