G75*
%MOIN*%
%OFA0B0*%
%FSLAX25Y25*%
%IPPOS*%
%LPD*%
%AMOC8*
5,1,8,0,0,1.08239X$1,22.5*
%
%ADD10C,0.00400*%
%ADD11C,0.00600*%
%ADD12C,0.00500*%
D10*
X0224761Y0038074D02*
X0229365Y0038074D01*
X0229365Y0040376D01*
X0228598Y0041143D01*
X0227063Y0041143D01*
X0226296Y0040376D01*
X0226296Y0038074D01*
X0226296Y0039609D02*
X0224761Y0041143D01*
X0224761Y0042678D02*
X0224761Y0045747D01*
X0224761Y0044213D02*
X0229365Y0044213D01*
X0227830Y0042678D01*
X0237950Y0043445D02*
X0238717Y0042678D01*
X0237950Y0043445D02*
X0237950Y0044980D01*
X0238717Y0045747D01*
X0239485Y0045747D01*
X0240252Y0044980D01*
X0240252Y0044213D01*
X0240252Y0044980D02*
X0241019Y0045747D01*
X0241787Y0045747D01*
X0242554Y0044980D01*
X0242554Y0043445D01*
X0241787Y0042678D01*
X0241787Y0041143D02*
X0240252Y0041143D01*
X0239485Y0040376D01*
X0239485Y0038074D01*
X0239485Y0039609D02*
X0237950Y0041143D01*
X0237950Y0038074D02*
X0242554Y0038074D01*
X0242554Y0040376D01*
X0241787Y0041143D01*
X0250785Y0041183D02*
X0252319Y0039648D01*
X0252319Y0040415D02*
X0252319Y0038113D01*
X0250785Y0038113D02*
X0255389Y0038113D01*
X0255389Y0040415D01*
X0254621Y0041183D01*
X0253087Y0041183D01*
X0252319Y0040415D01*
X0250785Y0042717D02*
X0253854Y0045787D01*
X0254621Y0045787D01*
X0255389Y0045019D01*
X0255389Y0043485D01*
X0254621Y0042717D01*
X0250785Y0042717D02*
X0250785Y0045787D01*
D11*
X0251250Y0059000D02*
X0246250Y0059000D01*
X0243750Y0061500D01*
X0241250Y0059000D01*
X0236250Y0059000D01*
X0233750Y0061500D01*
X0231250Y0059000D01*
X0226250Y0059000D01*
X0223750Y0061500D01*
X0223750Y0066500D01*
X0226250Y0069000D01*
X0231250Y0069000D01*
X0233750Y0066500D01*
X0233750Y0061500D01*
X0233750Y0066500D02*
X0236250Y0069000D01*
X0241250Y0069000D01*
X0243750Y0066500D01*
X0243750Y0061500D01*
X0243750Y0066500D02*
X0246250Y0069000D01*
X0251250Y0069000D01*
X0253750Y0066500D01*
X0253750Y0061500D01*
X0256250Y0059000D01*
X0261250Y0059000D01*
X0263750Y0061500D01*
X0266250Y0059000D01*
X0271250Y0059000D01*
X0273750Y0061500D01*
X0273750Y0066500D01*
X0271250Y0069000D01*
X0266250Y0069000D01*
X0263750Y0066500D01*
X0261250Y0069000D01*
X0256250Y0069000D01*
X0253750Y0066500D01*
X0253750Y0061500D02*
X0251250Y0059000D01*
X0263750Y0061500D02*
X0263750Y0066500D01*
X0223750Y0066500D02*
X0221250Y0069000D01*
X0216250Y0069000D01*
X0213750Y0066500D01*
X0211250Y0069000D01*
X0206250Y0069000D01*
X0203750Y0066500D01*
X0201250Y0069000D01*
X0196250Y0069000D01*
X0193750Y0066500D01*
X0193750Y0061500D01*
X0196250Y0059000D01*
X0201250Y0059000D01*
X0203750Y0061500D01*
X0206250Y0059000D01*
X0211250Y0059000D01*
X0213750Y0061500D01*
X0216250Y0059000D01*
X0221250Y0059000D01*
X0223750Y0061500D01*
X0213750Y0061500D02*
X0213750Y0066500D01*
X0203750Y0066500D02*
X0203750Y0061500D01*
X0201250Y0019000D02*
X0196250Y0019000D01*
X0193750Y0016500D01*
X0193750Y0011500D01*
X0196250Y0009000D01*
X0201250Y0009000D01*
X0203750Y0011500D01*
X0206250Y0009000D01*
X0211250Y0009000D01*
X0213750Y0011500D01*
X0216250Y0009000D01*
X0221250Y0009000D01*
X0223750Y0011500D01*
X0226250Y0009000D01*
X0231250Y0009000D01*
X0233750Y0011500D01*
X0236250Y0009000D01*
X0241250Y0009000D01*
X0243750Y0011500D01*
X0246250Y0009000D01*
X0251250Y0009000D01*
X0253750Y0011500D01*
X0256250Y0009000D01*
X0261250Y0009000D01*
X0263750Y0011500D01*
X0266250Y0009000D01*
X0271250Y0009000D01*
X0273750Y0011500D01*
X0273750Y0016500D01*
X0271250Y0019000D01*
X0266250Y0019000D01*
X0263750Y0016500D01*
X0261250Y0019000D01*
X0256250Y0019000D01*
X0253750Y0016500D01*
X0253750Y0011500D01*
X0253750Y0016500D02*
X0251250Y0019000D01*
X0246250Y0019000D01*
X0243750Y0016500D01*
X0241250Y0019000D01*
X0236250Y0019000D01*
X0233750Y0016500D01*
X0231250Y0019000D01*
X0226250Y0019000D01*
X0223750Y0016500D01*
X0223750Y0011500D01*
X0223750Y0016500D02*
X0221250Y0019000D01*
X0216250Y0019000D01*
X0213750Y0016500D01*
X0211250Y0019000D01*
X0206250Y0019000D01*
X0203750Y0016500D01*
X0201250Y0019000D01*
X0203750Y0016500D02*
X0203750Y0011500D01*
X0213750Y0011500D02*
X0213750Y0016500D01*
X0233750Y0016500D02*
X0233750Y0011500D01*
X0243750Y0011500D02*
X0243750Y0016500D01*
X0263750Y0016500D02*
X0263750Y0011500D01*
X0038750Y0026500D02*
X0038750Y0031500D01*
X0036250Y0034000D01*
X0038750Y0036500D01*
X0038750Y0041500D01*
X0036250Y0044000D01*
X0038750Y0046500D01*
X0038750Y0051500D01*
X0036250Y0054000D01*
X0038750Y0056500D01*
X0038750Y0061500D01*
X0036250Y0064000D01*
X0031250Y0064000D01*
X0028750Y0061500D01*
X0028750Y0056500D01*
X0031250Y0054000D01*
X0028750Y0051500D01*
X0028750Y0046500D01*
X0031250Y0044000D01*
X0036250Y0044000D01*
X0031250Y0044000D02*
X0028750Y0041500D01*
X0028750Y0036500D01*
X0031250Y0034000D01*
X0028750Y0031500D01*
X0028750Y0026500D01*
X0031250Y0024000D01*
X0036250Y0024000D01*
X0038750Y0026500D01*
X0036250Y0034000D02*
X0031250Y0034000D01*
X0031250Y0054000D02*
X0036250Y0054000D01*
D12*
X0028750Y0066500D02*
X0028750Y0021500D01*
X0093750Y0021500D01*
X0093750Y0066500D01*
X0028750Y0066500D01*
X0025553Y0062949D02*
X0024803Y0062949D01*
X0024052Y0062198D01*
X0023301Y0062949D01*
X0022551Y0062949D01*
X0021800Y0062198D01*
X0021800Y0060697D01*
X0022551Y0059946D01*
X0024052Y0061447D02*
X0024052Y0062198D01*
X0025553Y0062949D02*
X0026304Y0062198D01*
X0026304Y0060697D01*
X0025553Y0059946D01*
X0025553Y0058345D02*
X0026304Y0057594D01*
X0026304Y0056093D01*
X0025553Y0055342D01*
X0024803Y0055342D01*
X0024052Y0056093D01*
X0024052Y0057594D01*
X0023301Y0058345D01*
X0022551Y0058345D01*
X0021800Y0057594D01*
X0021800Y0056093D01*
X0022551Y0055342D01*
X0022551Y0053741D02*
X0021800Y0052990D01*
X0021800Y0051489D01*
X0022551Y0050738D01*
X0026304Y0050738D01*
X0026304Y0053741D02*
X0022551Y0053741D01*
X0021049Y0056843D02*
X0027054Y0056843D01*
X0186049Y0061843D02*
X0192054Y0061843D01*
X0191304Y0061093D02*
X0190553Y0060342D01*
X0189803Y0060342D01*
X0189052Y0061093D01*
X0189052Y0062594D01*
X0188301Y0063345D01*
X0187551Y0063345D01*
X0186800Y0062594D01*
X0186800Y0061093D01*
X0187551Y0060342D01*
X0187551Y0058741D02*
X0191304Y0058741D01*
X0191304Y0061093D02*
X0191304Y0062594D01*
X0190553Y0063345D01*
X0190553Y0064946D02*
X0191304Y0065697D01*
X0191304Y0067198D01*
X0190553Y0067949D01*
X0189803Y0067949D01*
X0186800Y0064946D01*
X0186800Y0067949D01*
X0193750Y0069000D02*
X0193750Y0009000D01*
X0273750Y0009000D01*
X0273750Y0069000D01*
X0193750Y0069000D01*
X0187551Y0058741D02*
X0186800Y0057990D01*
X0186800Y0056489D01*
X0187551Y0055738D01*
X0191304Y0055738D01*
M02*
