G75*
%MOIN*%
%OFA0B0*%
%FSLAX25Y25*%
%IPPOS*%
%LPD*%
%AMOC8*
5,1,8,0,0,1.08239X$1,22.5*
%
%ADD10C,0.06000*%
%ADD11OC8,0.06000*%
%ADD12OC8,0.06600*%
%ADD13C,0.06299*%
%ADD14R,0.05118X0.06299*%
%ADD15C,0.01000*%
%ADD16C,0.02400*%
%ADD17C,0.04000*%
D10*
X0031250Y0011000D02*
X0031250Y0017000D01*
X0041250Y0017000D02*
X0041250Y0011000D01*
X0051250Y0011000D02*
X0051250Y0017000D01*
X0061250Y0017000D02*
X0061250Y0011000D01*
X0071250Y0011000D02*
X0071250Y0017000D01*
X0081250Y0017000D02*
X0081250Y0011000D01*
X0091250Y0011000D02*
X0091250Y0017000D01*
X0101250Y0017000D02*
X0101250Y0011000D01*
X0111250Y0011000D02*
X0111250Y0017000D01*
X0121250Y0017000D02*
X0121250Y0011000D01*
X0131250Y0011000D02*
X0131250Y0017000D01*
X0141250Y0017000D02*
X0141250Y0011000D01*
X0151250Y0011000D02*
X0151250Y0017000D01*
X0161250Y0017000D02*
X0161250Y0011000D01*
X0171250Y0011000D02*
X0171250Y0017000D01*
X0198750Y0017000D02*
X0198750Y0011000D01*
X0208750Y0011000D02*
X0208750Y0017000D01*
X0218750Y0017000D02*
X0218750Y0011000D01*
X0228750Y0011000D02*
X0228750Y0017000D01*
X0238750Y0017000D02*
X0238750Y0011000D01*
X0248750Y0011000D02*
X0248750Y0017000D01*
X0258750Y0017000D02*
X0258750Y0011000D01*
X0268750Y0011000D02*
X0268750Y0017000D01*
X0268750Y0061000D02*
X0268750Y0067000D01*
X0258750Y0067000D02*
X0258750Y0061000D01*
X0248750Y0061000D02*
X0248750Y0067000D01*
X0238750Y0067000D02*
X0238750Y0061000D01*
X0228750Y0061000D02*
X0228750Y0067000D01*
X0218750Y0067000D02*
X0218750Y0061000D01*
X0208750Y0061000D02*
X0208750Y0067000D01*
X0198750Y0067000D02*
X0198750Y0061000D01*
X0171250Y0071000D02*
X0171250Y0077000D01*
X0161250Y0077000D02*
X0161250Y0071000D01*
X0151250Y0071000D02*
X0151250Y0077000D01*
X0141250Y0077000D02*
X0141250Y0071000D01*
X0131250Y0071000D02*
X0131250Y0077000D01*
X0121250Y0077000D02*
X0121250Y0071000D01*
X0111250Y0071000D02*
X0111250Y0077000D01*
X0101250Y0077000D02*
X0101250Y0071000D01*
X0091250Y0071000D02*
X0091250Y0077000D01*
X0081250Y0077000D02*
X0081250Y0071000D01*
X0071250Y0071000D02*
X0071250Y0077000D01*
X0061250Y0077000D02*
X0061250Y0071000D01*
X0051250Y0071000D02*
X0051250Y0077000D01*
X0041250Y0077000D02*
X0041250Y0071000D01*
X0031250Y0071000D02*
X0031250Y0077000D01*
X0048750Y0093500D02*
X0048750Y0099500D01*
X0058750Y0099500D02*
X0058750Y0093500D01*
X0068750Y0093500D02*
X0068750Y0099500D01*
X0078750Y0099500D02*
X0078750Y0093500D01*
X0093750Y0093500D02*
X0093750Y0099500D01*
X0103750Y0099500D02*
X0103750Y0093500D01*
X0113750Y0093500D02*
X0113750Y0099500D01*
X0123750Y0099500D02*
X0123750Y0093500D01*
X0133750Y0093500D02*
X0133750Y0099500D01*
X0148750Y0099500D02*
X0148750Y0093500D01*
X0158750Y0093500D02*
X0158750Y0099500D01*
X0168750Y0099500D02*
X0168750Y0093500D01*
X0178750Y0093500D02*
X0178750Y0099500D01*
X0188750Y0099500D02*
X0188750Y0093500D01*
X0036750Y0059000D02*
X0030750Y0059000D01*
X0030750Y0049000D02*
X0036750Y0049000D01*
X0036750Y0039000D02*
X0030750Y0039000D01*
X0030750Y0029000D02*
X0036750Y0029000D01*
D11*
X0050719Y0114906D03*
X0060719Y0114906D03*
X0070719Y0114906D03*
X0080719Y0114906D03*
X0090719Y0114906D03*
X0100719Y0114906D03*
X0110719Y0114906D03*
X0120719Y0114906D03*
X0130719Y0114906D03*
X0140719Y0114906D03*
X0150719Y0114906D03*
X0160719Y0114906D03*
X0170719Y0114906D03*
X0180719Y0114906D03*
X0190719Y0114906D03*
X0200719Y0114906D03*
X0210719Y0114906D03*
X0220719Y0114906D03*
X0230719Y0114906D03*
X0240719Y0114906D03*
X0240719Y0124906D03*
X0230719Y0124906D03*
X0220719Y0124906D03*
X0210719Y0124906D03*
X0200719Y0124906D03*
X0190719Y0124906D03*
X0180719Y0124906D03*
X0170719Y0124906D03*
X0160719Y0124906D03*
X0150719Y0124906D03*
X0140719Y0124906D03*
X0130719Y0124906D03*
X0120719Y0124906D03*
X0110719Y0124906D03*
X0100719Y0124906D03*
X0090719Y0124906D03*
X0080719Y0124906D03*
X0070719Y0124906D03*
X0060719Y0124906D03*
X0050719Y0124906D03*
D12*
X0204065Y0096500D03*
X0211939Y0096500D03*
X0219813Y0096500D03*
X0227687Y0096500D03*
X0235561Y0096500D03*
X0243435Y0096500D03*
X0243435Y0079000D03*
X0235561Y0079000D03*
X0227687Y0079000D03*
X0219813Y0079000D03*
X0211939Y0079000D03*
X0204065Y0079000D03*
D13*
X0029085Y0092563D03*
X0029085Y0100437D03*
D14*
X0062510Y0036500D03*
X0069990Y0036500D03*
X0069990Y0026500D03*
X0062510Y0026500D03*
D15*
X0023250Y0024454D02*
X0023250Y0008500D01*
X0027669Y0008500D01*
X0027605Y0008564D01*
X0026950Y0010145D01*
X0026950Y0017855D01*
X0027605Y0019436D01*
X0027937Y0019768D01*
X0023629Y0024075D01*
X0023250Y0024454D01*
X0023250Y0023970D02*
X0023734Y0023970D01*
X0023250Y0022972D02*
X0024733Y0022972D01*
X0025731Y0021973D02*
X0023250Y0021973D01*
X0023250Y0020975D02*
X0026730Y0020975D01*
X0027728Y0019976D02*
X0023250Y0019976D01*
X0023250Y0018978D02*
X0027415Y0018978D01*
X0027001Y0017979D02*
X0023250Y0017979D01*
X0023250Y0016981D02*
X0026950Y0016981D01*
X0026950Y0015982D02*
X0023250Y0015982D01*
X0023250Y0014984D02*
X0026950Y0014984D01*
X0026950Y0013985D02*
X0023250Y0013985D01*
X0023250Y0012987D02*
X0026950Y0012987D01*
X0026950Y0011988D02*
X0023250Y0011988D01*
X0023250Y0010990D02*
X0026950Y0010990D01*
X0027014Y0009991D02*
X0023250Y0009991D01*
X0023250Y0008993D02*
X0027427Y0008993D01*
X0034831Y0008500D02*
X0034895Y0008564D01*
X0035550Y0010145D01*
X0035550Y0017154D01*
X0036950Y0015754D01*
X0036950Y0010145D01*
X0037605Y0008564D01*
X0037669Y0008500D01*
X0034831Y0008500D01*
X0035073Y0008993D02*
X0037427Y0008993D01*
X0037014Y0009991D02*
X0035486Y0009991D01*
X0035550Y0010990D02*
X0036950Y0010990D01*
X0036950Y0011988D02*
X0035550Y0011988D01*
X0035550Y0012987D02*
X0036950Y0012987D01*
X0036950Y0013985D02*
X0035550Y0013985D01*
X0035550Y0014984D02*
X0036950Y0014984D01*
X0036722Y0015982D02*
X0035550Y0015982D01*
X0035550Y0016981D02*
X0035724Y0016981D01*
X0031250Y0019000D02*
X0024375Y0025875D01*
X0024375Y0102125D01*
X0032500Y0110250D01*
X0039375Y0110250D01*
X0049375Y0120250D01*
X0072500Y0120250D01*
X0076250Y0124000D01*
X0076250Y0127125D01*
X0078750Y0129625D01*
X0086250Y0129625D01*
X0090625Y0125250D01*
X0090719Y0124906D01*
X0095018Y0124820D02*
X0096419Y0124820D01*
X0096419Y0125818D02*
X0095018Y0125818D01*
X0095018Y0126687D02*
X0092500Y0129205D01*
X0089215Y0129205D01*
X0088054Y0130366D01*
X0256820Y0130366D01*
X0254487Y0129019D01*
X0252549Y0127082D01*
X0251180Y0124709D01*
X0250470Y0122063D01*
X0250470Y0119323D01*
X0251180Y0116677D01*
X0252549Y0114304D01*
X0254487Y0112366D01*
X0256860Y0110997D01*
X0259506Y0110287D01*
X0262246Y0110287D01*
X0264892Y0110997D01*
X0267265Y0112366D01*
X0269202Y0114304D01*
X0270572Y0116677D01*
X0271281Y0119323D01*
X0271281Y0122063D01*
X0270572Y0124709D01*
X0269202Y0127082D01*
X0267265Y0129019D01*
X0264932Y0130366D01*
X0273010Y0130366D01*
X0273010Y0067952D01*
X0272395Y0069436D01*
X0271186Y0070645D01*
X0269605Y0071300D01*
X0267895Y0071300D01*
X0266314Y0070645D01*
X0265105Y0069436D01*
X0264450Y0067855D01*
X0264450Y0060145D01*
X0265105Y0058564D01*
X0266250Y0057419D01*
X0266250Y0020581D01*
X0265105Y0019436D01*
X0264450Y0017855D01*
X0264450Y0010145D01*
X0265105Y0008564D01*
X0265169Y0008500D01*
X0262331Y0008500D01*
X0262395Y0008564D01*
X0263050Y0010145D01*
X0263050Y0017855D01*
X0262395Y0019436D01*
X0261186Y0020645D01*
X0259605Y0021300D01*
X0257895Y0021300D01*
X0256314Y0020645D01*
X0255105Y0019436D01*
X0254450Y0017855D01*
X0254450Y0010145D01*
X0255105Y0008564D01*
X0255169Y0008500D01*
X0252331Y0008500D01*
X0252395Y0008564D01*
X0253050Y0010145D01*
X0253050Y0017855D01*
X0252395Y0019436D01*
X0251186Y0020645D01*
X0249605Y0021300D01*
X0247895Y0021300D01*
X0246314Y0020645D01*
X0246265Y0020596D01*
X0238550Y0031665D01*
X0238550Y0031846D01*
X0238136Y0032260D01*
X0237800Y0032741D01*
X0237623Y0032773D01*
X0237496Y0032900D01*
X0236909Y0032900D01*
X0236332Y0033003D01*
X0236185Y0032900D01*
X0093815Y0032900D01*
X0093668Y0033003D01*
X0093091Y0032900D01*
X0092504Y0032900D01*
X0092377Y0032773D01*
X0092200Y0032741D01*
X0091864Y0032260D01*
X0091450Y0031846D01*
X0091450Y0031665D01*
X0083735Y0020596D01*
X0083686Y0020645D01*
X0082105Y0021300D01*
X0080395Y0021300D01*
X0078814Y0020645D01*
X0077605Y0019436D01*
X0076950Y0017855D01*
X0076950Y0010145D01*
X0077605Y0008564D01*
X0077669Y0008500D01*
X0074831Y0008500D01*
X0074895Y0008564D01*
X0075550Y0010145D01*
X0075550Y0017855D01*
X0074895Y0019436D01*
X0073686Y0020645D01*
X0072105Y0021300D01*
X0071790Y0021300D01*
X0071790Y0022050D01*
X0073088Y0022050D01*
X0073849Y0022812D01*
X0073849Y0030188D01*
X0073088Y0030950D01*
X0071790Y0030950D01*
X0071790Y0032050D01*
X0073088Y0032050D01*
X0073849Y0032812D01*
X0073849Y0040188D01*
X0073088Y0040950D01*
X0066893Y0040950D01*
X0066250Y0040307D01*
X0065607Y0040950D01*
X0064925Y0040950D01*
X0064925Y0041390D01*
X0065003Y0042020D01*
X0064925Y0042120D01*
X0064925Y0065754D01*
X0066371Y0067200D01*
X0067425Y0068254D01*
X0067425Y0068998D01*
X0067605Y0068564D01*
X0068814Y0067355D01*
X0070395Y0066700D01*
X0072105Y0066700D01*
X0073686Y0067355D01*
X0074450Y0068119D01*
X0074450Y0049067D01*
X0073552Y0048169D01*
X0073050Y0046956D01*
X0073050Y0045644D01*
X0073552Y0044431D01*
X0074481Y0043502D01*
X0075694Y0043000D01*
X0077006Y0043000D01*
X0078219Y0043502D01*
X0079148Y0044431D01*
X0079650Y0045644D01*
X0079650Y0046956D01*
X0079148Y0048169D01*
X0078219Y0049098D01*
X0078050Y0049168D01*
X0078050Y0068119D01*
X0078814Y0067355D01*
X0080395Y0066700D01*
X0082105Y0066700D01*
X0083686Y0067355D01*
X0084895Y0068564D01*
X0085550Y0070145D01*
X0085550Y0077855D01*
X0084895Y0079436D01*
X0083686Y0080645D01*
X0082105Y0081300D01*
X0080395Y0081300D01*
X0078814Y0080645D01*
X0078050Y0079881D01*
X0078050Y0082246D01*
X0076996Y0083300D01*
X0070659Y0089636D01*
X0071186Y0089855D01*
X0072395Y0091064D01*
X0073050Y0092645D01*
X0073050Y0100355D01*
X0072395Y0101936D01*
X0071186Y0103145D01*
X0069605Y0103800D01*
X0067895Y0103800D01*
X0066314Y0103145D01*
X0065105Y0101936D01*
X0064450Y0100355D01*
X0064450Y0093346D01*
X0063050Y0094746D01*
X0063050Y0100355D01*
X0062395Y0101936D01*
X0061186Y0103145D01*
X0059605Y0103800D01*
X0057895Y0103800D01*
X0056314Y0103145D01*
X0055105Y0101936D01*
X0054450Y0100355D01*
X0054450Y0092645D01*
X0055105Y0091064D01*
X0056314Y0089855D01*
X0057895Y0089200D01*
X0059605Y0089200D01*
X0061186Y0089855D01*
X0062018Y0090687D01*
X0063825Y0088879D01*
X0063825Y0080506D01*
X0063686Y0080645D01*
X0062754Y0081031D01*
X0062666Y0081119D01*
X0052491Y0091295D01*
X0053050Y0092645D01*
X0053050Y0100355D01*
X0052395Y0101936D01*
X0051186Y0103145D01*
X0049605Y0103800D01*
X0049221Y0103800D01*
X0053871Y0108450D01*
X0073246Y0108450D01*
X0076996Y0112200D01*
X0077169Y0112374D01*
X0078937Y0110606D01*
X0082500Y0110606D01*
X0085018Y0113124D01*
X0085018Y0116687D01*
X0082500Y0119205D01*
X0079001Y0119205D01*
X0080401Y0120606D01*
X0082500Y0120606D01*
X0085018Y0123124D01*
X0085018Y0126687D01*
X0083880Y0127825D01*
X0085504Y0127825D01*
X0086531Y0126799D01*
X0086419Y0126687D01*
X0086419Y0123124D01*
X0088937Y0120606D01*
X0092500Y0120606D01*
X0095018Y0123124D01*
X0095018Y0126687D01*
X0094888Y0126817D02*
X0096549Y0126817D01*
X0096419Y0126687D02*
X0096419Y0123124D01*
X0098937Y0120606D01*
X0102500Y0120606D01*
X0105018Y0123124D01*
X0105018Y0126687D01*
X0102500Y0129205D01*
X0098937Y0129205D01*
X0096419Y0126687D01*
X0097547Y0127815D02*
X0093890Y0127815D01*
X0092891Y0128814D02*
X0098546Y0128814D01*
X0102891Y0128814D02*
X0108546Y0128814D01*
X0108937Y0129205D02*
X0106419Y0126687D01*
X0106419Y0123124D01*
X0108937Y0120606D01*
X0112500Y0120606D01*
X0115018Y0123124D01*
X0115018Y0126687D01*
X0112500Y0129205D01*
X0108937Y0129205D01*
X0107547Y0127815D02*
X0103890Y0127815D01*
X0104888Y0126817D02*
X0106549Y0126817D01*
X0106419Y0125818D02*
X0105018Y0125818D01*
X0105018Y0124820D02*
X0106419Y0124820D01*
X0106419Y0123821D02*
X0105018Y0123821D01*
X0104717Y0122823D02*
X0106720Y0122823D01*
X0107719Y0121824D02*
X0103718Y0121824D01*
X0102720Y0120826D02*
X0108717Y0120826D01*
X0108937Y0119205D02*
X0106419Y0116687D01*
X0106419Y0113124D01*
X0108937Y0110606D01*
X0112500Y0110606D01*
X0115018Y0113124D01*
X0115018Y0116687D01*
X0112500Y0119205D01*
X0108937Y0119205D01*
X0108561Y0118829D02*
X0102876Y0118829D01*
X0102500Y0119205D02*
X0098937Y0119205D01*
X0096419Y0116687D01*
X0096419Y0113124D01*
X0098937Y0110606D01*
X0102500Y0110606D01*
X0105018Y0113124D01*
X0105018Y0116687D01*
X0102500Y0119205D01*
X0103875Y0117830D02*
X0107562Y0117830D01*
X0106564Y0116832D02*
X0104873Y0116832D01*
X0105018Y0115833D02*
X0106419Y0115833D01*
X0106419Y0114835D02*
X0105018Y0114835D01*
X0105018Y0113836D02*
X0106419Y0113836D01*
X0106705Y0112838D02*
X0104732Y0112838D01*
X0103733Y0111839D02*
X0107704Y0111839D01*
X0108702Y0110841D02*
X0102735Y0110841D01*
X0098702Y0110841D02*
X0092735Y0110841D01*
X0092500Y0110606D02*
X0095018Y0113124D01*
X0095018Y0116687D01*
X0092500Y0119205D01*
X0088937Y0119205D01*
X0086419Y0116687D01*
X0086419Y0113954D01*
X0076631Y0104166D01*
X0076250Y0103247D01*
X0076250Y0103081D01*
X0075105Y0101936D01*
X0074450Y0100355D01*
X0074450Y0092645D01*
X0075105Y0091064D01*
X0076314Y0089855D01*
X0077895Y0089200D01*
X0079605Y0089200D01*
X0081186Y0089855D01*
X0082395Y0091064D01*
X0083050Y0092645D01*
X0083050Y0100355D01*
X0082395Y0101936D01*
X0081933Y0102398D01*
X0090141Y0110606D01*
X0092500Y0110606D01*
X0093733Y0111839D02*
X0097704Y0111839D01*
X0096705Y0112838D02*
X0094732Y0112838D01*
X0095018Y0113836D02*
X0096419Y0113836D01*
X0096419Y0114835D02*
X0095018Y0114835D01*
X0095018Y0115833D02*
X0096419Y0115833D01*
X0096564Y0116832D02*
X0094873Y0116832D01*
X0093875Y0117830D02*
X0097562Y0117830D01*
X0098561Y0118829D02*
X0092876Y0118829D01*
X0092720Y0120826D02*
X0098717Y0120826D01*
X0097719Y0121824D02*
X0093718Y0121824D01*
X0094717Y0122823D02*
X0096720Y0122823D01*
X0096419Y0123821D02*
X0095018Y0123821D01*
X0087719Y0121824D02*
X0083718Y0121824D01*
X0082720Y0120826D02*
X0088717Y0120826D01*
X0088561Y0118829D02*
X0082876Y0118829D01*
X0083875Y0117830D02*
X0087562Y0117830D01*
X0086564Y0116832D02*
X0084873Y0116832D01*
X0085018Y0115833D02*
X0086419Y0115833D01*
X0086419Y0114835D02*
X0085018Y0114835D01*
X0085018Y0113836D02*
X0086301Y0113836D01*
X0085302Y0112838D02*
X0084732Y0112838D01*
X0084304Y0111839D02*
X0083733Y0111839D01*
X0083305Y0110841D02*
X0082735Y0110841D01*
X0082307Y0109842D02*
X0074638Y0109842D01*
X0075636Y0110841D02*
X0078702Y0110841D01*
X0077704Y0111839D02*
X0076635Y0111839D01*
X0076250Y0114000D02*
X0076250Y0119000D01*
X0081250Y0124000D01*
X0080719Y0124906D01*
X0085018Y0124820D02*
X0086419Y0124820D01*
X0086419Y0125818D02*
X0085018Y0125818D01*
X0084888Y0126817D02*
X0086513Y0126817D01*
X0085514Y0127815D02*
X0083890Y0127815D01*
X0085018Y0123821D02*
X0086419Y0123821D01*
X0086720Y0122823D02*
X0084717Y0122823D01*
X0079623Y0119827D02*
X0250470Y0119827D01*
X0250470Y0120826D02*
X0242720Y0120826D01*
X0242500Y0120606D02*
X0245018Y0123124D01*
X0245018Y0126687D01*
X0242500Y0129205D01*
X0238937Y0129205D01*
X0236419Y0126687D01*
X0236419Y0123124D01*
X0238937Y0120606D01*
X0242500Y0120606D01*
X0242500Y0119205D02*
X0238937Y0119205D01*
X0236419Y0116687D01*
X0236419Y0113124D01*
X0238937Y0110606D01*
X0242500Y0110606D01*
X0245018Y0113124D01*
X0245018Y0116687D01*
X0242500Y0119205D01*
X0242876Y0118829D02*
X0250603Y0118829D01*
X0250870Y0117830D02*
X0243875Y0117830D01*
X0244873Y0116832D02*
X0251138Y0116832D01*
X0251666Y0115833D02*
X0245018Y0115833D01*
X0245018Y0114835D02*
X0252243Y0114835D01*
X0253017Y0113836D02*
X0245018Y0113836D01*
X0244732Y0112838D02*
X0254016Y0112838D01*
X0255400Y0111839D02*
X0243733Y0111839D01*
X0242735Y0110841D02*
X0257441Y0110841D01*
X0264311Y0110841D02*
X0273010Y0110841D01*
X0273010Y0111839D02*
X0266352Y0111839D01*
X0267736Y0112838D02*
X0273010Y0112838D01*
X0273010Y0113836D02*
X0268735Y0113836D01*
X0269509Y0114835D02*
X0273010Y0114835D01*
X0273010Y0115833D02*
X0270086Y0115833D01*
X0270614Y0116832D02*
X0273010Y0116832D01*
X0273010Y0117830D02*
X0270882Y0117830D01*
X0271149Y0118829D02*
X0273010Y0118829D01*
X0273010Y0119827D02*
X0271281Y0119827D01*
X0271281Y0120826D02*
X0273010Y0120826D01*
X0273010Y0121824D02*
X0271281Y0121824D01*
X0271078Y0122823D02*
X0273010Y0122823D01*
X0273010Y0123821D02*
X0270810Y0123821D01*
X0270509Y0124820D02*
X0273010Y0124820D01*
X0273010Y0125818D02*
X0269932Y0125818D01*
X0269356Y0126817D02*
X0273010Y0126817D01*
X0273010Y0127815D02*
X0268469Y0127815D01*
X0267471Y0128814D02*
X0273010Y0128814D01*
X0273010Y0129812D02*
X0265892Y0129812D01*
X0255860Y0129812D02*
X0088608Y0129812D01*
X0076946Y0130366D02*
X0074450Y0127871D01*
X0074450Y0127255D01*
X0072500Y0129205D01*
X0068937Y0129205D01*
X0066419Y0126687D01*
X0066419Y0123124D01*
X0067493Y0122050D01*
X0063944Y0122050D01*
X0065018Y0123124D01*
X0065018Y0126687D01*
X0062500Y0129205D01*
X0058937Y0129205D01*
X0056419Y0126687D01*
X0056419Y0123124D01*
X0057493Y0122050D01*
X0053944Y0122050D01*
X0055018Y0123124D01*
X0055018Y0126687D01*
X0052500Y0129205D01*
X0048937Y0129205D01*
X0046419Y0126687D01*
X0046419Y0123124D01*
X0048061Y0121482D01*
X0047575Y0120996D01*
X0038629Y0112050D01*
X0038371Y0112050D01*
X0038919Y0112366D01*
X0040856Y0114304D01*
X0042226Y0116677D01*
X0042935Y0119323D01*
X0042935Y0122063D01*
X0042226Y0124709D01*
X0040856Y0127082D01*
X0038919Y0129019D01*
X0036586Y0130366D01*
X0076946Y0130366D01*
X0076392Y0129812D02*
X0037545Y0129812D01*
X0039124Y0128814D02*
X0048546Y0128814D01*
X0047547Y0127815D02*
X0040123Y0127815D01*
X0041009Y0126817D02*
X0046549Y0126817D01*
X0046419Y0125818D02*
X0041586Y0125818D01*
X0042162Y0124820D02*
X0046419Y0124820D01*
X0046419Y0123821D02*
X0042464Y0123821D01*
X0042731Y0122823D02*
X0046720Y0122823D01*
X0047719Y0121824D02*
X0042935Y0121824D01*
X0042935Y0120826D02*
X0047405Y0120826D01*
X0046407Y0119827D02*
X0042935Y0119827D01*
X0042803Y0118829D02*
X0045408Y0118829D01*
X0044410Y0117830D02*
X0042535Y0117830D01*
X0042268Y0116832D02*
X0043411Y0116832D01*
X0042413Y0115833D02*
X0041739Y0115833D01*
X0041414Y0114835D02*
X0041163Y0114835D01*
X0040416Y0113836D02*
X0040388Y0113836D01*
X0039417Y0112838D02*
X0039390Y0112838D01*
X0043510Y0111839D02*
X0047704Y0111839D01*
X0048702Y0110841D02*
X0042511Y0110841D01*
X0041513Y0109842D02*
X0050172Y0109842D01*
X0050935Y0110606D02*
X0048937Y0110606D01*
X0046419Y0113124D01*
X0046419Y0114748D01*
X0040121Y0108450D01*
X0033246Y0108450D01*
X0029682Y0104887D01*
X0029970Y0104887D01*
X0031605Y0104209D01*
X0032857Y0102958D01*
X0033534Y0101322D01*
X0033534Y0099552D01*
X0032857Y0097916D01*
X0031605Y0096665D01*
X0031207Y0096500D01*
X0031605Y0096335D01*
X0032857Y0095083D01*
X0033534Y0093448D01*
X0033534Y0093205D01*
X0050935Y0110606D01*
X0053125Y0110250D02*
X0072500Y0110250D01*
X0076250Y0114000D01*
X0074450Y0117255D02*
X0073250Y0118455D01*
X0074450Y0119654D01*
X0074450Y0118254D01*
X0074450Y0117255D01*
X0074450Y0117830D02*
X0073875Y0117830D01*
X0073624Y0118829D02*
X0074450Y0118829D01*
X0068182Y0118450D02*
X0066419Y0116687D01*
X0066419Y0113124D01*
X0067493Y0112050D01*
X0063944Y0112050D01*
X0065018Y0113124D01*
X0065018Y0116687D01*
X0063255Y0118450D01*
X0068182Y0118450D01*
X0067562Y0117830D02*
X0063875Y0117830D01*
X0064873Y0116832D02*
X0066564Y0116832D01*
X0066419Y0115833D02*
X0065018Y0115833D01*
X0065018Y0114835D02*
X0066419Y0114835D01*
X0066419Y0113836D02*
X0065018Y0113836D01*
X0064732Y0112838D02*
X0066705Y0112838D01*
X0073639Y0108844D02*
X0081308Y0108844D01*
X0080310Y0107845D02*
X0053266Y0107845D01*
X0052267Y0106847D02*
X0079311Y0106847D01*
X0078313Y0105848D02*
X0051269Y0105848D01*
X0050270Y0104850D02*
X0077314Y0104850D01*
X0076500Y0103851D02*
X0049272Y0103851D01*
X0051478Y0102853D02*
X0056022Y0102853D01*
X0055071Y0101854D02*
X0052429Y0101854D01*
X0052843Y0100856D02*
X0054657Y0100856D01*
X0054450Y0099857D02*
X0053050Y0099857D01*
X0053050Y0098859D02*
X0054450Y0098859D01*
X0054450Y0097860D02*
X0053050Y0097860D01*
X0053050Y0096862D02*
X0054450Y0096862D01*
X0054450Y0095863D02*
X0053050Y0095863D01*
X0053050Y0094865D02*
X0054450Y0094865D01*
X0054450Y0093866D02*
X0053050Y0093866D01*
X0053050Y0092868D02*
X0054450Y0092868D01*
X0054771Y0091869D02*
X0052729Y0091869D01*
X0052915Y0090870D02*
X0055298Y0090870D01*
X0056297Y0089872D02*
X0053914Y0089872D01*
X0054912Y0088873D02*
X0063825Y0088873D01*
X0063825Y0087875D02*
X0055911Y0087875D01*
X0056909Y0086876D02*
X0063825Y0086876D01*
X0063825Y0085878D02*
X0057908Y0085878D01*
X0058906Y0084879D02*
X0063825Y0084879D01*
X0063825Y0083881D02*
X0059905Y0083881D01*
X0060903Y0082882D02*
X0063825Y0082882D01*
X0063825Y0081884D02*
X0061902Y0081884D01*
X0063106Y0080885D02*
X0063825Y0080885D01*
X0067425Y0080885D02*
X0069394Y0080885D01*
X0068814Y0080645D02*
X0067605Y0079436D01*
X0067425Y0079002D01*
X0067425Y0087779D01*
X0074450Y0080754D01*
X0074450Y0079881D01*
X0073686Y0080645D01*
X0072105Y0081300D01*
X0070395Y0081300D01*
X0068814Y0080645D01*
X0068056Y0079887D02*
X0067425Y0079887D01*
X0067425Y0081884D02*
X0073321Y0081884D01*
X0073106Y0080885D02*
X0074319Y0080885D01*
X0074444Y0079887D02*
X0074450Y0079887D01*
X0076250Y0081500D02*
X0076250Y0046500D01*
X0076350Y0046300D01*
X0079358Y0044939D02*
X0089450Y0044939D01*
X0089450Y0045937D02*
X0079650Y0045937D01*
X0079650Y0046936D02*
X0089450Y0046936D01*
X0089450Y0047934D02*
X0079245Y0047934D01*
X0078384Y0048933D02*
X0089450Y0048933D01*
X0089450Y0049932D02*
X0078050Y0049932D01*
X0078050Y0050930D02*
X0089450Y0050930D01*
X0089450Y0051929D02*
X0078050Y0051929D01*
X0078050Y0052927D02*
X0089450Y0052927D01*
X0089450Y0053926D02*
X0078050Y0053926D01*
X0078050Y0054924D02*
X0089450Y0054924D01*
X0089450Y0055371D02*
X0089450Y0042451D01*
X0089381Y0042423D01*
X0088452Y0041494D01*
X0087950Y0040281D01*
X0087950Y0038969D01*
X0088452Y0037756D01*
X0089381Y0036827D01*
X0090594Y0036325D01*
X0091906Y0036325D01*
X0093119Y0036827D01*
X0094048Y0037756D01*
X0094550Y0038969D01*
X0094550Y0040281D01*
X0094048Y0041494D01*
X0093119Y0042423D01*
X0093050Y0042451D01*
X0093050Y0053879D01*
X0107621Y0068450D01*
X0107670Y0068499D01*
X0108814Y0067355D01*
X0110395Y0066700D01*
X0110779Y0066700D01*
X0099450Y0055371D01*
X0099450Y0042451D01*
X0099381Y0042423D01*
X0098452Y0041494D01*
X0097950Y0040281D01*
X0097950Y0038969D01*
X0098452Y0037756D01*
X0099381Y0036827D01*
X0100594Y0036325D01*
X0101906Y0036325D01*
X0103119Y0036827D01*
X0104048Y0037756D01*
X0104550Y0038969D01*
X0104550Y0040281D01*
X0104048Y0041494D01*
X0103119Y0042423D01*
X0103050Y0042451D01*
X0103050Y0053879D01*
X0117621Y0068450D01*
X0117670Y0068499D01*
X0118814Y0067355D01*
X0120395Y0066700D01*
X0122105Y0066700D01*
X0123686Y0067355D01*
X0124895Y0068564D01*
X0125550Y0070145D01*
X0125550Y0075654D01*
X0126950Y0077054D01*
X0126950Y0070145D01*
X0127605Y0068564D01*
X0128814Y0067355D01*
X0130395Y0066700D01*
X0132105Y0066700D01*
X0133686Y0067355D01*
X0134895Y0068564D01*
X0135550Y0070145D01*
X0135550Y0075754D01*
X0136950Y0077154D01*
X0136950Y0070145D01*
X0137605Y0068564D01*
X0138814Y0067355D01*
X0140395Y0066700D01*
X0142105Y0066700D01*
X0143686Y0067355D01*
X0144895Y0068564D01*
X0145550Y0070145D01*
X0145550Y0074954D01*
X0146950Y0076354D01*
X0146950Y0070145D01*
X0147605Y0068564D01*
X0148814Y0067355D01*
X0150395Y0066700D01*
X0152105Y0066700D01*
X0153686Y0067355D01*
X0154895Y0068564D01*
X0155550Y0070145D01*
X0155550Y0077855D01*
X0154895Y0079436D01*
X0153686Y0080645D01*
X0152105Y0081300D01*
X0151896Y0081300D01*
X0155396Y0084800D01*
X0168896Y0084800D01*
X0169950Y0085854D01*
X0169950Y0085854D01*
X0175132Y0091037D01*
X0176314Y0089855D01*
X0177895Y0089200D01*
X0179605Y0089200D01*
X0181186Y0089855D01*
X0182395Y0091064D01*
X0183050Y0092645D01*
X0183050Y0100355D01*
X0182395Y0101936D01*
X0181186Y0103145D01*
X0179605Y0103800D01*
X0177895Y0103800D01*
X0176314Y0103145D01*
X0175105Y0101936D01*
X0174450Y0100355D01*
X0174450Y0095446D01*
X0173050Y0094046D01*
X0173050Y0100355D01*
X0172395Y0101936D01*
X0171186Y0103145D01*
X0169605Y0103800D01*
X0167895Y0103800D01*
X0166314Y0103145D01*
X0165105Y0101936D01*
X0164450Y0100355D01*
X0164450Y0095346D01*
X0163050Y0093946D01*
X0163050Y0100355D01*
X0162395Y0101936D01*
X0161186Y0103145D01*
X0159605Y0103800D01*
X0157895Y0103800D01*
X0156314Y0103145D01*
X0155105Y0101936D01*
X0154450Y0100355D01*
X0154450Y0095246D01*
X0153050Y0093846D01*
X0153050Y0100355D01*
X0152395Y0101936D01*
X0151186Y0103145D01*
X0149605Y0103800D01*
X0147895Y0103800D01*
X0146314Y0103145D01*
X0145105Y0101936D01*
X0144450Y0100355D01*
X0144450Y0092645D01*
X0145105Y0091064D01*
X0145969Y0090200D01*
X0142204Y0090200D01*
X0141150Y0089146D01*
X0140404Y0088400D01*
X0133204Y0088400D01*
X0132150Y0087346D01*
X0124568Y0079763D01*
X0123686Y0080645D01*
X0122105Y0081300D01*
X0120395Y0081300D01*
X0118814Y0080645D01*
X0118675Y0080506D01*
X0118675Y0088879D01*
X0120482Y0090687D01*
X0121314Y0089855D01*
X0122895Y0089200D01*
X0124605Y0089200D01*
X0126186Y0089855D01*
X0127395Y0091064D01*
X0128050Y0092645D01*
X0128050Y0100355D01*
X0127395Y0101936D01*
X0126186Y0103145D01*
X0124605Y0103800D01*
X0122895Y0103800D01*
X0121314Y0103145D01*
X0120105Y0101936D01*
X0119450Y0100355D01*
X0119450Y0094746D01*
X0118050Y0093346D01*
X0118050Y0100355D01*
X0117395Y0101936D01*
X0116186Y0103145D01*
X0114605Y0103800D01*
X0112895Y0103800D01*
X0111314Y0103145D01*
X0110105Y0101936D01*
X0109450Y0100355D01*
X0109450Y0094746D01*
X0108050Y0093346D01*
X0108050Y0100355D01*
X0107395Y0101936D01*
X0106186Y0103145D01*
X0104605Y0103800D01*
X0102895Y0103800D01*
X0101314Y0103145D01*
X0100105Y0101936D01*
X0099450Y0100355D01*
X0099450Y0092645D01*
X0100105Y0091064D01*
X0101314Y0089855D01*
X0102895Y0089200D01*
X0104605Y0089200D01*
X0105075Y0089395D01*
X0105075Y0079002D01*
X0104895Y0079436D01*
X0103686Y0080645D01*
X0102105Y0081300D01*
X0100395Y0081300D01*
X0098814Y0080645D01*
X0097605Y0079436D01*
X0096950Y0077855D01*
X0096950Y0070145D01*
X0097605Y0068564D01*
X0098814Y0067355D01*
X0100395Y0066700D01*
X0100779Y0066700D01*
X0089450Y0055371D01*
X0090002Y0055923D02*
X0078050Y0055923D01*
X0078050Y0056921D02*
X0091001Y0056921D01*
X0091999Y0057920D02*
X0078050Y0057920D01*
X0078050Y0058918D02*
X0092998Y0058918D01*
X0093996Y0059917D02*
X0078050Y0059917D01*
X0078050Y0060915D02*
X0094995Y0060915D01*
X0095993Y0061914D02*
X0078050Y0061914D01*
X0078050Y0062912D02*
X0096992Y0062912D01*
X0097990Y0063911D02*
X0078050Y0063911D01*
X0078050Y0064909D02*
X0098989Y0064909D01*
X0099987Y0065908D02*
X0078050Y0065908D01*
X0078050Y0066906D02*
X0079897Y0066906D01*
X0078264Y0067905D02*
X0078050Y0067905D01*
X0074450Y0067905D02*
X0074236Y0067905D01*
X0074450Y0066906D02*
X0072603Y0066906D01*
X0074450Y0065908D02*
X0065078Y0065908D01*
X0064925Y0064909D02*
X0074450Y0064909D01*
X0074450Y0063911D02*
X0064925Y0063911D01*
X0064925Y0062912D02*
X0074450Y0062912D01*
X0074450Y0061914D02*
X0064925Y0061914D01*
X0064925Y0060915D02*
X0074450Y0060915D01*
X0074450Y0059917D02*
X0064925Y0059917D01*
X0064925Y0058918D02*
X0074450Y0058918D01*
X0074450Y0057920D02*
X0064925Y0057920D01*
X0064925Y0056921D02*
X0074450Y0056921D01*
X0074450Y0055923D02*
X0064925Y0055923D01*
X0064925Y0054924D02*
X0074450Y0054924D01*
X0074450Y0053926D02*
X0064925Y0053926D01*
X0064925Y0052927D02*
X0074450Y0052927D01*
X0074450Y0051929D02*
X0064925Y0051929D01*
X0064925Y0050930D02*
X0074450Y0050930D01*
X0074450Y0049932D02*
X0064925Y0049932D01*
X0064925Y0048933D02*
X0074316Y0048933D01*
X0073455Y0047934D02*
X0064925Y0047934D01*
X0064925Y0046936D02*
X0073050Y0046936D01*
X0073050Y0045937D02*
X0064925Y0045937D01*
X0064925Y0044939D02*
X0073342Y0044939D01*
X0074043Y0043940D02*
X0064925Y0043940D01*
X0064925Y0042942D02*
X0089450Y0042942D01*
X0089450Y0043940D02*
X0078657Y0043940D01*
X0073092Y0040945D02*
X0088225Y0040945D01*
X0087950Y0039946D02*
X0073849Y0039946D01*
X0073849Y0038948D02*
X0087959Y0038948D01*
X0088372Y0037949D02*
X0073849Y0037949D01*
X0073849Y0036951D02*
X0089257Y0036951D01*
X0091250Y0039625D02*
X0091250Y0054625D01*
X0106875Y0070250D01*
X0106875Y0089625D01*
X0113750Y0096500D01*
X0109450Y0096862D02*
X0108050Y0096862D01*
X0108050Y0097860D02*
X0109450Y0097860D01*
X0109450Y0098859D02*
X0108050Y0098859D01*
X0108050Y0099857D02*
X0109450Y0099857D01*
X0109657Y0100856D02*
X0107843Y0100856D01*
X0107429Y0101854D02*
X0110071Y0101854D01*
X0111022Y0102853D02*
X0106478Y0102853D01*
X0101022Y0102853D02*
X0096478Y0102853D01*
X0096186Y0103145D02*
X0097395Y0101936D01*
X0098050Y0100355D01*
X0098050Y0092645D01*
X0097395Y0091064D01*
X0096186Y0089855D01*
X0094605Y0089200D01*
X0092895Y0089200D01*
X0091314Y0089855D01*
X0090105Y0091064D01*
X0089450Y0092645D01*
X0089450Y0100355D01*
X0090105Y0101936D01*
X0091314Y0103145D01*
X0092895Y0103800D01*
X0094605Y0103800D01*
X0096186Y0103145D01*
X0097429Y0101854D02*
X0100071Y0101854D01*
X0099657Y0100856D02*
X0097843Y0100856D01*
X0098050Y0099857D02*
X0099450Y0099857D01*
X0099450Y0098859D02*
X0098050Y0098859D01*
X0098050Y0097860D02*
X0099450Y0097860D01*
X0099450Y0096862D02*
X0098050Y0096862D01*
X0098050Y0095863D02*
X0099450Y0095863D01*
X0099450Y0094865D02*
X0098050Y0094865D01*
X0098050Y0093866D02*
X0099450Y0093866D01*
X0099450Y0092868D02*
X0098050Y0092868D01*
X0097729Y0091869D02*
X0099771Y0091869D01*
X0100298Y0090870D02*
X0097202Y0090870D01*
X0096203Y0089872D02*
X0101297Y0089872D01*
X0105075Y0088873D02*
X0071422Y0088873D01*
X0071203Y0089872D02*
X0076297Y0089872D01*
X0075298Y0090870D02*
X0072202Y0090870D01*
X0072729Y0091869D02*
X0074771Y0091869D01*
X0074450Y0092868D02*
X0073050Y0092868D01*
X0073050Y0093866D02*
X0074450Y0093866D01*
X0074450Y0094865D02*
X0073050Y0094865D01*
X0073050Y0095863D02*
X0074450Y0095863D01*
X0074450Y0096862D02*
X0073050Y0096862D01*
X0073050Y0097860D02*
X0074450Y0097860D01*
X0074450Y0098859D02*
X0073050Y0098859D01*
X0073050Y0099857D02*
X0074450Y0099857D01*
X0074657Y0100856D02*
X0072843Y0100856D01*
X0072429Y0101854D02*
X0075071Y0101854D01*
X0076022Y0102853D02*
X0071478Y0102853D01*
X0066022Y0102853D02*
X0061478Y0102853D01*
X0062429Y0101854D02*
X0065071Y0101854D01*
X0064657Y0100856D02*
X0062843Y0100856D01*
X0063050Y0099857D02*
X0064450Y0099857D01*
X0064450Y0098859D02*
X0063050Y0098859D01*
X0063050Y0097860D02*
X0064450Y0097860D01*
X0064450Y0096862D02*
X0063050Y0096862D01*
X0063050Y0095863D02*
X0064450Y0095863D01*
X0064450Y0094865D02*
X0063050Y0094865D01*
X0063930Y0093866D02*
X0064450Y0093866D01*
X0065625Y0089625D02*
X0058750Y0096500D01*
X0068750Y0096500D02*
X0068750Y0089000D01*
X0076250Y0081500D01*
X0077413Y0082882D02*
X0105075Y0082882D01*
X0105075Y0081884D02*
X0078050Y0081884D01*
X0078050Y0080885D02*
X0079394Y0080885D01*
X0078056Y0079887D02*
X0078050Y0079887D01*
X0083106Y0080885D02*
X0089394Y0080885D01*
X0088814Y0080645D02*
X0087605Y0079436D01*
X0086950Y0077855D01*
X0086950Y0070145D01*
X0087605Y0068564D01*
X0088814Y0067355D01*
X0090395Y0066700D01*
X0092105Y0066700D01*
X0093686Y0067355D01*
X0094895Y0068564D01*
X0095550Y0070145D01*
X0095550Y0077855D01*
X0094895Y0079436D01*
X0093686Y0080645D01*
X0092105Y0081300D01*
X0090395Y0081300D01*
X0088814Y0080645D01*
X0088056Y0079887D02*
X0084444Y0079887D01*
X0085122Y0078888D02*
X0087378Y0078888D01*
X0086964Y0077890D02*
X0085536Y0077890D01*
X0085550Y0076891D02*
X0086950Y0076891D01*
X0086950Y0075893D02*
X0085550Y0075893D01*
X0085550Y0074894D02*
X0086950Y0074894D01*
X0086950Y0073896D02*
X0085550Y0073896D01*
X0085550Y0072897D02*
X0086950Y0072897D01*
X0086950Y0071899D02*
X0085550Y0071899D01*
X0085550Y0070900D02*
X0086950Y0070900D01*
X0087051Y0069902D02*
X0085449Y0069902D01*
X0085036Y0068903D02*
X0087464Y0068903D01*
X0088264Y0067905D02*
X0084236Y0067905D01*
X0082603Y0066906D02*
X0089897Y0066906D01*
X0092603Y0066906D02*
X0099897Y0066906D01*
X0098264Y0067905D02*
X0094236Y0067905D01*
X0095036Y0068903D02*
X0097464Y0068903D01*
X0097051Y0069902D02*
X0095449Y0069902D01*
X0095550Y0070900D02*
X0096950Y0070900D01*
X0096950Y0071899D02*
X0095550Y0071899D01*
X0095550Y0072897D02*
X0096950Y0072897D01*
X0096950Y0073896D02*
X0095550Y0073896D01*
X0095550Y0074894D02*
X0096950Y0074894D01*
X0096950Y0075893D02*
X0095550Y0075893D01*
X0095550Y0076891D02*
X0096950Y0076891D01*
X0096964Y0077890D02*
X0095536Y0077890D01*
X0095122Y0078888D02*
X0097378Y0078888D01*
X0098056Y0079887D02*
X0094444Y0079887D01*
X0093106Y0080885D02*
X0099394Y0080885D01*
X0103106Y0080885D02*
X0105075Y0080885D01*
X0105075Y0079887D02*
X0104444Y0079887D01*
X0108675Y0080506D02*
X0108675Y0088879D01*
X0110482Y0090687D01*
X0111314Y0089855D01*
X0112895Y0089200D01*
X0114605Y0089200D01*
X0115075Y0089395D01*
X0115075Y0079002D01*
X0114895Y0079436D01*
X0113686Y0080645D01*
X0112105Y0081300D01*
X0110395Y0081300D01*
X0108814Y0080645D01*
X0108675Y0080506D01*
X0108675Y0080885D02*
X0109394Y0080885D01*
X0108675Y0081884D02*
X0115075Y0081884D01*
X0115075Y0082882D02*
X0108675Y0082882D01*
X0108675Y0083881D02*
X0115075Y0083881D01*
X0115075Y0084879D02*
X0108675Y0084879D01*
X0108675Y0085878D02*
X0115075Y0085878D01*
X0115075Y0086876D02*
X0108675Y0086876D01*
X0108675Y0087875D02*
X0115075Y0087875D01*
X0115075Y0088873D02*
X0108675Y0088873D01*
X0109668Y0089872D02*
X0111297Y0089872D01*
X0116875Y0089625D02*
X0123750Y0096500D01*
X0128050Y0096862D02*
X0129450Y0096862D01*
X0129450Y0097860D02*
X0128050Y0097860D01*
X0128050Y0098859D02*
X0129450Y0098859D01*
X0129450Y0099857D02*
X0128050Y0099857D01*
X0127843Y0100856D02*
X0129657Y0100856D01*
X0129450Y0100355D02*
X0129450Y0092645D01*
X0130105Y0091064D01*
X0131314Y0089855D01*
X0132895Y0089200D01*
X0134605Y0089200D01*
X0136186Y0089855D01*
X0137395Y0091064D01*
X0138050Y0092645D01*
X0138050Y0100355D01*
X0137395Y0101936D01*
X0136186Y0103145D01*
X0134605Y0103800D01*
X0132895Y0103800D01*
X0131314Y0103145D01*
X0130105Y0101936D01*
X0129450Y0100355D01*
X0130071Y0101854D02*
X0127429Y0101854D01*
X0126478Y0102853D02*
X0131022Y0102853D01*
X0136478Y0102853D02*
X0146022Y0102853D01*
X0145071Y0101854D02*
X0137429Y0101854D01*
X0137843Y0100856D02*
X0144657Y0100856D01*
X0144450Y0099857D02*
X0138050Y0099857D01*
X0138050Y0098859D02*
X0144450Y0098859D01*
X0144450Y0097860D02*
X0138050Y0097860D01*
X0138050Y0096862D02*
X0144450Y0096862D01*
X0144450Y0095863D02*
X0138050Y0095863D01*
X0138050Y0094865D02*
X0144450Y0094865D01*
X0144450Y0093866D02*
X0138050Y0093866D01*
X0138050Y0092868D02*
X0144450Y0092868D01*
X0144771Y0091869D02*
X0137729Y0091869D01*
X0137202Y0090870D02*
X0145298Y0090870D01*
X0141876Y0089872D02*
X0136203Y0089872D01*
X0132679Y0087875D02*
X0118675Y0087875D01*
X0118675Y0088873D02*
X0140878Y0088873D01*
X0142950Y0088400D02*
X0141150Y0086600D01*
X0133950Y0086600D01*
X0121350Y0074000D01*
X0121250Y0074000D01*
X0125550Y0073896D02*
X0126950Y0073896D01*
X0126950Y0074894D02*
X0125550Y0074894D01*
X0125788Y0075893D02*
X0126950Y0075893D01*
X0126950Y0076891D02*
X0126787Y0076891D01*
X0124691Y0079887D02*
X0124444Y0079887D01*
X0125690Y0080885D02*
X0123106Y0080885D01*
X0119394Y0080885D02*
X0118675Y0080885D01*
X0118675Y0081884D02*
X0126688Y0081884D01*
X0127687Y0082882D02*
X0118675Y0082882D01*
X0118675Y0083881D02*
X0128685Y0083881D01*
X0129684Y0084879D02*
X0118675Y0084879D01*
X0118675Y0085878D02*
X0130682Y0085878D01*
X0131681Y0086876D02*
X0118675Y0086876D01*
X0119668Y0089872D02*
X0121297Y0089872D01*
X0116875Y0089625D02*
X0116875Y0070250D01*
X0101250Y0054625D01*
X0101250Y0039625D01*
X0098225Y0040945D02*
X0094275Y0040945D01*
X0094550Y0039946D02*
X0097950Y0039946D01*
X0097959Y0038948D02*
X0094541Y0038948D01*
X0094128Y0037949D02*
X0098372Y0037949D01*
X0099257Y0036951D02*
X0093243Y0036951D01*
X0093409Y0032957D02*
X0073849Y0032957D01*
X0073849Y0033955D02*
X0266250Y0033955D01*
X0266250Y0032957D02*
X0236591Y0032957D01*
X0236266Y0032957D02*
X0093734Y0032957D01*
X0093250Y0031100D02*
X0236750Y0031100D01*
X0248250Y0014600D01*
X0248750Y0014000D01*
X0244450Y0013985D02*
X0243050Y0013985D01*
X0243050Y0012987D02*
X0244450Y0012987D01*
X0244450Y0011988D02*
X0243050Y0011988D01*
X0243050Y0010990D02*
X0244450Y0010990D01*
X0244450Y0010145D02*
X0244450Y0016904D01*
X0235810Y0029300D01*
X0094190Y0029300D01*
X0085550Y0016904D01*
X0085550Y0010145D01*
X0084895Y0008564D01*
X0084831Y0008500D01*
X0087669Y0008500D01*
X0087605Y0008564D01*
X0086950Y0010145D01*
X0086950Y0017855D01*
X0087605Y0019436D01*
X0088814Y0020645D01*
X0090395Y0021300D01*
X0092105Y0021300D01*
X0093686Y0020645D01*
X0094895Y0019436D01*
X0095550Y0017855D01*
X0095550Y0010145D01*
X0094895Y0008564D01*
X0094831Y0008500D01*
X0097669Y0008500D01*
X0097605Y0008564D01*
X0096950Y0010145D01*
X0096950Y0017855D01*
X0097605Y0019436D01*
X0098814Y0020645D01*
X0100395Y0021300D01*
X0102105Y0021300D01*
X0103686Y0020645D01*
X0104895Y0019436D01*
X0105550Y0017855D01*
X0105550Y0010145D01*
X0104895Y0008564D01*
X0104831Y0008500D01*
X0107669Y0008500D01*
X0107605Y0008564D01*
X0106950Y0010145D01*
X0106950Y0017855D01*
X0107605Y0019436D01*
X0108814Y0020645D01*
X0110395Y0021300D01*
X0112105Y0021300D01*
X0113686Y0020645D01*
X0114895Y0019436D01*
X0115550Y0017855D01*
X0115550Y0010145D01*
X0114895Y0008564D01*
X0114831Y0008500D01*
X0117669Y0008500D01*
X0117605Y0008564D01*
X0116950Y0010145D01*
X0116950Y0017855D01*
X0117605Y0019436D01*
X0118814Y0020645D01*
X0120395Y0021300D01*
X0122105Y0021300D01*
X0123686Y0020645D01*
X0123764Y0020567D01*
X0128550Y0027745D01*
X0128550Y0027946D01*
X0128951Y0028347D01*
X0129266Y0028819D01*
X0129463Y0028858D01*
X0129604Y0029000D01*
X0130172Y0029000D01*
X0130728Y0029111D01*
X0130895Y0029000D01*
X0228805Y0029000D01*
X0228972Y0029111D01*
X0229528Y0029000D01*
X0230096Y0029000D01*
X0230237Y0028858D01*
X0230434Y0028819D01*
X0230749Y0028347D01*
X0231150Y0027946D01*
X0231150Y0027745D01*
X0236056Y0020387D01*
X0236314Y0020645D01*
X0237895Y0021300D01*
X0239605Y0021300D01*
X0241186Y0020645D01*
X0242395Y0019436D01*
X0243050Y0017855D01*
X0243050Y0010145D01*
X0242395Y0008564D01*
X0242331Y0008500D01*
X0245169Y0008500D01*
X0245105Y0008564D01*
X0244450Y0010145D01*
X0244514Y0009991D02*
X0242986Y0009991D01*
X0242573Y0008993D02*
X0244927Y0008993D01*
X0252573Y0008993D02*
X0254927Y0008993D01*
X0254514Y0009991D02*
X0252986Y0009991D01*
X0253050Y0010990D02*
X0254450Y0010990D01*
X0254450Y0011988D02*
X0253050Y0011988D01*
X0253050Y0012987D02*
X0254450Y0012987D01*
X0254450Y0013985D02*
X0253050Y0013985D01*
X0253050Y0014984D02*
X0254450Y0014984D01*
X0254450Y0015982D02*
X0253050Y0015982D01*
X0253050Y0016981D02*
X0254450Y0016981D01*
X0254501Y0017979D02*
X0252999Y0017979D01*
X0252585Y0018978D02*
X0254915Y0018978D01*
X0255645Y0019976D02*
X0251855Y0019976D01*
X0250391Y0020975D02*
X0257109Y0020975D01*
X0260391Y0020975D02*
X0266250Y0020975D01*
X0266250Y0021973D02*
X0245305Y0021973D01*
X0246001Y0020975D02*
X0247109Y0020975D01*
X0244609Y0022972D02*
X0266250Y0022972D01*
X0266250Y0023970D02*
X0243913Y0023970D01*
X0243217Y0024969D02*
X0266250Y0024969D01*
X0266250Y0025967D02*
X0242521Y0025967D01*
X0241825Y0026966D02*
X0266250Y0026966D01*
X0266250Y0027964D02*
X0241130Y0027964D01*
X0240434Y0028963D02*
X0266250Y0028963D01*
X0266250Y0029961D02*
X0239738Y0029961D01*
X0239042Y0030960D02*
X0266250Y0030960D01*
X0266250Y0031958D02*
X0238437Y0031958D01*
X0236046Y0028963D02*
X0230133Y0028963D01*
X0231131Y0027964D02*
X0236741Y0027964D01*
X0237437Y0026966D02*
X0231669Y0026966D01*
X0232335Y0025967D02*
X0238133Y0025967D01*
X0238829Y0024969D02*
X0233001Y0024969D01*
X0233666Y0023970D02*
X0239525Y0023970D01*
X0240221Y0022972D02*
X0234332Y0022972D01*
X0234998Y0021973D02*
X0240917Y0021973D01*
X0240391Y0020975D02*
X0241613Y0020975D01*
X0241855Y0019976D02*
X0242309Y0019976D01*
X0242585Y0018978D02*
X0243005Y0018978D01*
X0242999Y0017979D02*
X0243701Y0017979D01*
X0243050Y0016981D02*
X0244397Y0016981D01*
X0244450Y0015982D02*
X0243050Y0015982D01*
X0243050Y0014984D02*
X0244450Y0014984D01*
X0238750Y0014000D02*
X0238350Y0013700D01*
X0229350Y0027200D01*
X0130350Y0027200D01*
X0121350Y0013700D01*
X0121250Y0014000D01*
X0125550Y0013985D02*
X0126950Y0013985D01*
X0126950Y0012987D02*
X0125550Y0012987D01*
X0125550Y0011988D02*
X0126950Y0011988D01*
X0126950Y0010990D02*
X0125550Y0010990D01*
X0125550Y0010145D02*
X0125550Y0016755D01*
X0131313Y0025400D01*
X0145283Y0025400D01*
X0145263Y0025358D01*
X0144950Y0025046D01*
X0144950Y0024713D01*
X0143097Y0020889D01*
X0142105Y0021300D01*
X0140395Y0021300D01*
X0138814Y0020645D01*
X0137605Y0019436D01*
X0136950Y0017855D01*
X0136950Y0010145D01*
X0137605Y0008564D01*
X0137669Y0008500D01*
X0134831Y0008500D01*
X0134895Y0008564D01*
X0135550Y0010145D01*
X0135550Y0017855D01*
X0134895Y0019436D01*
X0133686Y0020645D01*
X0132105Y0021300D01*
X0130395Y0021300D01*
X0128814Y0020645D01*
X0127605Y0019436D01*
X0126950Y0017855D01*
X0126950Y0010145D01*
X0127605Y0008564D01*
X0127669Y0008500D01*
X0124831Y0008500D01*
X0124895Y0008564D01*
X0125550Y0010145D01*
X0125486Y0009991D02*
X0127014Y0009991D01*
X0127427Y0008993D02*
X0125073Y0008993D01*
X0117427Y0008993D02*
X0115073Y0008993D01*
X0115486Y0009991D02*
X0117014Y0009991D01*
X0116950Y0010990D02*
X0115550Y0010990D01*
X0115550Y0011988D02*
X0116950Y0011988D01*
X0116950Y0012987D02*
X0115550Y0012987D01*
X0115550Y0013985D02*
X0116950Y0013985D01*
X0116950Y0014984D02*
X0115550Y0014984D01*
X0115550Y0015982D02*
X0116950Y0015982D01*
X0116950Y0016981D02*
X0115550Y0016981D01*
X0115499Y0017979D02*
X0117001Y0017979D01*
X0117415Y0018978D02*
X0115085Y0018978D01*
X0114355Y0019976D02*
X0118145Y0019976D01*
X0119609Y0020975D02*
X0112891Y0020975D01*
X0109609Y0020975D02*
X0102891Y0020975D01*
X0104355Y0019976D02*
X0108145Y0019976D01*
X0107415Y0018978D02*
X0105085Y0018978D01*
X0105499Y0017979D02*
X0107001Y0017979D01*
X0106950Y0016981D02*
X0105550Y0016981D01*
X0105550Y0015982D02*
X0106950Y0015982D01*
X0106950Y0014984D02*
X0105550Y0014984D01*
X0105550Y0013985D02*
X0106950Y0013985D01*
X0106950Y0012987D02*
X0105550Y0012987D01*
X0105550Y0011988D02*
X0106950Y0011988D01*
X0106950Y0010990D02*
X0105550Y0010990D01*
X0105486Y0009991D02*
X0107014Y0009991D01*
X0107427Y0008993D02*
X0105073Y0008993D01*
X0097427Y0008993D02*
X0095073Y0008993D01*
X0095486Y0009991D02*
X0097014Y0009991D01*
X0096950Y0010990D02*
X0095550Y0010990D01*
X0095550Y0011988D02*
X0096950Y0011988D01*
X0096950Y0012987D02*
X0095550Y0012987D01*
X0095550Y0013985D02*
X0096950Y0013985D01*
X0096950Y0014984D02*
X0095550Y0014984D01*
X0095550Y0015982D02*
X0096950Y0015982D01*
X0096950Y0016981D02*
X0095550Y0016981D01*
X0095499Y0017979D02*
X0097001Y0017979D01*
X0097415Y0018978D02*
X0095085Y0018978D01*
X0094355Y0019976D02*
X0098145Y0019976D01*
X0099609Y0020975D02*
X0092891Y0020975D01*
X0089779Y0022972D02*
X0125368Y0022972D01*
X0126034Y0023970D02*
X0090475Y0023970D01*
X0091171Y0024969D02*
X0126699Y0024969D01*
X0127365Y0025967D02*
X0091867Y0025967D01*
X0092563Y0026966D02*
X0128031Y0026966D01*
X0128569Y0027964D02*
X0093259Y0027964D01*
X0093954Y0028963D02*
X0129567Y0028963D01*
X0131026Y0024969D02*
X0144950Y0024969D01*
X0144590Y0023970D02*
X0130360Y0023970D01*
X0129694Y0022972D02*
X0144106Y0022972D01*
X0143622Y0021973D02*
X0129029Y0021973D01*
X0129609Y0020975D02*
X0128363Y0020975D01*
X0128145Y0019976D02*
X0127697Y0019976D01*
X0127415Y0018978D02*
X0127032Y0018978D01*
X0127001Y0017979D02*
X0126366Y0017979D01*
X0126950Y0016981D02*
X0125700Y0016981D01*
X0125550Y0015982D02*
X0126950Y0015982D01*
X0126950Y0014984D02*
X0125550Y0014984D01*
X0135550Y0014984D02*
X0136950Y0014984D01*
X0136950Y0015982D02*
X0135550Y0015982D01*
X0135550Y0016981D02*
X0136950Y0016981D01*
X0137001Y0017979D02*
X0135499Y0017979D01*
X0135085Y0018978D02*
X0137415Y0018978D01*
X0138145Y0019976D02*
X0134355Y0019976D01*
X0132891Y0020975D02*
X0139609Y0020975D01*
X0142891Y0020975D02*
X0143139Y0020975D01*
X0146655Y0019976D02*
X0148145Y0019976D01*
X0147605Y0019436D02*
X0146950Y0017855D01*
X0146950Y0010145D01*
X0147605Y0008564D01*
X0147669Y0008500D01*
X0144831Y0008500D01*
X0144895Y0008564D01*
X0145550Y0010145D01*
X0145550Y0017695D01*
X0147878Y0022500D01*
X0155104Y0022500D01*
X0154850Y0022246D01*
X0154850Y0022000D01*
X0153903Y0020428D01*
X0153686Y0020645D01*
X0152105Y0021300D01*
X0150395Y0021300D01*
X0148814Y0020645D01*
X0147605Y0019436D01*
X0147415Y0018978D02*
X0146171Y0018978D01*
X0145687Y0017979D02*
X0147001Y0017979D01*
X0146950Y0016981D02*
X0145550Y0016981D01*
X0145550Y0015982D02*
X0146950Y0015982D01*
X0146950Y0014984D02*
X0145550Y0014984D01*
X0145550Y0013985D02*
X0146950Y0013985D01*
X0146950Y0012987D02*
X0145550Y0012987D01*
X0145550Y0011988D02*
X0146950Y0011988D01*
X0146950Y0010990D02*
X0145550Y0010990D01*
X0145486Y0009991D02*
X0147014Y0009991D01*
X0147427Y0008993D02*
X0145073Y0008993D01*
X0137427Y0008993D02*
X0135073Y0008993D01*
X0135486Y0009991D02*
X0137014Y0009991D01*
X0136950Y0010990D02*
X0135550Y0010990D01*
X0135550Y0011988D02*
X0136950Y0011988D01*
X0136950Y0012987D02*
X0135550Y0012987D01*
X0135550Y0013985D02*
X0136950Y0013985D01*
X0141250Y0014000D02*
X0142050Y0014600D01*
X0146750Y0024300D01*
X0211350Y0024300D01*
X0218550Y0014600D01*
X0218750Y0014000D01*
X0223050Y0013985D02*
X0224450Y0013985D01*
X0224450Y0012987D02*
X0223050Y0012987D01*
X0223050Y0011988D02*
X0224450Y0011988D01*
X0224450Y0010990D02*
X0223050Y0010990D01*
X0223050Y0010145D02*
X0223050Y0017855D01*
X0222395Y0019436D01*
X0221186Y0020645D01*
X0219605Y0021300D01*
X0217895Y0021300D01*
X0216314Y0020645D01*
X0216309Y0020640D01*
X0213150Y0024895D01*
X0213150Y0025046D01*
X0212796Y0025400D01*
X0228387Y0025400D01*
X0232298Y0019533D01*
X0231186Y0020645D01*
X0229605Y0021300D01*
X0227895Y0021300D01*
X0226314Y0020645D01*
X0225105Y0019436D01*
X0224450Y0017855D01*
X0224450Y0010145D01*
X0225105Y0008564D01*
X0225169Y0008500D01*
X0222331Y0008500D01*
X0222395Y0008564D01*
X0223050Y0010145D01*
X0222986Y0009991D02*
X0224514Y0009991D01*
X0224927Y0008993D02*
X0222573Y0008993D01*
X0215169Y0008500D02*
X0212331Y0008500D01*
X0212395Y0008564D01*
X0213050Y0010145D01*
X0213050Y0017855D01*
X0212395Y0019436D01*
X0211186Y0020645D01*
X0209605Y0021300D01*
X0207895Y0021300D01*
X0206314Y0020645D01*
X0205469Y0019800D01*
X0203250Y0022204D01*
X0203250Y0022246D01*
X0202996Y0022500D01*
X0210444Y0022500D01*
X0214450Y0017104D01*
X0214450Y0010145D01*
X0215105Y0008564D01*
X0215169Y0008500D01*
X0214927Y0008993D02*
X0212573Y0008993D01*
X0212986Y0009991D02*
X0214514Y0009991D01*
X0214450Y0010990D02*
X0213050Y0010990D01*
X0213050Y0011988D02*
X0214450Y0011988D01*
X0214450Y0012987D02*
X0213050Y0012987D01*
X0213050Y0013985D02*
X0214450Y0013985D01*
X0214450Y0014984D02*
X0213050Y0014984D01*
X0213050Y0015982D02*
X0214450Y0015982D01*
X0214450Y0016981D02*
X0213050Y0016981D01*
X0212999Y0017979D02*
X0213800Y0017979D01*
X0213059Y0018978D02*
X0212585Y0018978D01*
X0212318Y0019976D02*
X0211855Y0019976D01*
X0211577Y0020975D02*
X0210391Y0020975D01*
X0210835Y0021973D02*
X0203463Y0021973D01*
X0204385Y0020975D02*
X0207109Y0020975D01*
X0205645Y0019976D02*
X0205306Y0019976D01*
X0203050Y0017113D02*
X0204450Y0015596D01*
X0204450Y0010145D01*
X0205105Y0008564D01*
X0205169Y0008500D01*
X0202331Y0008500D01*
X0202395Y0008564D01*
X0203050Y0010145D01*
X0203050Y0017113D01*
X0203050Y0016981D02*
X0203172Y0016981D01*
X0203050Y0015982D02*
X0204094Y0015982D01*
X0204450Y0014984D02*
X0203050Y0014984D01*
X0203050Y0013985D02*
X0204450Y0013985D01*
X0204450Y0012987D02*
X0203050Y0012987D01*
X0203050Y0011988D02*
X0204450Y0011988D01*
X0204450Y0010990D02*
X0203050Y0010990D01*
X0202986Y0009991D02*
X0204514Y0009991D01*
X0204927Y0008993D02*
X0202573Y0008993D01*
X0195169Y0008500D02*
X0174831Y0008500D01*
X0174895Y0008564D01*
X0175550Y0010145D01*
X0175550Y0017855D01*
X0174895Y0019436D01*
X0174631Y0019700D01*
X0195369Y0019700D01*
X0195105Y0019436D01*
X0194450Y0017855D01*
X0194450Y0010145D01*
X0195105Y0008564D01*
X0195169Y0008500D01*
X0194927Y0008993D02*
X0175073Y0008993D01*
X0175486Y0009991D02*
X0194514Y0009991D01*
X0194450Y0010990D02*
X0175550Y0010990D01*
X0175550Y0011988D02*
X0194450Y0011988D01*
X0194450Y0012987D02*
X0175550Y0012987D01*
X0175550Y0013985D02*
X0194450Y0013985D01*
X0194450Y0014984D02*
X0175550Y0014984D01*
X0175550Y0015982D02*
X0194450Y0015982D01*
X0194450Y0016981D02*
X0175550Y0016981D01*
X0175499Y0017979D02*
X0194501Y0017979D01*
X0194915Y0018978D02*
X0175085Y0018978D01*
X0167869Y0019700D02*
X0167605Y0019436D01*
X0166950Y0017855D01*
X0166950Y0010145D01*
X0167605Y0008564D01*
X0167669Y0008500D01*
X0164831Y0008500D01*
X0164895Y0008564D01*
X0165550Y0010145D01*
X0165550Y0017855D01*
X0164895Y0019436D01*
X0164631Y0019700D01*
X0167869Y0019700D01*
X0167415Y0018978D02*
X0165085Y0018978D01*
X0165499Y0017979D02*
X0167001Y0017979D01*
X0166950Y0016981D02*
X0165550Y0016981D01*
X0165550Y0015982D02*
X0166950Y0015982D01*
X0166950Y0014984D02*
X0165550Y0014984D01*
X0165550Y0013985D02*
X0166950Y0013985D01*
X0166950Y0012987D02*
X0165550Y0012987D01*
X0165550Y0011988D02*
X0166950Y0011988D01*
X0166950Y0010990D02*
X0165550Y0010990D01*
X0165486Y0009991D02*
X0167014Y0009991D01*
X0167427Y0008993D02*
X0165073Y0008993D01*
X0157669Y0008500D02*
X0154831Y0008500D01*
X0154895Y0008564D01*
X0155550Y0010145D01*
X0155550Y0016187D01*
X0157667Y0019700D01*
X0157869Y0019700D01*
X0157605Y0019436D01*
X0156950Y0017855D01*
X0156950Y0010145D01*
X0157605Y0008564D01*
X0157669Y0008500D01*
X0157427Y0008993D02*
X0155073Y0008993D01*
X0155486Y0009991D02*
X0157014Y0009991D01*
X0156950Y0010990D02*
X0155550Y0010990D01*
X0155550Y0011988D02*
X0156950Y0011988D01*
X0156950Y0012987D02*
X0155550Y0012987D01*
X0155550Y0013985D02*
X0156950Y0013985D01*
X0156950Y0014984D02*
X0155550Y0014984D01*
X0155550Y0015982D02*
X0156950Y0015982D01*
X0156950Y0016981D02*
X0156028Y0016981D01*
X0156630Y0017979D02*
X0157001Y0017979D01*
X0157232Y0018978D02*
X0157415Y0018978D01*
X0156650Y0021500D02*
X0201450Y0021500D01*
X0208650Y0013700D01*
X0208750Y0014000D01*
X0216060Y0020975D02*
X0217109Y0020975D01*
X0215319Y0021973D02*
X0230671Y0021973D01*
X0230391Y0020975D02*
X0231337Y0020975D01*
X0231855Y0019976D02*
X0232003Y0019976D01*
X0232449Y0019307D02*
X0234450Y0016305D01*
X0234450Y0010145D01*
X0235105Y0008564D01*
X0235169Y0008500D01*
X0232331Y0008500D01*
X0232395Y0008564D01*
X0233050Y0010145D01*
X0233050Y0017855D01*
X0232449Y0019307D01*
X0232585Y0018978D02*
X0232668Y0018978D01*
X0232999Y0017979D02*
X0233334Y0017979D01*
X0233050Y0016981D02*
X0234000Y0016981D01*
X0234450Y0015982D02*
X0233050Y0015982D01*
X0233050Y0014984D02*
X0234450Y0014984D01*
X0234450Y0013985D02*
X0233050Y0013985D01*
X0233050Y0012987D02*
X0234450Y0012987D01*
X0234450Y0011988D02*
X0233050Y0011988D01*
X0233050Y0010990D02*
X0234450Y0010990D01*
X0234514Y0009991D02*
X0232986Y0009991D01*
X0232573Y0008993D02*
X0234927Y0008993D01*
X0224450Y0014984D02*
X0223050Y0014984D01*
X0223050Y0015982D02*
X0224450Y0015982D01*
X0224450Y0016981D02*
X0223050Y0016981D01*
X0222999Y0017979D02*
X0224501Y0017979D01*
X0224915Y0018978D02*
X0222585Y0018978D01*
X0221855Y0019976D02*
X0225645Y0019976D01*
X0227109Y0020975D02*
X0220391Y0020975D01*
X0214578Y0022972D02*
X0230006Y0022972D01*
X0229340Y0023970D02*
X0213836Y0023970D01*
X0213150Y0024969D02*
X0228674Y0024969D01*
X0235664Y0020975D02*
X0237109Y0020975D01*
X0261855Y0019976D02*
X0265645Y0019976D01*
X0264915Y0018978D02*
X0262585Y0018978D01*
X0262999Y0017979D02*
X0264501Y0017979D01*
X0264450Y0016981D02*
X0263050Y0016981D01*
X0263050Y0015982D02*
X0264450Y0015982D01*
X0264450Y0014984D02*
X0263050Y0014984D01*
X0263050Y0013985D02*
X0264450Y0013985D01*
X0264450Y0012987D02*
X0263050Y0012987D01*
X0263050Y0011988D02*
X0264450Y0011988D01*
X0264450Y0010990D02*
X0263050Y0010990D01*
X0262986Y0009991D02*
X0264514Y0009991D01*
X0264927Y0008993D02*
X0262573Y0008993D01*
X0272331Y0008500D02*
X0272395Y0008564D01*
X0273010Y0010048D01*
X0273010Y0008500D01*
X0272331Y0008500D01*
X0272573Y0008993D02*
X0273010Y0008993D01*
X0272986Y0009991D02*
X0273010Y0009991D01*
X0273010Y0017952D02*
X0272395Y0019436D01*
X0271250Y0020581D01*
X0271250Y0057419D01*
X0272395Y0058564D01*
X0273010Y0060048D01*
X0273010Y0017952D01*
X0273010Y0017979D02*
X0272999Y0017979D01*
X0273010Y0018978D02*
X0272585Y0018978D01*
X0273010Y0019976D02*
X0271855Y0019976D01*
X0271250Y0020975D02*
X0273010Y0020975D01*
X0273010Y0021973D02*
X0271250Y0021973D01*
X0271250Y0022972D02*
X0273010Y0022972D01*
X0273010Y0023970D02*
X0271250Y0023970D01*
X0271250Y0024969D02*
X0273010Y0024969D01*
X0273010Y0025967D02*
X0271250Y0025967D01*
X0271250Y0026966D02*
X0273010Y0026966D01*
X0273010Y0027964D02*
X0271250Y0027964D01*
X0271250Y0028963D02*
X0273010Y0028963D01*
X0273010Y0029961D02*
X0271250Y0029961D01*
X0271250Y0030960D02*
X0273010Y0030960D01*
X0273010Y0031958D02*
X0271250Y0031958D01*
X0271250Y0032957D02*
X0273010Y0032957D01*
X0273010Y0033955D02*
X0271250Y0033955D01*
X0271250Y0034954D02*
X0273010Y0034954D01*
X0273010Y0035952D02*
X0271250Y0035952D01*
X0271250Y0036951D02*
X0273010Y0036951D01*
X0273010Y0037949D02*
X0271250Y0037949D01*
X0271250Y0038948D02*
X0273010Y0038948D01*
X0273010Y0039946D02*
X0271250Y0039946D01*
X0271250Y0040945D02*
X0273010Y0040945D01*
X0273010Y0041943D02*
X0271250Y0041943D01*
X0271250Y0042942D02*
X0273010Y0042942D01*
X0273010Y0043940D02*
X0271250Y0043940D01*
X0271250Y0044939D02*
X0273010Y0044939D01*
X0273010Y0045937D02*
X0271250Y0045937D01*
X0271250Y0046936D02*
X0273010Y0046936D01*
X0273010Y0047934D02*
X0271250Y0047934D01*
X0271250Y0048933D02*
X0273010Y0048933D01*
X0273010Y0049932D02*
X0271250Y0049932D01*
X0271250Y0050930D02*
X0273010Y0050930D01*
X0273010Y0051929D02*
X0271250Y0051929D01*
X0271250Y0052927D02*
X0273010Y0052927D01*
X0273010Y0053926D02*
X0271250Y0053926D01*
X0271250Y0054924D02*
X0273010Y0054924D01*
X0273010Y0055923D02*
X0271250Y0055923D01*
X0271250Y0056921D02*
X0273010Y0056921D01*
X0273010Y0057920D02*
X0271751Y0057920D01*
X0272542Y0058918D02*
X0273010Y0058918D01*
X0273010Y0059917D02*
X0272956Y0059917D01*
X0266250Y0056921D02*
X0260139Y0056921D01*
X0259605Y0056700D02*
X0261186Y0057355D01*
X0262395Y0058564D01*
X0263050Y0060145D01*
X0263050Y0067855D01*
X0262395Y0069436D01*
X0261186Y0070645D01*
X0259605Y0071300D01*
X0257895Y0071300D01*
X0256314Y0070645D01*
X0255105Y0069436D01*
X0254450Y0067855D01*
X0254450Y0060145D01*
X0255105Y0058564D01*
X0256314Y0057355D01*
X0257895Y0056700D01*
X0259605Y0056700D01*
X0257361Y0056921D02*
X0250139Y0056921D01*
X0249605Y0056700D02*
X0251186Y0057355D01*
X0252395Y0058564D01*
X0253050Y0060145D01*
X0253050Y0067855D01*
X0252395Y0069436D01*
X0251186Y0070645D01*
X0249605Y0071300D01*
X0247895Y0071300D01*
X0246314Y0070645D01*
X0245105Y0069436D01*
X0244450Y0067855D01*
X0244450Y0060145D01*
X0245105Y0058564D01*
X0246314Y0057355D01*
X0247895Y0056700D01*
X0249605Y0056700D01*
X0247361Y0056921D02*
X0240139Y0056921D01*
X0239605Y0056700D02*
X0241186Y0057355D01*
X0242395Y0058564D01*
X0243050Y0060145D01*
X0243050Y0067855D01*
X0242395Y0069436D01*
X0241186Y0070645D01*
X0239605Y0071300D01*
X0237895Y0071300D01*
X0236314Y0070645D01*
X0235105Y0069436D01*
X0234450Y0067855D01*
X0234450Y0060145D01*
X0235105Y0058564D01*
X0236314Y0057355D01*
X0237895Y0056700D01*
X0239605Y0056700D01*
X0237361Y0056921D02*
X0230139Y0056921D01*
X0229605Y0056700D02*
X0231186Y0057355D01*
X0232395Y0058564D01*
X0233050Y0060145D01*
X0233050Y0067855D01*
X0232395Y0069436D01*
X0231186Y0070645D01*
X0229605Y0071300D01*
X0227895Y0071300D01*
X0226513Y0070728D01*
X0226854Y0071068D01*
X0229806Y0074021D01*
X0230187Y0074940D01*
X0230187Y0074995D01*
X0231624Y0076432D01*
X0233656Y0074400D01*
X0237466Y0074400D01*
X0239498Y0076432D01*
X0241530Y0074400D01*
X0245340Y0074400D01*
X0248035Y0077095D01*
X0248035Y0080905D01*
X0245340Y0083600D01*
X0241530Y0083600D01*
X0239498Y0081568D01*
X0237466Y0083600D01*
X0233656Y0083600D01*
X0231624Y0081568D01*
X0229592Y0083600D01*
X0225782Y0083600D01*
X0223750Y0081568D01*
X0221718Y0083600D01*
X0217908Y0083600D01*
X0215876Y0081568D01*
X0213844Y0083600D01*
X0210034Y0083600D01*
X0208002Y0081568D01*
X0206565Y0083005D01*
X0206565Y0092495D01*
X0208002Y0093932D01*
X0210034Y0091900D01*
X0213844Y0091900D01*
X0215876Y0093932D01*
X0217908Y0091900D01*
X0221718Y0091900D01*
X0223750Y0093932D01*
X0225782Y0091900D01*
X0229592Y0091900D01*
X0231624Y0093932D01*
X0233656Y0091900D01*
X0237466Y0091900D01*
X0239498Y0093932D01*
X0241530Y0091900D01*
X0245340Y0091900D01*
X0248035Y0094595D01*
X0248035Y0098405D01*
X0245340Y0101100D01*
X0241530Y0101100D01*
X0239498Y0099068D01*
X0237466Y0101100D01*
X0233656Y0101100D01*
X0231624Y0099068D01*
X0229592Y0101100D01*
X0225782Y0101100D01*
X0223750Y0099068D01*
X0221718Y0101100D01*
X0217908Y0101100D01*
X0215876Y0099068D01*
X0213844Y0101100D01*
X0210034Y0101100D01*
X0208002Y0099068D01*
X0205970Y0101100D01*
X0202160Y0101100D01*
X0199465Y0098405D01*
X0199465Y0094595D01*
X0201565Y0092495D01*
X0201565Y0083005D01*
X0199465Y0080905D01*
X0199465Y0077095D01*
X0201575Y0074984D01*
X0194168Y0074984D01*
X0194093Y0075010D01*
X0193673Y0074984D01*
X0193253Y0074984D01*
X0193179Y0074954D01*
X0193100Y0074949D01*
X0192722Y0074765D01*
X0192334Y0074604D01*
X0192278Y0074547D01*
X0192206Y0074513D01*
X0191928Y0074198D01*
X0191631Y0073900D01*
X0191600Y0073827D01*
X0185123Y0066500D01*
X0167588Y0066500D01*
X0165400Y0069782D01*
X0165550Y0070145D01*
X0165550Y0077855D01*
X0164895Y0079436D01*
X0163686Y0080645D01*
X0162105Y0081300D01*
X0160395Y0081300D01*
X0158814Y0080645D01*
X0157605Y0079436D01*
X0156950Y0077855D01*
X0156950Y0070145D01*
X0157605Y0068564D01*
X0158814Y0067355D01*
X0160395Y0066700D01*
X0161445Y0066700D01*
X0164034Y0062817D01*
X0164131Y0062584D01*
X0164307Y0062407D01*
X0164446Y0062199D01*
X0164655Y0062059D01*
X0164834Y0061881D01*
X0165065Y0061785D01*
X0165272Y0061646D01*
X0165520Y0061597D01*
X0165753Y0061500D01*
X0166002Y0061500D01*
X0166247Y0061451D01*
X0166495Y0061500D01*
X0185832Y0061500D01*
X0185907Y0061474D01*
X0186327Y0061500D01*
X0186747Y0061500D01*
X0186821Y0061530D01*
X0186900Y0061535D01*
X0187278Y0061720D01*
X0187666Y0061881D01*
X0187722Y0061937D01*
X0187794Y0061972D01*
X0188072Y0062287D01*
X0188369Y0062584D01*
X0188400Y0062657D01*
X0194877Y0069984D01*
X0195653Y0069984D01*
X0195105Y0069436D01*
X0194450Y0067855D01*
X0194450Y0060145D01*
X0195105Y0058564D01*
X0196314Y0057355D01*
X0197895Y0056700D01*
X0199605Y0056700D01*
X0201186Y0057355D01*
X0202395Y0058564D01*
X0203050Y0060145D01*
X0203050Y0067855D01*
X0202395Y0069436D01*
X0201847Y0069984D01*
X0202581Y0069984D01*
X0204450Y0067747D01*
X0204450Y0060145D01*
X0205105Y0058564D01*
X0206314Y0057355D01*
X0207895Y0056700D01*
X0209605Y0056700D01*
X0211186Y0057355D01*
X0212395Y0058564D01*
X0213050Y0060145D01*
X0213050Y0067264D01*
X0215022Y0069237D01*
X0214450Y0067855D01*
X0214450Y0060145D01*
X0215105Y0058564D01*
X0216314Y0057355D01*
X0217895Y0056700D01*
X0219605Y0056700D01*
X0221186Y0057355D01*
X0222395Y0058564D01*
X0223050Y0060145D01*
X0223050Y0067855D01*
X0222395Y0069436D01*
X0221847Y0069984D01*
X0225232Y0069984D01*
X0225951Y0070282D01*
X0225105Y0069436D01*
X0224450Y0067855D01*
X0224450Y0060145D01*
X0225105Y0058564D01*
X0226314Y0057355D01*
X0227895Y0056700D01*
X0229605Y0056700D01*
X0227361Y0056921D02*
X0220139Y0056921D01*
X0221751Y0057920D02*
X0225749Y0057920D01*
X0224958Y0058918D02*
X0222542Y0058918D01*
X0222956Y0059917D02*
X0224544Y0059917D01*
X0224450Y0060915D02*
X0223050Y0060915D01*
X0223050Y0061914D02*
X0224450Y0061914D01*
X0224450Y0062912D02*
X0223050Y0062912D01*
X0223050Y0063911D02*
X0224450Y0063911D01*
X0224450Y0064909D02*
X0223050Y0064909D01*
X0223050Y0065908D02*
X0224450Y0065908D01*
X0224450Y0066906D02*
X0223050Y0066906D01*
X0223030Y0067905D02*
X0224470Y0067905D01*
X0224884Y0068903D02*
X0222616Y0068903D01*
X0221929Y0069902D02*
X0225571Y0069902D01*
X0226686Y0070900D02*
X0226930Y0070900D01*
X0227684Y0071899D02*
X0273010Y0071899D01*
X0273010Y0072897D02*
X0228683Y0072897D01*
X0229681Y0073896D02*
X0273010Y0073896D01*
X0273010Y0074894D02*
X0245835Y0074894D01*
X0246833Y0075893D02*
X0273010Y0075893D01*
X0273010Y0076891D02*
X0247832Y0076891D01*
X0248035Y0077890D02*
X0273010Y0077890D01*
X0273010Y0078888D02*
X0248035Y0078888D01*
X0248035Y0079887D02*
X0273010Y0079887D01*
X0273010Y0080885D02*
X0248035Y0080885D01*
X0247057Y0081884D02*
X0273010Y0081884D01*
X0273010Y0082882D02*
X0246058Y0082882D01*
X0240812Y0082882D02*
X0238184Y0082882D01*
X0239183Y0081884D02*
X0239814Y0081884D01*
X0232938Y0082882D02*
X0230310Y0082882D01*
X0231308Y0081884D02*
X0231940Y0081884D01*
X0225064Y0082882D02*
X0222436Y0082882D01*
X0223434Y0081884D02*
X0224066Y0081884D01*
X0217190Y0082882D02*
X0214562Y0082882D01*
X0215560Y0081884D02*
X0216191Y0081884D01*
X0209316Y0082882D02*
X0206688Y0082882D01*
X0206565Y0083881D02*
X0273010Y0083881D01*
X0273010Y0084879D02*
X0206565Y0084879D01*
X0206565Y0085878D02*
X0273010Y0085878D01*
X0273010Y0086876D02*
X0206565Y0086876D01*
X0206565Y0087875D02*
X0273010Y0087875D01*
X0273010Y0088873D02*
X0206565Y0088873D01*
X0206565Y0089872D02*
X0273010Y0089872D01*
X0273010Y0090870D02*
X0206565Y0090870D01*
X0206565Y0091869D02*
X0273010Y0091869D01*
X0273010Y0092868D02*
X0246308Y0092868D01*
X0247306Y0093866D02*
X0273010Y0093866D01*
X0273010Y0094865D02*
X0248035Y0094865D01*
X0248035Y0095863D02*
X0273010Y0095863D01*
X0273010Y0096862D02*
X0248035Y0096862D01*
X0248035Y0097860D02*
X0273010Y0097860D01*
X0273010Y0098859D02*
X0247582Y0098859D01*
X0246583Y0099857D02*
X0273010Y0099857D01*
X0273010Y0100856D02*
X0245585Y0100856D01*
X0241285Y0100856D02*
X0237711Y0100856D01*
X0238709Y0099857D02*
X0240287Y0099857D01*
X0233411Y0100856D02*
X0229837Y0100856D01*
X0230835Y0099857D02*
X0232413Y0099857D01*
X0225537Y0100856D02*
X0221963Y0100856D01*
X0222961Y0099857D02*
X0224539Y0099857D01*
X0217663Y0100856D02*
X0214089Y0100856D01*
X0215087Y0099857D02*
X0216665Y0099857D01*
X0209789Y0100856D02*
X0206215Y0100856D01*
X0207213Y0099857D02*
X0208791Y0099857D01*
X0201915Y0100856D02*
X0192843Y0100856D01*
X0193050Y0100355D02*
X0192395Y0101936D01*
X0191186Y0103145D01*
X0189605Y0103800D01*
X0187895Y0103800D01*
X0186314Y0103145D01*
X0185105Y0101936D01*
X0184450Y0100355D01*
X0184450Y0092645D01*
X0185105Y0091064D01*
X0186314Y0089855D01*
X0187895Y0089200D01*
X0189605Y0089200D01*
X0191186Y0089855D01*
X0192395Y0091064D01*
X0193050Y0092645D01*
X0193050Y0100355D01*
X0193050Y0099857D02*
X0200917Y0099857D01*
X0199918Y0098859D02*
X0193050Y0098859D01*
X0193050Y0097860D02*
X0199465Y0097860D01*
X0199465Y0096862D02*
X0193050Y0096862D01*
X0193050Y0095863D02*
X0199465Y0095863D01*
X0199465Y0094865D02*
X0193050Y0094865D01*
X0193050Y0093866D02*
X0200194Y0093866D01*
X0201192Y0092868D02*
X0193050Y0092868D01*
X0192729Y0091869D02*
X0201565Y0091869D01*
X0201565Y0090870D02*
X0192202Y0090870D01*
X0191203Y0089872D02*
X0201565Y0089872D01*
X0201565Y0088873D02*
X0172969Y0088873D01*
X0171971Y0087875D02*
X0201565Y0087875D01*
X0201565Y0086876D02*
X0170972Y0086876D01*
X0169973Y0085878D02*
X0201565Y0085878D01*
X0201565Y0084879D02*
X0168975Y0084879D01*
X0168150Y0086600D02*
X0178050Y0096500D01*
X0178750Y0096500D01*
X0174450Y0096862D02*
X0173050Y0096862D01*
X0173050Y0097860D02*
X0174450Y0097860D01*
X0174450Y0098859D02*
X0173050Y0098859D01*
X0173050Y0099857D02*
X0174450Y0099857D01*
X0174657Y0100856D02*
X0172843Y0100856D01*
X0172429Y0101854D02*
X0175071Y0101854D01*
X0176022Y0102853D02*
X0171478Y0102853D01*
X0166022Y0102853D02*
X0161478Y0102853D01*
X0162429Y0101854D02*
X0165071Y0101854D01*
X0164657Y0100856D02*
X0162843Y0100856D01*
X0163050Y0099857D02*
X0164450Y0099857D01*
X0164450Y0098859D02*
X0163050Y0098859D01*
X0163050Y0097860D02*
X0164450Y0097860D01*
X0164450Y0096862D02*
X0163050Y0096862D01*
X0163050Y0095863D02*
X0164450Y0095863D01*
X0163969Y0094865D02*
X0163050Y0094865D01*
X0158750Y0096500D02*
X0158250Y0096500D01*
X0150150Y0088400D01*
X0142950Y0088400D01*
X0143850Y0086600D02*
X0151950Y0086600D01*
X0153750Y0088400D01*
X0160050Y0088400D01*
X0168150Y0096500D01*
X0168750Y0096500D01*
X0173050Y0095863D02*
X0174450Y0095863D01*
X0173869Y0094865D02*
X0173050Y0094865D01*
X0174966Y0090870D02*
X0175298Y0090870D01*
X0176297Y0089872D02*
X0173968Y0089872D01*
X0168204Y0089200D02*
X0167404Y0088400D01*
X0162596Y0088400D01*
X0165182Y0090987D01*
X0166314Y0089855D01*
X0167895Y0089200D01*
X0168204Y0089200D01*
X0167878Y0088873D02*
X0163069Y0088873D01*
X0164068Y0089872D02*
X0166297Y0089872D01*
X0165298Y0090870D02*
X0165066Y0090870D01*
X0168150Y0086600D02*
X0154650Y0086600D01*
X0142050Y0074000D01*
X0141250Y0074000D01*
X0145550Y0073896D02*
X0146950Y0073896D01*
X0146950Y0074894D02*
X0145550Y0074894D01*
X0146488Y0075893D02*
X0146950Y0075893D01*
X0146950Y0072897D02*
X0145550Y0072897D01*
X0145550Y0071899D02*
X0146950Y0071899D01*
X0146950Y0070900D02*
X0145550Y0070900D01*
X0145449Y0069902D02*
X0147051Y0069902D01*
X0147464Y0068903D02*
X0145036Y0068903D01*
X0144236Y0067905D02*
X0148264Y0067905D01*
X0149897Y0066906D02*
X0142603Y0066906D01*
X0139897Y0066906D02*
X0132603Y0066906D01*
X0134236Y0067905D02*
X0138264Y0067905D01*
X0137464Y0068903D02*
X0135036Y0068903D01*
X0135449Y0069902D02*
X0137051Y0069902D01*
X0136950Y0070900D02*
X0135550Y0070900D01*
X0135550Y0071899D02*
X0136950Y0071899D01*
X0136950Y0072897D02*
X0135550Y0072897D01*
X0135550Y0073896D02*
X0136950Y0073896D01*
X0136950Y0074894D02*
X0135550Y0074894D01*
X0135688Y0075893D02*
X0136950Y0075893D01*
X0136950Y0076891D02*
X0136687Y0076891D01*
X0134518Y0079813D02*
X0133686Y0080645D01*
X0132105Y0081300D01*
X0131196Y0081300D01*
X0134696Y0084800D01*
X0139504Y0084800D01*
X0134518Y0079813D01*
X0134591Y0079887D02*
X0134444Y0079887D01*
X0135590Y0080885D02*
X0133106Y0080885D01*
X0131779Y0081884D02*
X0136588Y0081884D01*
X0137587Y0082882D02*
X0132778Y0082882D01*
X0133776Y0083881D02*
X0138585Y0083881D01*
X0142678Y0082882D02*
X0148387Y0082882D01*
X0147388Y0081884D02*
X0141679Y0081884D01*
X0142105Y0081300D02*
X0141096Y0081300D01*
X0144596Y0084800D01*
X0150304Y0084800D01*
X0144908Y0079404D01*
X0144895Y0079436D01*
X0143686Y0080645D01*
X0142105Y0081300D01*
X0143106Y0080885D02*
X0146390Y0080885D01*
X0145391Y0079887D02*
X0144444Y0079887D01*
X0143676Y0083881D02*
X0149385Y0083881D01*
X0153478Y0082882D02*
X0201442Y0082882D01*
X0201565Y0083881D02*
X0154476Y0083881D01*
X0152479Y0081884D02*
X0200443Y0081884D01*
X0199465Y0080885D02*
X0173106Y0080885D01*
X0173686Y0080645D02*
X0172105Y0081300D01*
X0170395Y0081300D01*
X0168814Y0080645D01*
X0167605Y0079436D01*
X0166950Y0077855D01*
X0166950Y0070145D01*
X0167605Y0068564D01*
X0168814Y0067355D01*
X0170395Y0066700D01*
X0172105Y0066700D01*
X0173686Y0067355D01*
X0174895Y0068564D01*
X0175550Y0070145D01*
X0175550Y0077855D01*
X0174895Y0079436D01*
X0173686Y0080645D01*
X0174444Y0079887D02*
X0199465Y0079887D01*
X0199465Y0078888D02*
X0175122Y0078888D01*
X0175536Y0077890D02*
X0199465Y0077890D01*
X0199668Y0076891D02*
X0175550Y0076891D01*
X0175550Y0075893D02*
X0200667Y0075893D01*
X0205407Y0074400D02*
X0205970Y0074400D01*
X0208002Y0076432D01*
X0210034Y0074400D01*
X0213114Y0074400D01*
X0209895Y0071180D01*
X0209605Y0071300D01*
X0207997Y0071300D01*
X0205913Y0073794D01*
X0205869Y0073900D01*
X0205597Y0074173D01*
X0205407Y0074400D01*
X0205871Y0073896D02*
X0212610Y0073896D01*
X0211612Y0072897D02*
X0206663Y0072897D01*
X0207497Y0071899D02*
X0210613Y0071899D01*
X0209539Y0074894D02*
X0206465Y0074894D01*
X0207463Y0075893D02*
X0208541Y0075893D01*
X0214429Y0074984D02*
X0215876Y0076432D01*
X0217323Y0074984D01*
X0214429Y0074984D01*
X0215337Y0075893D02*
X0216415Y0075893D01*
X0222303Y0074984D02*
X0223750Y0076432D01*
X0224448Y0075734D01*
X0223699Y0074984D01*
X0222303Y0074984D01*
X0223211Y0075893D02*
X0224289Y0075893D01*
X0230168Y0074894D02*
X0233161Y0074894D01*
X0232163Y0075893D02*
X0231085Y0075893D01*
X0237961Y0074894D02*
X0241035Y0074894D01*
X0240037Y0075893D02*
X0238959Y0075893D01*
X0240570Y0070900D02*
X0246930Y0070900D01*
X0245571Y0069902D02*
X0241929Y0069902D01*
X0242616Y0068903D02*
X0244884Y0068903D01*
X0244470Y0067905D02*
X0243030Y0067905D01*
X0243050Y0066906D02*
X0244450Y0066906D01*
X0244450Y0065908D02*
X0243050Y0065908D01*
X0243050Y0064909D02*
X0244450Y0064909D01*
X0244450Y0063911D02*
X0243050Y0063911D01*
X0243050Y0062912D02*
X0244450Y0062912D01*
X0244450Y0061914D02*
X0243050Y0061914D01*
X0243050Y0060915D02*
X0244450Y0060915D01*
X0244544Y0059917D02*
X0242956Y0059917D01*
X0242542Y0058918D02*
X0244958Y0058918D01*
X0245749Y0057920D02*
X0241751Y0057920D01*
X0235749Y0057920D02*
X0231751Y0057920D01*
X0232542Y0058918D02*
X0234958Y0058918D01*
X0234544Y0059917D02*
X0232956Y0059917D01*
X0233050Y0060915D02*
X0234450Y0060915D01*
X0234450Y0061914D02*
X0233050Y0061914D01*
X0233050Y0062912D02*
X0234450Y0062912D01*
X0234450Y0063911D02*
X0233050Y0063911D01*
X0233050Y0064909D02*
X0234450Y0064909D01*
X0234450Y0065908D02*
X0233050Y0065908D01*
X0233050Y0066906D02*
X0234450Y0066906D01*
X0234470Y0067905D02*
X0233030Y0067905D01*
X0232616Y0068903D02*
X0234884Y0068903D01*
X0235571Y0069902D02*
X0231929Y0069902D01*
X0230570Y0070900D02*
X0236930Y0070900D01*
X0250570Y0070900D02*
X0256930Y0070900D01*
X0255571Y0069902D02*
X0251929Y0069902D01*
X0252616Y0068903D02*
X0254884Y0068903D01*
X0254470Y0067905D02*
X0253030Y0067905D01*
X0253050Y0066906D02*
X0254450Y0066906D01*
X0254450Y0065908D02*
X0253050Y0065908D01*
X0253050Y0064909D02*
X0254450Y0064909D01*
X0254450Y0063911D02*
X0253050Y0063911D01*
X0253050Y0062912D02*
X0254450Y0062912D01*
X0254450Y0061914D02*
X0253050Y0061914D01*
X0253050Y0060915D02*
X0254450Y0060915D01*
X0254544Y0059917D02*
X0252956Y0059917D01*
X0252542Y0058918D02*
X0254958Y0058918D01*
X0255749Y0057920D02*
X0251751Y0057920D01*
X0261751Y0057920D02*
X0265749Y0057920D01*
X0264958Y0058918D02*
X0262542Y0058918D01*
X0262956Y0059917D02*
X0264544Y0059917D01*
X0264450Y0060915D02*
X0263050Y0060915D01*
X0263050Y0061914D02*
X0264450Y0061914D01*
X0264450Y0062912D02*
X0263050Y0062912D01*
X0263050Y0063911D02*
X0264450Y0063911D01*
X0264450Y0064909D02*
X0263050Y0064909D01*
X0263050Y0065908D02*
X0264450Y0065908D01*
X0264450Y0066906D02*
X0263050Y0066906D01*
X0263030Y0067905D02*
X0264470Y0067905D01*
X0264884Y0068903D02*
X0262616Y0068903D01*
X0261929Y0069902D02*
X0265571Y0069902D01*
X0266930Y0070900D02*
X0260570Y0070900D01*
X0270570Y0070900D02*
X0273010Y0070900D01*
X0273010Y0069902D02*
X0271929Y0069902D01*
X0272616Y0068903D02*
X0273010Y0068903D01*
X0266250Y0055923D02*
X0105093Y0055923D01*
X0106092Y0056921D02*
X0197361Y0056921D01*
X0195749Y0057920D02*
X0107090Y0057920D01*
X0108089Y0058918D02*
X0194958Y0058918D01*
X0194544Y0059917D02*
X0109087Y0059917D01*
X0110086Y0060915D02*
X0194450Y0060915D01*
X0194450Y0061914D02*
X0187699Y0061914D01*
X0188625Y0062912D02*
X0194450Y0062912D01*
X0194450Y0063911D02*
X0189508Y0063911D01*
X0190390Y0064909D02*
X0194450Y0064909D01*
X0194450Y0065908D02*
X0191273Y0065908D01*
X0192156Y0066906D02*
X0194450Y0066906D01*
X0194470Y0067905D02*
X0193038Y0067905D01*
X0193921Y0068903D02*
X0194884Y0068903D01*
X0194804Y0069902D02*
X0195571Y0069902D01*
X0190778Y0072897D02*
X0175550Y0072897D01*
X0175550Y0071899D02*
X0189896Y0071899D01*
X0189013Y0070900D02*
X0175550Y0070900D01*
X0175449Y0069902D02*
X0188130Y0069902D01*
X0187248Y0068903D02*
X0175036Y0068903D01*
X0174236Y0067905D02*
X0186365Y0067905D01*
X0185482Y0066906D02*
X0172603Y0066906D01*
X0169897Y0066906D02*
X0167317Y0066906D01*
X0166651Y0067905D02*
X0168264Y0067905D01*
X0167464Y0068903D02*
X0165986Y0068903D01*
X0165449Y0069902D02*
X0167051Y0069902D01*
X0166950Y0070900D02*
X0165550Y0070900D01*
X0165550Y0071899D02*
X0166950Y0071899D01*
X0166950Y0072897D02*
X0165550Y0072897D01*
X0165550Y0073896D02*
X0166950Y0073896D01*
X0166950Y0074894D02*
X0165550Y0074894D01*
X0165550Y0075893D02*
X0166950Y0075893D01*
X0166950Y0076891D02*
X0165550Y0076891D01*
X0165536Y0077890D02*
X0166964Y0077890D01*
X0167378Y0078888D02*
X0165122Y0078888D01*
X0164444Y0079887D02*
X0168056Y0079887D01*
X0169394Y0080885D02*
X0163106Y0080885D01*
X0159394Y0080885D02*
X0153106Y0080885D01*
X0154444Y0079887D02*
X0158056Y0079887D01*
X0157378Y0078888D02*
X0155122Y0078888D01*
X0155536Y0077890D02*
X0156964Y0077890D01*
X0156950Y0076891D02*
X0155550Y0076891D01*
X0155550Y0075893D02*
X0156950Y0075893D01*
X0156950Y0074894D02*
X0155550Y0074894D01*
X0155550Y0073896D02*
X0156950Y0073896D01*
X0156950Y0072897D02*
X0155550Y0072897D01*
X0155550Y0071899D02*
X0156950Y0071899D01*
X0156950Y0070900D02*
X0155550Y0070900D01*
X0155449Y0069902D02*
X0157051Y0069902D01*
X0157464Y0068903D02*
X0155036Y0068903D01*
X0154236Y0067905D02*
X0158264Y0067905D01*
X0159897Y0066906D02*
X0152603Y0066906D01*
X0161974Y0065908D02*
X0115078Y0065908D01*
X0116077Y0066906D02*
X0119897Y0066906D01*
X0118264Y0067905D02*
X0117075Y0067905D01*
X0114080Y0064909D02*
X0162639Y0064909D01*
X0163305Y0063911D02*
X0113081Y0063911D01*
X0112083Y0062912D02*
X0163971Y0062912D01*
X0164801Y0061914D02*
X0111084Y0061914D01*
X0107990Y0063911D02*
X0103081Y0063911D01*
X0104080Y0064909D02*
X0108989Y0064909D01*
X0109987Y0065908D02*
X0105078Y0065908D01*
X0106077Y0066906D02*
X0109897Y0066906D01*
X0108264Y0067905D02*
X0107075Y0067905D01*
X0106992Y0062912D02*
X0102083Y0062912D01*
X0101084Y0061914D02*
X0105993Y0061914D01*
X0104995Y0060915D02*
X0100086Y0060915D01*
X0099087Y0059917D02*
X0103996Y0059917D01*
X0102998Y0058918D02*
X0098089Y0058918D01*
X0097090Y0057920D02*
X0101999Y0057920D01*
X0101001Y0056921D02*
X0096092Y0056921D01*
X0095093Y0055923D02*
X0100002Y0055923D01*
X0099450Y0054924D02*
X0094095Y0054924D01*
X0093096Y0053926D02*
X0099450Y0053926D01*
X0099450Y0052927D02*
X0093050Y0052927D01*
X0093050Y0051929D02*
X0099450Y0051929D01*
X0099450Y0050930D02*
X0093050Y0050930D01*
X0093050Y0049932D02*
X0099450Y0049932D01*
X0099450Y0048933D02*
X0093050Y0048933D01*
X0093050Y0047934D02*
X0099450Y0047934D01*
X0099450Y0046936D02*
X0093050Y0046936D01*
X0093050Y0045937D02*
X0099450Y0045937D01*
X0099450Y0044939D02*
X0093050Y0044939D01*
X0093050Y0043940D02*
X0099450Y0043940D01*
X0099450Y0042942D02*
X0093050Y0042942D01*
X0093598Y0041943D02*
X0098902Y0041943D01*
X0103050Y0042942D02*
X0266250Y0042942D01*
X0266250Y0043940D02*
X0103050Y0043940D01*
X0103050Y0044939D02*
X0266250Y0044939D01*
X0266250Y0045937D02*
X0103050Y0045937D01*
X0103050Y0046936D02*
X0266250Y0046936D01*
X0266250Y0047934D02*
X0103050Y0047934D01*
X0103050Y0048933D02*
X0266250Y0048933D01*
X0266250Y0049932D02*
X0103050Y0049932D01*
X0103050Y0050930D02*
X0266250Y0050930D01*
X0266250Y0051929D02*
X0103050Y0051929D01*
X0103050Y0052927D02*
X0266250Y0052927D01*
X0266250Y0053926D02*
X0103096Y0053926D01*
X0104095Y0054924D02*
X0266250Y0054924D01*
X0266250Y0041943D02*
X0103598Y0041943D01*
X0104275Y0040945D02*
X0266250Y0040945D01*
X0266250Y0039946D02*
X0104550Y0039946D01*
X0104541Y0038948D02*
X0266250Y0038948D01*
X0266250Y0037949D02*
X0104128Y0037949D01*
X0103243Y0036951D02*
X0266250Y0036951D01*
X0266250Y0035952D02*
X0073849Y0035952D01*
X0073849Y0034954D02*
X0266250Y0034954D01*
X0217361Y0056921D02*
X0210139Y0056921D01*
X0211751Y0057920D02*
X0215749Y0057920D01*
X0214958Y0058918D02*
X0212542Y0058918D01*
X0212956Y0059917D02*
X0214544Y0059917D01*
X0214450Y0060915D02*
X0213050Y0060915D01*
X0213050Y0061914D02*
X0214450Y0061914D01*
X0214450Y0062912D02*
X0213050Y0062912D01*
X0213050Y0063911D02*
X0214450Y0063911D01*
X0214450Y0064909D02*
X0213050Y0064909D01*
X0213050Y0065908D02*
X0214450Y0065908D01*
X0214450Y0066906D02*
X0213050Y0066906D01*
X0213690Y0067905D02*
X0214470Y0067905D01*
X0214689Y0068903D02*
X0214884Y0068903D01*
X0204319Y0067905D02*
X0203030Y0067905D01*
X0203050Y0066906D02*
X0204450Y0066906D01*
X0204450Y0065908D02*
X0203050Y0065908D01*
X0203050Y0064909D02*
X0204450Y0064909D01*
X0204450Y0063911D02*
X0203050Y0063911D01*
X0203050Y0062912D02*
X0204450Y0062912D01*
X0204450Y0061914D02*
X0203050Y0061914D01*
X0203050Y0060915D02*
X0204450Y0060915D01*
X0204544Y0059917D02*
X0202956Y0059917D01*
X0202542Y0058918D02*
X0204958Y0058918D01*
X0205749Y0057920D02*
X0201751Y0057920D01*
X0200139Y0056921D02*
X0207361Y0056921D01*
X0203484Y0068903D02*
X0202616Y0068903D01*
X0202650Y0069902D02*
X0201929Y0069902D01*
X0192988Y0074894D02*
X0175550Y0074894D01*
X0175550Y0073896D02*
X0191629Y0073896D01*
X0207686Y0081884D02*
X0208317Y0081884D01*
X0209066Y0092868D02*
X0206938Y0092868D01*
X0207936Y0093866D02*
X0208068Y0093866D01*
X0214812Y0092868D02*
X0216940Y0092868D01*
X0215942Y0093866D02*
X0215810Y0093866D01*
X0222686Y0092868D02*
X0224814Y0092868D01*
X0223816Y0093866D02*
X0223684Y0093866D01*
X0230560Y0092868D02*
X0232688Y0092868D01*
X0231690Y0093866D02*
X0231558Y0093866D01*
X0238434Y0092868D02*
X0240562Y0092868D01*
X0239564Y0093866D02*
X0239432Y0093866D01*
X0238702Y0110841D02*
X0232735Y0110841D01*
X0232500Y0110606D02*
X0235018Y0113124D01*
X0235018Y0116687D01*
X0232500Y0119205D01*
X0228937Y0119205D01*
X0226419Y0116687D01*
X0226419Y0113124D01*
X0228937Y0110606D01*
X0232500Y0110606D01*
X0233733Y0111839D02*
X0237704Y0111839D01*
X0236705Y0112838D02*
X0234732Y0112838D01*
X0235018Y0113836D02*
X0236419Y0113836D01*
X0236419Y0114835D02*
X0235018Y0114835D01*
X0235018Y0115833D02*
X0236419Y0115833D01*
X0236564Y0116832D02*
X0234873Y0116832D01*
X0233875Y0117830D02*
X0237562Y0117830D01*
X0238561Y0118829D02*
X0232876Y0118829D01*
X0232500Y0120606D02*
X0235018Y0123124D01*
X0235018Y0126687D01*
X0232500Y0129205D01*
X0228937Y0129205D01*
X0226419Y0126687D01*
X0226419Y0123124D01*
X0228937Y0120606D01*
X0232500Y0120606D01*
X0232720Y0120826D02*
X0238717Y0120826D01*
X0237719Y0121824D02*
X0233718Y0121824D01*
X0234717Y0122823D02*
X0236720Y0122823D01*
X0236419Y0123821D02*
X0235018Y0123821D01*
X0235018Y0124820D02*
X0236419Y0124820D01*
X0236419Y0125818D02*
X0235018Y0125818D01*
X0234888Y0126817D02*
X0236549Y0126817D01*
X0237547Y0127815D02*
X0233890Y0127815D01*
X0232891Y0128814D02*
X0238546Y0128814D01*
X0242891Y0128814D02*
X0254281Y0128814D01*
X0253283Y0127815D02*
X0243890Y0127815D01*
X0244888Y0126817D02*
X0252396Y0126817D01*
X0251820Y0125818D02*
X0245018Y0125818D01*
X0245018Y0124820D02*
X0251243Y0124820D01*
X0250942Y0123821D02*
X0245018Y0123821D01*
X0244717Y0122823D02*
X0250674Y0122823D01*
X0250470Y0121824D02*
X0243718Y0121824D01*
X0228717Y0120826D02*
X0222720Y0120826D01*
X0222500Y0120606D02*
X0225018Y0123124D01*
X0225018Y0126687D01*
X0222500Y0129205D01*
X0218937Y0129205D01*
X0216419Y0126687D01*
X0216419Y0123124D01*
X0218937Y0120606D01*
X0222500Y0120606D01*
X0222500Y0119205D02*
X0218937Y0119205D01*
X0216419Y0116687D01*
X0216419Y0113124D01*
X0218937Y0110606D01*
X0222500Y0110606D01*
X0225018Y0113124D01*
X0225018Y0116687D01*
X0222500Y0119205D01*
X0222876Y0118829D02*
X0228561Y0118829D01*
X0227562Y0117830D02*
X0223875Y0117830D01*
X0224873Y0116832D02*
X0226564Y0116832D01*
X0226419Y0115833D02*
X0225018Y0115833D01*
X0225018Y0114835D02*
X0226419Y0114835D01*
X0226419Y0113836D02*
X0225018Y0113836D01*
X0224732Y0112838D02*
X0226705Y0112838D01*
X0227704Y0111839D02*
X0223733Y0111839D01*
X0222735Y0110841D02*
X0228702Y0110841D01*
X0218702Y0110841D02*
X0212735Y0110841D01*
X0212500Y0110606D02*
X0215018Y0113124D01*
X0215018Y0116687D01*
X0212500Y0119205D01*
X0208937Y0119205D01*
X0206419Y0116687D01*
X0206419Y0113124D01*
X0208937Y0110606D01*
X0212500Y0110606D01*
X0213733Y0111839D02*
X0217704Y0111839D01*
X0216705Y0112838D02*
X0214732Y0112838D01*
X0215018Y0113836D02*
X0216419Y0113836D01*
X0216419Y0114835D02*
X0215018Y0114835D01*
X0215018Y0115833D02*
X0216419Y0115833D01*
X0216564Y0116832D02*
X0214873Y0116832D01*
X0213875Y0117830D02*
X0217562Y0117830D01*
X0218561Y0118829D02*
X0212876Y0118829D01*
X0212500Y0120606D02*
X0208937Y0120606D01*
X0206419Y0123124D01*
X0206419Y0126687D01*
X0208937Y0129205D01*
X0212500Y0129205D01*
X0215018Y0126687D01*
X0215018Y0123124D01*
X0212500Y0120606D01*
X0212720Y0120826D02*
X0218717Y0120826D01*
X0217719Y0121824D02*
X0213718Y0121824D01*
X0214717Y0122823D02*
X0216720Y0122823D01*
X0216419Y0123821D02*
X0215018Y0123821D01*
X0215018Y0124820D02*
X0216419Y0124820D01*
X0216419Y0125818D02*
X0215018Y0125818D01*
X0214888Y0126817D02*
X0216549Y0126817D01*
X0217547Y0127815D02*
X0213890Y0127815D01*
X0212891Y0128814D02*
X0218546Y0128814D01*
X0222891Y0128814D02*
X0228546Y0128814D01*
X0227547Y0127815D02*
X0223890Y0127815D01*
X0224888Y0126817D02*
X0226549Y0126817D01*
X0226419Y0125818D02*
X0225018Y0125818D01*
X0225018Y0124820D02*
X0226419Y0124820D01*
X0226419Y0123821D02*
X0225018Y0123821D01*
X0224717Y0122823D02*
X0226720Y0122823D01*
X0227719Y0121824D02*
X0223718Y0121824D01*
X0208717Y0120826D02*
X0202720Y0120826D01*
X0202500Y0120606D02*
X0205018Y0123124D01*
X0205018Y0126687D01*
X0202500Y0129205D01*
X0198937Y0129205D01*
X0196419Y0126687D01*
X0196419Y0123124D01*
X0198937Y0120606D01*
X0202500Y0120606D01*
X0202500Y0119205D02*
X0198937Y0119205D01*
X0196419Y0116687D01*
X0196419Y0113124D01*
X0198937Y0110606D01*
X0202500Y0110606D01*
X0205018Y0113124D01*
X0205018Y0116687D01*
X0202500Y0119205D01*
X0202876Y0118829D02*
X0208561Y0118829D01*
X0207562Y0117830D02*
X0203875Y0117830D01*
X0204873Y0116832D02*
X0206564Y0116832D01*
X0206419Y0115833D02*
X0205018Y0115833D01*
X0205018Y0114835D02*
X0206419Y0114835D01*
X0206419Y0113836D02*
X0205018Y0113836D01*
X0204732Y0112838D02*
X0206705Y0112838D01*
X0207704Y0111839D02*
X0203733Y0111839D01*
X0202735Y0110841D02*
X0208702Y0110841D01*
X0198702Y0110841D02*
X0192735Y0110841D01*
X0192500Y0110606D02*
X0195018Y0113124D01*
X0195018Y0116687D01*
X0192500Y0119205D01*
X0188937Y0119205D01*
X0186419Y0116687D01*
X0186419Y0113124D01*
X0188937Y0110606D01*
X0192500Y0110606D01*
X0193733Y0111839D02*
X0197704Y0111839D01*
X0196705Y0112838D02*
X0194732Y0112838D01*
X0195018Y0113836D02*
X0196419Y0113836D01*
X0196419Y0114835D02*
X0195018Y0114835D01*
X0195018Y0115833D02*
X0196419Y0115833D01*
X0196564Y0116832D02*
X0194873Y0116832D01*
X0193875Y0117830D02*
X0197562Y0117830D01*
X0198561Y0118829D02*
X0192876Y0118829D01*
X0192500Y0120606D02*
X0188937Y0120606D01*
X0186419Y0123124D01*
X0186419Y0126687D01*
X0188937Y0129205D01*
X0192500Y0129205D01*
X0195018Y0126687D01*
X0195018Y0123124D01*
X0192500Y0120606D01*
X0192720Y0120826D02*
X0198717Y0120826D01*
X0197719Y0121824D02*
X0193718Y0121824D01*
X0194717Y0122823D02*
X0196720Y0122823D01*
X0196419Y0123821D02*
X0195018Y0123821D01*
X0195018Y0124820D02*
X0196419Y0124820D01*
X0196419Y0125818D02*
X0195018Y0125818D01*
X0194888Y0126817D02*
X0196549Y0126817D01*
X0197547Y0127815D02*
X0193890Y0127815D01*
X0192891Y0128814D02*
X0198546Y0128814D01*
X0202891Y0128814D02*
X0208546Y0128814D01*
X0207547Y0127815D02*
X0203890Y0127815D01*
X0204888Y0126817D02*
X0206549Y0126817D01*
X0206419Y0125818D02*
X0205018Y0125818D01*
X0205018Y0124820D02*
X0206419Y0124820D01*
X0206419Y0123821D02*
X0205018Y0123821D01*
X0204717Y0122823D02*
X0206720Y0122823D01*
X0207719Y0121824D02*
X0203718Y0121824D01*
X0188717Y0120826D02*
X0182720Y0120826D01*
X0182500Y0120606D02*
X0185018Y0123124D01*
X0185018Y0126687D01*
X0182500Y0129205D01*
X0178937Y0129205D01*
X0176419Y0126687D01*
X0176419Y0123124D01*
X0178937Y0120606D01*
X0182500Y0120606D01*
X0182500Y0119205D02*
X0178937Y0119205D01*
X0176419Y0116687D01*
X0176419Y0113124D01*
X0178937Y0110606D01*
X0182500Y0110606D01*
X0185018Y0113124D01*
X0185018Y0116687D01*
X0182500Y0119205D01*
X0182876Y0118829D02*
X0188561Y0118829D01*
X0187562Y0117830D02*
X0183875Y0117830D01*
X0184873Y0116832D02*
X0186564Y0116832D01*
X0186419Y0115833D02*
X0185018Y0115833D01*
X0185018Y0114835D02*
X0186419Y0114835D01*
X0186419Y0113836D02*
X0185018Y0113836D01*
X0184732Y0112838D02*
X0186705Y0112838D01*
X0187704Y0111839D02*
X0183733Y0111839D01*
X0182735Y0110841D02*
X0188702Y0110841D01*
X0178702Y0110841D02*
X0172735Y0110841D01*
X0172500Y0110606D02*
X0175018Y0113124D01*
X0175018Y0116687D01*
X0172500Y0119205D01*
X0168937Y0119205D01*
X0166419Y0116687D01*
X0166419Y0113124D01*
X0168937Y0110606D01*
X0172500Y0110606D01*
X0173733Y0111839D02*
X0177704Y0111839D01*
X0176705Y0112838D02*
X0174732Y0112838D01*
X0175018Y0113836D02*
X0176419Y0113836D01*
X0176419Y0114835D02*
X0175018Y0114835D01*
X0175018Y0115833D02*
X0176419Y0115833D01*
X0176564Y0116832D02*
X0174873Y0116832D01*
X0173875Y0117830D02*
X0177562Y0117830D01*
X0178561Y0118829D02*
X0172876Y0118829D01*
X0172500Y0120606D02*
X0168937Y0120606D01*
X0166419Y0123124D01*
X0166419Y0126687D01*
X0168937Y0129205D01*
X0172500Y0129205D01*
X0175018Y0126687D01*
X0175018Y0123124D01*
X0172500Y0120606D01*
X0172720Y0120826D02*
X0178717Y0120826D01*
X0177719Y0121824D02*
X0173718Y0121824D01*
X0174717Y0122823D02*
X0176720Y0122823D01*
X0176419Y0123821D02*
X0175018Y0123821D01*
X0175018Y0124820D02*
X0176419Y0124820D01*
X0176419Y0125818D02*
X0175018Y0125818D01*
X0174888Y0126817D02*
X0176549Y0126817D01*
X0177547Y0127815D02*
X0173890Y0127815D01*
X0172891Y0128814D02*
X0178546Y0128814D01*
X0182891Y0128814D02*
X0188546Y0128814D01*
X0187547Y0127815D02*
X0183890Y0127815D01*
X0184888Y0126817D02*
X0186549Y0126817D01*
X0186419Y0125818D02*
X0185018Y0125818D01*
X0185018Y0124820D02*
X0186419Y0124820D01*
X0186419Y0123821D02*
X0185018Y0123821D01*
X0184717Y0122823D02*
X0186720Y0122823D01*
X0187719Y0121824D02*
X0183718Y0121824D01*
X0168717Y0120826D02*
X0162720Y0120826D01*
X0162500Y0120606D02*
X0165018Y0123124D01*
X0165018Y0126687D01*
X0162500Y0129205D01*
X0158937Y0129205D01*
X0156419Y0126687D01*
X0156419Y0123124D01*
X0158937Y0120606D01*
X0162500Y0120606D01*
X0162500Y0119205D02*
X0158937Y0119205D01*
X0156419Y0116687D01*
X0156419Y0113124D01*
X0158937Y0110606D01*
X0162500Y0110606D01*
X0165018Y0113124D01*
X0165018Y0116687D01*
X0162500Y0119205D01*
X0162876Y0118829D02*
X0168561Y0118829D01*
X0167562Y0117830D02*
X0163875Y0117830D01*
X0164873Y0116832D02*
X0166564Y0116832D01*
X0166419Y0115833D02*
X0165018Y0115833D01*
X0165018Y0114835D02*
X0166419Y0114835D01*
X0166419Y0113836D02*
X0165018Y0113836D01*
X0164732Y0112838D02*
X0166705Y0112838D01*
X0167704Y0111839D02*
X0163733Y0111839D01*
X0162735Y0110841D02*
X0168702Y0110841D01*
X0158702Y0110841D02*
X0152735Y0110841D01*
X0152500Y0110606D02*
X0155018Y0113124D01*
X0155018Y0116687D01*
X0152500Y0119205D01*
X0148937Y0119205D01*
X0146419Y0116687D01*
X0146419Y0113124D01*
X0148937Y0110606D01*
X0152500Y0110606D01*
X0153733Y0111839D02*
X0157704Y0111839D01*
X0156705Y0112838D02*
X0154732Y0112838D01*
X0155018Y0113836D02*
X0156419Y0113836D01*
X0156419Y0114835D02*
X0155018Y0114835D01*
X0155018Y0115833D02*
X0156419Y0115833D01*
X0156564Y0116832D02*
X0154873Y0116832D01*
X0153875Y0117830D02*
X0157562Y0117830D01*
X0158561Y0118829D02*
X0152876Y0118829D01*
X0152500Y0120606D02*
X0148937Y0120606D01*
X0146419Y0123124D01*
X0146419Y0126687D01*
X0148937Y0129205D01*
X0152500Y0129205D01*
X0155018Y0126687D01*
X0155018Y0123124D01*
X0152500Y0120606D01*
X0152720Y0120826D02*
X0158717Y0120826D01*
X0157719Y0121824D02*
X0153718Y0121824D01*
X0154717Y0122823D02*
X0156720Y0122823D01*
X0156419Y0123821D02*
X0155018Y0123821D01*
X0155018Y0124820D02*
X0156419Y0124820D01*
X0156419Y0125818D02*
X0155018Y0125818D01*
X0154888Y0126817D02*
X0156549Y0126817D01*
X0157547Y0127815D02*
X0153890Y0127815D01*
X0152891Y0128814D02*
X0158546Y0128814D01*
X0162891Y0128814D02*
X0168546Y0128814D01*
X0167547Y0127815D02*
X0163890Y0127815D01*
X0164888Y0126817D02*
X0166549Y0126817D01*
X0166419Y0125818D02*
X0165018Y0125818D01*
X0165018Y0124820D02*
X0166419Y0124820D01*
X0166419Y0123821D02*
X0165018Y0123821D01*
X0164717Y0122823D02*
X0166720Y0122823D01*
X0167719Y0121824D02*
X0163718Y0121824D01*
X0148717Y0120826D02*
X0142720Y0120826D01*
X0142500Y0120606D02*
X0145018Y0123124D01*
X0145018Y0126687D01*
X0142500Y0129205D01*
X0138937Y0129205D01*
X0136419Y0126687D01*
X0136419Y0123124D01*
X0138937Y0120606D01*
X0142500Y0120606D01*
X0142500Y0119205D02*
X0138937Y0119205D01*
X0136419Y0116687D01*
X0136419Y0113124D01*
X0138937Y0110606D01*
X0142500Y0110606D01*
X0145018Y0113124D01*
X0145018Y0116687D01*
X0142500Y0119205D01*
X0142876Y0118829D02*
X0148561Y0118829D01*
X0147562Y0117830D02*
X0143875Y0117830D01*
X0144873Y0116832D02*
X0146564Y0116832D01*
X0146419Y0115833D02*
X0145018Y0115833D01*
X0145018Y0114835D02*
X0146419Y0114835D01*
X0146419Y0113836D02*
X0145018Y0113836D01*
X0144732Y0112838D02*
X0146705Y0112838D01*
X0147704Y0111839D02*
X0143733Y0111839D01*
X0142735Y0110841D02*
X0148702Y0110841D01*
X0138702Y0110841D02*
X0132735Y0110841D01*
X0132500Y0110606D02*
X0135018Y0113124D01*
X0135018Y0116687D01*
X0132500Y0119205D01*
X0128937Y0119205D01*
X0126419Y0116687D01*
X0126419Y0113124D01*
X0128937Y0110606D01*
X0132500Y0110606D01*
X0133733Y0111839D02*
X0137704Y0111839D01*
X0136705Y0112838D02*
X0134732Y0112838D01*
X0135018Y0113836D02*
X0136419Y0113836D01*
X0136419Y0114835D02*
X0135018Y0114835D01*
X0135018Y0115833D02*
X0136419Y0115833D01*
X0136564Y0116832D02*
X0134873Y0116832D01*
X0133875Y0117830D02*
X0137562Y0117830D01*
X0138561Y0118829D02*
X0132876Y0118829D01*
X0132500Y0120606D02*
X0128937Y0120606D01*
X0126419Y0123124D01*
X0126419Y0126687D01*
X0128937Y0129205D01*
X0132500Y0129205D01*
X0135018Y0126687D01*
X0135018Y0123124D01*
X0132500Y0120606D01*
X0132720Y0120826D02*
X0138717Y0120826D01*
X0137719Y0121824D02*
X0133718Y0121824D01*
X0134717Y0122823D02*
X0136720Y0122823D01*
X0136419Y0123821D02*
X0135018Y0123821D01*
X0135018Y0124820D02*
X0136419Y0124820D01*
X0136419Y0125818D02*
X0135018Y0125818D01*
X0134888Y0126817D02*
X0136549Y0126817D01*
X0137547Y0127815D02*
X0133890Y0127815D01*
X0132891Y0128814D02*
X0138546Y0128814D01*
X0142891Y0128814D02*
X0148546Y0128814D01*
X0147547Y0127815D02*
X0143890Y0127815D01*
X0144888Y0126817D02*
X0146549Y0126817D01*
X0146419Y0125818D02*
X0145018Y0125818D01*
X0145018Y0124820D02*
X0146419Y0124820D01*
X0146419Y0123821D02*
X0145018Y0123821D01*
X0144717Y0122823D02*
X0146720Y0122823D01*
X0147719Y0121824D02*
X0143718Y0121824D01*
X0128717Y0120826D02*
X0122720Y0120826D01*
X0122500Y0120606D02*
X0125018Y0123124D01*
X0125018Y0126687D01*
X0122500Y0129205D01*
X0118937Y0129205D01*
X0116419Y0126687D01*
X0116419Y0123124D01*
X0118937Y0120606D01*
X0122500Y0120606D01*
X0122500Y0119205D02*
X0118937Y0119205D01*
X0116419Y0116687D01*
X0116419Y0113124D01*
X0118937Y0110606D01*
X0122500Y0110606D01*
X0125018Y0113124D01*
X0125018Y0116687D01*
X0122500Y0119205D01*
X0122876Y0118829D02*
X0128561Y0118829D01*
X0127562Y0117830D02*
X0123875Y0117830D01*
X0124873Y0116832D02*
X0126564Y0116832D01*
X0126419Y0115833D02*
X0125018Y0115833D01*
X0125018Y0114835D02*
X0126419Y0114835D01*
X0126419Y0113836D02*
X0125018Y0113836D01*
X0124732Y0112838D02*
X0126705Y0112838D01*
X0127704Y0111839D02*
X0123733Y0111839D01*
X0122735Y0110841D02*
X0128702Y0110841D01*
X0118702Y0110841D02*
X0112735Y0110841D01*
X0113733Y0111839D02*
X0117704Y0111839D01*
X0116705Y0112838D02*
X0114732Y0112838D01*
X0115018Y0113836D02*
X0116419Y0113836D01*
X0116419Y0114835D02*
X0115018Y0114835D01*
X0115018Y0115833D02*
X0116419Y0115833D01*
X0116564Y0116832D02*
X0114873Y0116832D01*
X0113875Y0117830D02*
X0117562Y0117830D01*
X0118561Y0118829D02*
X0112876Y0118829D01*
X0112720Y0120826D02*
X0118717Y0120826D01*
X0117719Y0121824D02*
X0113718Y0121824D01*
X0114717Y0122823D02*
X0116720Y0122823D01*
X0116419Y0123821D02*
X0115018Y0123821D01*
X0115018Y0124820D02*
X0116419Y0124820D01*
X0116419Y0125818D02*
X0115018Y0125818D01*
X0114888Y0126817D02*
X0116549Y0126817D01*
X0117547Y0127815D02*
X0113890Y0127815D01*
X0112891Y0128814D02*
X0118546Y0128814D01*
X0122891Y0128814D02*
X0128546Y0128814D01*
X0127547Y0127815D02*
X0123890Y0127815D01*
X0124888Y0126817D02*
X0126549Y0126817D01*
X0126419Y0125818D02*
X0125018Y0125818D01*
X0125018Y0124820D02*
X0126419Y0124820D01*
X0126419Y0123821D02*
X0125018Y0123821D01*
X0124717Y0122823D02*
X0126720Y0122823D01*
X0127719Y0121824D02*
X0123718Y0121824D01*
X0090719Y0114906D02*
X0090625Y0114625D01*
X0089378Y0109842D02*
X0273010Y0109842D01*
X0273010Y0108844D02*
X0088379Y0108844D01*
X0087381Y0107845D02*
X0273010Y0107845D01*
X0273010Y0106847D02*
X0086382Y0106847D01*
X0085384Y0105848D02*
X0273010Y0105848D01*
X0273010Y0104850D02*
X0084385Y0104850D01*
X0083387Y0103851D02*
X0273010Y0103851D01*
X0273010Y0102853D02*
X0191478Y0102853D01*
X0192429Y0101854D02*
X0273010Y0101854D01*
X0186022Y0102853D02*
X0181478Y0102853D01*
X0182429Y0101854D02*
X0185071Y0101854D01*
X0184657Y0100856D02*
X0182843Y0100856D01*
X0183050Y0099857D02*
X0184450Y0099857D01*
X0184450Y0098859D02*
X0183050Y0098859D01*
X0183050Y0097860D02*
X0184450Y0097860D01*
X0184450Y0096862D02*
X0183050Y0096862D01*
X0183050Y0095863D02*
X0184450Y0095863D01*
X0184450Y0094865D02*
X0183050Y0094865D01*
X0183050Y0093866D02*
X0184450Y0093866D01*
X0184450Y0092868D02*
X0183050Y0092868D01*
X0182729Y0091869D02*
X0184771Y0091869D01*
X0185298Y0090870D02*
X0182202Y0090870D01*
X0181203Y0089872D02*
X0186297Y0089872D01*
X0155969Y0090200D02*
X0154496Y0090200D01*
X0155232Y0090937D01*
X0155969Y0090200D01*
X0155298Y0090870D02*
X0155166Y0090870D01*
X0153070Y0093866D02*
X0153050Y0093866D01*
X0153050Y0094865D02*
X0154069Y0094865D01*
X0154450Y0095863D02*
X0153050Y0095863D01*
X0153050Y0096862D02*
X0154450Y0096862D01*
X0154450Y0097860D02*
X0153050Y0097860D01*
X0153050Y0098859D02*
X0154450Y0098859D01*
X0154450Y0099857D02*
X0153050Y0099857D01*
X0152843Y0100856D02*
X0154657Y0100856D01*
X0155071Y0101854D02*
X0152429Y0101854D01*
X0151478Y0102853D02*
X0156022Y0102853D01*
X0129450Y0095863D02*
X0128050Y0095863D01*
X0128050Y0094865D02*
X0129450Y0094865D01*
X0129450Y0093866D02*
X0128050Y0093866D01*
X0128050Y0092868D02*
X0129450Y0092868D01*
X0129771Y0091869D02*
X0127729Y0091869D01*
X0127202Y0090870D02*
X0130298Y0090870D01*
X0131297Y0089872D02*
X0126203Y0089872D01*
X0118570Y0093866D02*
X0118050Y0093866D01*
X0118050Y0094865D02*
X0119450Y0094865D01*
X0119450Y0095863D02*
X0118050Y0095863D01*
X0118050Y0096862D02*
X0119450Y0096862D01*
X0119450Y0097860D02*
X0118050Y0097860D01*
X0118050Y0098859D02*
X0119450Y0098859D01*
X0119450Y0099857D02*
X0118050Y0099857D01*
X0117843Y0100856D02*
X0119657Y0100856D01*
X0120071Y0101854D02*
X0117429Y0101854D01*
X0116478Y0102853D02*
X0121022Y0102853D01*
X0109450Y0095863D02*
X0108050Y0095863D01*
X0108050Y0094865D02*
X0109450Y0094865D01*
X0108570Y0093866D02*
X0108050Y0093866D01*
X0105075Y0087875D02*
X0072421Y0087875D01*
X0073419Y0086876D02*
X0105075Y0086876D01*
X0105075Y0085878D02*
X0074418Y0085878D01*
X0075416Y0084879D02*
X0105075Y0084879D01*
X0105075Y0083881D02*
X0076415Y0083881D01*
X0072322Y0082882D02*
X0067425Y0082882D01*
X0067425Y0083881D02*
X0071323Y0083881D01*
X0070325Y0084879D02*
X0067425Y0084879D01*
X0067425Y0085878D02*
X0069326Y0085878D01*
X0068328Y0086876D02*
X0067425Y0086876D01*
X0065625Y0089625D02*
X0065625Y0069000D01*
X0063125Y0066500D01*
X0063125Y0041500D01*
X0062510Y0036500D01*
X0058651Y0036951D02*
X0040555Y0036951D01*
X0040442Y0036677D02*
X0041050Y0038145D01*
X0041050Y0039855D01*
X0040395Y0041436D01*
X0039186Y0042645D01*
X0037605Y0043300D01*
X0029895Y0043300D01*
X0028314Y0042645D01*
X0028050Y0042381D01*
X0028050Y0045619D01*
X0028314Y0045355D01*
X0029895Y0044700D01*
X0037605Y0044700D01*
X0039186Y0045355D01*
X0040395Y0046564D01*
X0041050Y0048145D01*
X0041050Y0049855D01*
X0040395Y0051436D01*
X0039186Y0052645D01*
X0037605Y0053300D01*
X0029895Y0053300D01*
X0028314Y0052645D01*
X0028050Y0052381D01*
X0028050Y0055619D01*
X0028314Y0055355D01*
X0029895Y0054700D01*
X0037605Y0054700D01*
X0039186Y0055355D01*
X0040395Y0056564D01*
X0041050Y0058145D01*
X0041050Y0059855D01*
X0040395Y0061436D01*
X0039186Y0062645D01*
X0037605Y0063300D01*
X0029895Y0063300D01*
X0028314Y0062645D01*
X0028050Y0062381D01*
X0028050Y0068119D01*
X0028814Y0067355D01*
X0030395Y0066700D01*
X0032105Y0066700D01*
X0033686Y0067355D01*
X0034895Y0068564D01*
X0035550Y0070145D01*
X0035550Y0077855D01*
X0034895Y0079436D01*
X0033686Y0080645D01*
X0032105Y0081300D01*
X0030395Y0081300D01*
X0028814Y0080645D01*
X0028050Y0079881D01*
X0028050Y0082629D01*
X0044450Y0099029D01*
X0044450Y0092645D01*
X0045105Y0091064D01*
X0046314Y0089855D01*
X0047246Y0089469D01*
X0057509Y0079205D01*
X0056950Y0077855D01*
X0056950Y0070145D01*
X0057605Y0068564D01*
X0058814Y0067355D01*
X0060395Y0066700D01*
X0061325Y0066700D01*
X0061325Y0041610D01*
X0061244Y0040950D01*
X0059412Y0040950D01*
X0058651Y0040188D01*
X0058651Y0032812D01*
X0059412Y0032050D01*
X0065607Y0032050D01*
X0066250Y0032693D01*
X0066893Y0032050D01*
X0068190Y0032050D01*
X0068190Y0030950D01*
X0066893Y0030950D01*
X0066250Y0030307D01*
X0065607Y0030950D01*
X0059412Y0030950D01*
X0058651Y0030188D01*
X0058651Y0029000D01*
X0049655Y0029000D01*
X0040442Y0036677D01*
X0041312Y0035952D02*
X0058651Y0035952D01*
X0058651Y0034954D02*
X0042510Y0034954D01*
X0043709Y0033955D02*
X0058651Y0033955D01*
X0058651Y0032957D02*
X0044907Y0032957D01*
X0046105Y0031958D02*
X0068190Y0031958D01*
X0068190Y0030960D02*
X0047303Y0030960D01*
X0048502Y0029961D02*
X0058651Y0029961D01*
X0062500Y0026500D02*
X0062510Y0026500D01*
X0058651Y0024000D02*
X0058651Y0022812D01*
X0059412Y0022050D01*
X0060000Y0022050D01*
X0060000Y0021137D01*
X0058814Y0020645D01*
X0057605Y0019436D01*
X0056950Y0017855D01*
X0056950Y0010145D01*
X0057605Y0008564D01*
X0057669Y0008500D01*
X0054831Y0008500D01*
X0054895Y0008564D01*
X0055550Y0010145D01*
X0055550Y0017855D01*
X0054895Y0019436D01*
X0053686Y0020645D01*
X0052105Y0021300D01*
X0050395Y0021300D01*
X0048814Y0020645D01*
X0047605Y0019436D01*
X0046950Y0017855D01*
X0046950Y0010145D01*
X0047605Y0008564D01*
X0047669Y0008500D01*
X0044831Y0008500D01*
X0044895Y0008564D01*
X0045550Y0010145D01*
X0045550Y0017855D01*
X0044895Y0019436D01*
X0043686Y0020645D01*
X0042105Y0021300D01*
X0040395Y0021300D01*
X0038814Y0020645D01*
X0037982Y0019813D01*
X0033096Y0024700D01*
X0037605Y0024700D01*
X0039186Y0025355D01*
X0040395Y0026564D01*
X0041050Y0028145D01*
X0041050Y0029662D01*
X0047062Y0024652D01*
X0047334Y0024381D01*
X0047442Y0024336D01*
X0047532Y0024261D01*
X0047898Y0024147D01*
X0048253Y0024000D01*
X0048370Y0024000D01*
X0048481Y0023965D01*
X0048863Y0024000D01*
X0058651Y0024000D01*
X0058651Y0023970D02*
X0048536Y0023970D01*
X0048465Y0023970D02*
X0033825Y0023970D01*
X0034824Y0022972D02*
X0058651Y0022972D01*
X0060000Y0021973D02*
X0035822Y0021973D01*
X0036821Y0020975D02*
X0039609Y0020975D01*
X0038145Y0019976D02*
X0037819Y0019976D01*
X0042891Y0020975D02*
X0049609Y0020975D01*
X0048145Y0019976D02*
X0044355Y0019976D01*
X0045085Y0018978D02*
X0047415Y0018978D01*
X0047001Y0017979D02*
X0045499Y0017979D01*
X0045550Y0016981D02*
X0046950Y0016981D01*
X0046950Y0015982D02*
X0045550Y0015982D01*
X0045550Y0014984D02*
X0046950Y0014984D01*
X0046950Y0013985D02*
X0045550Y0013985D01*
X0045550Y0012987D02*
X0046950Y0012987D01*
X0046950Y0011988D02*
X0045550Y0011988D01*
X0045550Y0010990D02*
X0046950Y0010990D01*
X0047014Y0009991D02*
X0045486Y0009991D01*
X0045073Y0008993D02*
X0047427Y0008993D01*
X0055073Y0008993D02*
X0057427Y0008993D01*
X0057014Y0009991D02*
X0055486Y0009991D01*
X0055550Y0010990D02*
X0056950Y0010990D01*
X0056950Y0011988D02*
X0055550Y0011988D01*
X0055550Y0012987D02*
X0056950Y0012987D01*
X0056950Y0013985D02*
X0055550Y0013985D01*
X0055550Y0014984D02*
X0056950Y0014984D01*
X0056950Y0015982D02*
X0055550Y0015982D01*
X0055550Y0016981D02*
X0056950Y0016981D01*
X0057001Y0017979D02*
X0055499Y0017979D01*
X0055085Y0018978D02*
X0057415Y0018978D01*
X0058145Y0019976D02*
X0054355Y0019976D01*
X0052891Y0020975D02*
X0059609Y0020975D01*
X0065000Y0020975D02*
X0068190Y0020975D01*
X0068190Y0020021D02*
X0068190Y0022050D01*
X0066893Y0022050D01*
X0066250Y0022693D01*
X0065607Y0022050D01*
X0065000Y0022050D01*
X0065000Y0019183D01*
X0065550Y0017855D01*
X0065550Y0010145D01*
X0064895Y0008564D01*
X0064831Y0008500D01*
X0067669Y0008500D01*
X0067605Y0008564D01*
X0066950Y0010145D01*
X0066950Y0017855D01*
X0067605Y0019436D01*
X0068190Y0020021D01*
X0068145Y0019976D02*
X0065000Y0019976D01*
X0065085Y0018978D02*
X0067415Y0018978D01*
X0067001Y0017979D02*
X0065499Y0017979D01*
X0065550Y0016981D02*
X0066950Y0016981D01*
X0066950Y0015982D02*
X0065550Y0015982D01*
X0065550Y0014984D02*
X0066950Y0014984D01*
X0066950Y0013985D02*
X0065550Y0013985D01*
X0065550Y0012987D02*
X0066950Y0012987D01*
X0066950Y0011988D02*
X0065550Y0011988D01*
X0065550Y0010990D02*
X0066950Y0010990D01*
X0067014Y0009991D02*
X0065486Y0009991D01*
X0065073Y0008993D02*
X0067427Y0008993D01*
X0075073Y0008993D02*
X0077427Y0008993D01*
X0077014Y0009991D02*
X0075486Y0009991D01*
X0075550Y0010990D02*
X0076950Y0010990D01*
X0076950Y0011988D02*
X0075550Y0011988D01*
X0075550Y0012987D02*
X0076950Y0012987D01*
X0076950Y0013985D02*
X0075550Y0013985D01*
X0075550Y0014984D02*
X0076950Y0014984D01*
X0076950Y0015982D02*
X0075550Y0015982D01*
X0075550Y0016981D02*
X0076950Y0016981D01*
X0077001Y0017979D02*
X0075499Y0017979D01*
X0075085Y0018978D02*
X0077415Y0018978D01*
X0078145Y0019976D02*
X0074355Y0019976D01*
X0072891Y0020975D02*
X0079609Y0020975D01*
X0082891Y0020975D02*
X0083999Y0020975D01*
X0084695Y0021973D02*
X0071790Y0021973D01*
X0073849Y0022972D02*
X0085391Y0022972D01*
X0086087Y0023970D02*
X0073849Y0023970D01*
X0073849Y0024969D02*
X0086783Y0024969D01*
X0087479Y0025967D02*
X0073849Y0025967D01*
X0073849Y0026966D02*
X0088175Y0026966D01*
X0088870Y0027964D02*
X0073849Y0027964D01*
X0073849Y0028963D02*
X0089566Y0028963D01*
X0090262Y0029961D02*
X0073849Y0029961D01*
X0071790Y0030960D02*
X0090958Y0030960D01*
X0091563Y0031958D02*
X0071790Y0031958D01*
X0069990Y0036500D02*
X0069990Y0026500D01*
X0069990Y0015260D01*
X0071250Y0014000D01*
X0081250Y0014000D02*
X0081750Y0014600D01*
X0093250Y0031100D01*
X0089083Y0021973D02*
X0124702Y0021973D01*
X0124036Y0020975D02*
X0122891Y0020975D01*
X0147139Y0020975D02*
X0149609Y0020975D01*
X0147623Y0021973D02*
X0154834Y0021973D01*
X0154232Y0020975D02*
X0152891Y0020975D01*
X0156650Y0021500D02*
X0151950Y0013700D01*
X0151250Y0014000D01*
X0089609Y0020975D02*
X0088387Y0020975D01*
X0088145Y0019976D02*
X0087691Y0019976D01*
X0087415Y0018978D02*
X0086995Y0018978D01*
X0087001Y0017979D02*
X0086299Y0017979D01*
X0086950Y0016981D02*
X0085603Y0016981D01*
X0085550Y0015982D02*
X0086950Y0015982D01*
X0086950Y0014984D02*
X0085550Y0014984D01*
X0085550Y0013985D02*
X0086950Y0013985D01*
X0086950Y0012987D02*
X0085550Y0012987D01*
X0085550Y0011988D02*
X0086950Y0011988D01*
X0086950Y0010990D02*
X0085550Y0010990D01*
X0085486Y0009991D02*
X0087014Y0009991D01*
X0087427Y0008993D02*
X0085073Y0008993D01*
X0068190Y0021973D02*
X0065000Y0021973D01*
X0046682Y0024969D02*
X0038254Y0024969D01*
X0039798Y0025967D02*
X0045484Y0025967D01*
X0044286Y0026966D02*
X0040562Y0026966D01*
X0040975Y0027964D02*
X0043088Y0027964D01*
X0041890Y0028963D02*
X0041050Y0028963D01*
X0036685Y0033300D02*
X0029895Y0033300D01*
X0028314Y0032645D01*
X0028050Y0032381D01*
X0028050Y0035619D01*
X0028314Y0035355D01*
X0029895Y0034700D01*
X0035005Y0034700D01*
X0036685Y0033300D01*
X0035898Y0033955D02*
X0028050Y0033955D01*
X0028050Y0032957D02*
X0029066Y0032957D01*
X0029282Y0034954D02*
X0028050Y0034954D01*
X0040969Y0037949D02*
X0058651Y0037949D01*
X0058651Y0038948D02*
X0041050Y0038948D01*
X0041012Y0039946D02*
X0058651Y0039946D01*
X0059408Y0040945D02*
X0040599Y0040945D01*
X0039888Y0041943D02*
X0061325Y0041943D01*
X0061325Y0042942D02*
X0038470Y0042942D01*
X0038182Y0044939D02*
X0061325Y0044939D01*
X0061325Y0045937D02*
X0039769Y0045937D01*
X0040549Y0046936D02*
X0061325Y0046936D01*
X0061325Y0047934D02*
X0040963Y0047934D01*
X0041050Y0048933D02*
X0061325Y0048933D01*
X0061325Y0049932D02*
X0041018Y0049932D01*
X0040605Y0050930D02*
X0061325Y0050930D01*
X0061325Y0051929D02*
X0039903Y0051929D01*
X0038506Y0052927D02*
X0061325Y0052927D01*
X0061325Y0053926D02*
X0028050Y0053926D01*
X0028050Y0054924D02*
X0029354Y0054924D01*
X0028994Y0052927D02*
X0028050Y0052927D01*
X0038146Y0054924D02*
X0061325Y0054924D01*
X0061325Y0055923D02*
X0039754Y0055923D01*
X0040543Y0056921D02*
X0061325Y0056921D01*
X0061325Y0057920D02*
X0040957Y0057920D01*
X0041050Y0058918D02*
X0061325Y0058918D01*
X0061325Y0059917D02*
X0041025Y0059917D01*
X0040611Y0060915D02*
X0061325Y0060915D01*
X0061325Y0061914D02*
X0039917Y0061914D01*
X0038542Y0062912D02*
X0061325Y0062912D01*
X0061325Y0063911D02*
X0028050Y0063911D01*
X0028050Y0064909D02*
X0061325Y0064909D01*
X0061325Y0065908D02*
X0028050Y0065908D01*
X0028050Y0066906D02*
X0029897Y0066906D01*
X0028264Y0067905D02*
X0028050Y0067905D01*
X0032603Y0066906D02*
X0039897Y0066906D01*
X0040395Y0066700D02*
X0042105Y0066700D01*
X0043686Y0067355D01*
X0044895Y0068564D01*
X0045550Y0070145D01*
X0045550Y0077855D01*
X0044895Y0079436D01*
X0043686Y0080645D01*
X0042105Y0081300D01*
X0040395Y0081300D01*
X0038814Y0080645D01*
X0037605Y0079436D01*
X0036950Y0077855D01*
X0036950Y0070145D01*
X0037605Y0068564D01*
X0038814Y0067355D01*
X0040395Y0066700D01*
X0042603Y0066906D02*
X0049897Y0066906D01*
X0050395Y0066700D02*
X0048814Y0067355D01*
X0047605Y0068564D01*
X0046950Y0070145D01*
X0046950Y0077855D01*
X0047605Y0079436D01*
X0048814Y0080645D01*
X0050395Y0081300D01*
X0052105Y0081300D01*
X0053686Y0080645D01*
X0054895Y0079436D01*
X0055550Y0077855D01*
X0055550Y0070145D01*
X0054895Y0068564D01*
X0053686Y0067355D01*
X0052105Y0066700D01*
X0050395Y0066700D01*
X0052603Y0066906D02*
X0059897Y0066906D01*
X0058264Y0067905D02*
X0054236Y0067905D01*
X0055036Y0068903D02*
X0057464Y0068903D01*
X0057051Y0069902D02*
X0055449Y0069902D01*
X0055550Y0070900D02*
X0056950Y0070900D01*
X0056950Y0071899D02*
X0055550Y0071899D01*
X0055550Y0072897D02*
X0056950Y0072897D01*
X0056950Y0073896D02*
X0055550Y0073896D01*
X0055550Y0074894D02*
X0056950Y0074894D01*
X0056950Y0075893D02*
X0055550Y0075893D01*
X0055550Y0076891D02*
X0056950Y0076891D01*
X0056964Y0077890D02*
X0055536Y0077890D01*
X0055122Y0078888D02*
X0057378Y0078888D01*
X0056828Y0079887D02*
X0054444Y0079887D01*
X0053106Y0080885D02*
X0055829Y0080885D01*
X0054831Y0081884D02*
X0028050Y0081884D01*
X0028050Y0080885D02*
X0029394Y0080885D01*
X0028056Y0079887D02*
X0028050Y0079887D01*
X0033106Y0080885D02*
X0039394Y0080885D01*
X0038056Y0079887D02*
X0034444Y0079887D01*
X0035122Y0078888D02*
X0037378Y0078888D01*
X0036964Y0077890D02*
X0035536Y0077890D01*
X0035550Y0076891D02*
X0036950Y0076891D01*
X0036950Y0075893D02*
X0035550Y0075893D01*
X0035550Y0074894D02*
X0036950Y0074894D01*
X0036950Y0073896D02*
X0035550Y0073896D01*
X0035550Y0072897D02*
X0036950Y0072897D01*
X0036950Y0071899D02*
X0035550Y0071899D01*
X0035550Y0070900D02*
X0036950Y0070900D01*
X0037051Y0069902D02*
X0035449Y0069902D01*
X0035036Y0068903D02*
X0037464Y0068903D01*
X0038264Y0067905D02*
X0034236Y0067905D01*
X0028958Y0062912D02*
X0028050Y0062912D01*
X0044236Y0067905D02*
X0048264Y0067905D01*
X0047464Y0068903D02*
X0045036Y0068903D01*
X0045449Y0069902D02*
X0047051Y0069902D01*
X0046950Y0070900D02*
X0045550Y0070900D01*
X0045550Y0071899D02*
X0046950Y0071899D01*
X0046950Y0072897D02*
X0045550Y0072897D01*
X0045550Y0073896D02*
X0046950Y0073896D01*
X0046950Y0074894D02*
X0045550Y0074894D01*
X0045550Y0075893D02*
X0046950Y0075893D01*
X0046950Y0076891D02*
X0045550Y0076891D01*
X0045536Y0077890D02*
X0046964Y0077890D01*
X0047378Y0078888D02*
X0045122Y0078888D01*
X0044444Y0079887D02*
X0048056Y0079887D01*
X0049394Y0080885D02*
X0043106Y0080885D01*
X0050837Y0085878D02*
X0031298Y0085878D01*
X0030300Y0084879D02*
X0051835Y0084879D01*
X0052834Y0083881D02*
X0029301Y0083881D01*
X0028303Y0082882D02*
X0053832Y0082882D01*
X0049838Y0086876D02*
X0032297Y0086876D01*
X0033296Y0087875D02*
X0048840Y0087875D01*
X0047841Y0088873D02*
X0034294Y0088873D01*
X0035293Y0089872D02*
X0046297Y0089872D01*
X0045298Y0090870D02*
X0036291Y0090870D01*
X0037290Y0091869D02*
X0044771Y0091869D01*
X0044450Y0092868D02*
X0038288Y0092868D01*
X0039287Y0093866D02*
X0044450Y0093866D01*
X0044450Y0094865D02*
X0040285Y0094865D01*
X0041284Y0095863D02*
X0044450Y0095863D01*
X0044450Y0096862D02*
X0042282Y0096862D01*
X0043281Y0097860D02*
X0044450Y0097860D01*
X0044450Y0098859D02*
X0044279Y0098859D01*
X0041185Y0100856D02*
X0033534Y0100856D01*
X0033534Y0099857D02*
X0040187Y0099857D01*
X0039188Y0098859D02*
X0033247Y0098859D01*
X0032800Y0097860D02*
X0038189Y0097860D01*
X0037191Y0096862D02*
X0031802Y0096862D01*
X0032077Y0095863D02*
X0036192Y0095863D01*
X0035194Y0094865D02*
X0032948Y0094865D01*
X0033361Y0093866D02*
X0034195Y0093866D01*
X0026962Y0096500D02*
X0026564Y0096335D01*
X0026175Y0095946D01*
X0026175Y0097054D01*
X0026564Y0096665D01*
X0026962Y0096500D01*
X0026367Y0096862D02*
X0026175Y0096862D01*
X0033314Y0101854D02*
X0042184Y0101854D01*
X0043182Y0102853D02*
X0032900Y0102853D01*
X0031963Y0103851D02*
X0044181Y0103851D01*
X0045179Y0104850D02*
X0030059Y0104850D01*
X0030644Y0105848D02*
X0046178Y0105848D01*
X0047176Y0106847D02*
X0031642Y0106847D01*
X0032641Y0107845D02*
X0048175Y0107845D01*
X0049173Y0108844D02*
X0040514Y0108844D01*
X0044508Y0112838D02*
X0046705Y0112838D01*
X0046419Y0113836D02*
X0045507Y0113836D01*
X0053125Y0110250D02*
X0026250Y0083375D01*
X0026250Y0027125D01*
X0028750Y0024625D01*
X0030625Y0024625D01*
X0041250Y0014000D01*
X0031250Y0014000D02*
X0031250Y0019000D01*
X0065612Y0040945D02*
X0066888Y0040945D01*
X0064993Y0041943D02*
X0088902Y0041943D01*
X0061325Y0043940D02*
X0028050Y0043940D01*
X0028050Y0042942D02*
X0029030Y0042942D01*
X0029318Y0044939D02*
X0028050Y0044939D01*
X0066077Y0066906D02*
X0069897Y0066906D01*
X0068264Y0067905D02*
X0067075Y0067905D01*
X0067425Y0068903D02*
X0067464Y0068903D01*
X0028443Y0088113D02*
X0026175Y0085846D01*
X0026175Y0089180D01*
X0026564Y0088791D01*
X0028200Y0088113D01*
X0028443Y0088113D01*
X0028204Y0087875D02*
X0026175Y0087875D01*
X0026175Y0088873D02*
X0026481Y0088873D01*
X0026175Y0086876D02*
X0027206Y0086876D01*
X0026207Y0085878D02*
X0026175Y0085878D01*
X0061203Y0089872D02*
X0062832Y0089872D01*
X0081203Y0089872D02*
X0091297Y0089872D01*
X0090298Y0090870D02*
X0082202Y0090870D01*
X0082729Y0091869D02*
X0089771Y0091869D01*
X0089450Y0092868D02*
X0083050Y0092868D01*
X0083050Y0093866D02*
X0089450Y0093866D01*
X0089450Y0094865D02*
X0083050Y0094865D01*
X0083050Y0095863D02*
X0089450Y0095863D01*
X0089450Y0096862D02*
X0083050Y0096862D01*
X0083050Y0097860D02*
X0089450Y0097860D01*
X0089450Y0098859D02*
X0083050Y0098859D01*
X0083050Y0099857D02*
X0089450Y0099857D01*
X0089657Y0100856D02*
X0082843Y0100856D01*
X0082429Y0101854D02*
X0090071Y0101854D01*
X0091022Y0102853D02*
X0082388Y0102853D01*
X0057493Y0112050D02*
X0053944Y0112050D01*
X0055018Y0113124D01*
X0055018Y0116687D01*
X0053255Y0118450D01*
X0058182Y0118450D01*
X0056419Y0116687D01*
X0056419Y0113124D01*
X0057493Y0112050D01*
X0056705Y0112838D02*
X0054732Y0112838D01*
X0055018Y0113836D02*
X0056419Y0113836D01*
X0056419Y0114835D02*
X0055018Y0114835D01*
X0055018Y0115833D02*
X0056419Y0115833D01*
X0056564Y0116832D02*
X0054873Y0116832D01*
X0053875Y0117830D02*
X0057562Y0117830D01*
X0056720Y0122823D02*
X0054717Y0122823D01*
X0055018Y0123821D02*
X0056419Y0123821D01*
X0056419Y0124820D02*
X0055018Y0124820D01*
X0055018Y0125818D02*
X0056419Y0125818D01*
X0056549Y0126817D02*
X0054888Y0126817D01*
X0053890Y0127815D02*
X0057547Y0127815D01*
X0058546Y0128814D02*
X0052891Y0128814D01*
X0062891Y0128814D02*
X0068546Y0128814D01*
X0067547Y0127815D02*
X0063890Y0127815D01*
X0064888Y0126817D02*
X0066549Y0126817D01*
X0066419Y0125818D02*
X0065018Y0125818D01*
X0065018Y0124820D02*
X0066419Y0124820D01*
X0066419Y0123821D02*
X0065018Y0123821D01*
X0064717Y0122823D02*
X0066720Y0122823D01*
X0073890Y0127815D02*
X0074450Y0127815D01*
X0075393Y0128814D02*
X0072891Y0128814D01*
X0028473Y0130366D02*
X0026140Y0129019D01*
X0024203Y0127082D01*
X0023250Y0125431D01*
X0023250Y0130366D01*
X0028473Y0130366D01*
X0027514Y0129812D02*
X0023250Y0129812D01*
X0023250Y0128814D02*
X0025935Y0128814D01*
X0024936Y0127815D02*
X0023250Y0127815D01*
X0023250Y0126817D02*
X0024050Y0126817D01*
X0023473Y0125818D02*
X0023250Y0125818D01*
X0023250Y0115955D02*
X0023250Y0103546D01*
X0030239Y0110534D01*
X0028513Y0110997D01*
X0026140Y0112366D01*
X0024203Y0114304D01*
X0023250Y0115955D01*
X0023250Y0115833D02*
X0023320Y0115833D01*
X0023250Y0114835D02*
X0023896Y0114835D01*
X0023250Y0113836D02*
X0024671Y0113836D01*
X0025669Y0112838D02*
X0023250Y0112838D01*
X0023250Y0111839D02*
X0027054Y0111839D01*
X0029095Y0110841D02*
X0023250Y0110841D01*
X0023250Y0109842D02*
X0029547Y0109842D01*
X0028548Y0108844D02*
X0023250Y0108844D01*
X0023250Y0107845D02*
X0027550Y0107845D01*
X0026551Y0106847D02*
X0023250Y0106847D01*
X0023250Y0105848D02*
X0025553Y0105848D01*
X0024554Y0104850D02*
X0023250Y0104850D01*
X0023250Y0103851D02*
X0023556Y0103851D01*
X0113106Y0080885D02*
X0115075Y0080885D01*
X0115075Y0079887D02*
X0114444Y0079887D01*
X0125550Y0072897D02*
X0126950Y0072897D01*
X0126950Y0071899D02*
X0125550Y0071899D01*
X0125550Y0070900D02*
X0126950Y0070900D01*
X0127051Y0069902D02*
X0125449Y0069902D01*
X0125036Y0068903D02*
X0127464Y0068903D01*
X0128264Y0067905D02*
X0124236Y0067905D01*
X0122603Y0066906D02*
X0129897Y0066906D01*
X0131250Y0074000D02*
X0143850Y0086600D01*
D16*
X0161250Y0074000D02*
X0161250Y0071500D01*
X0166250Y0064000D01*
X0186250Y0064000D01*
X0193750Y0072484D01*
X0203750Y0072484D01*
X0208750Y0066500D01*
X0208750Y0064000D01*
X0208750Y0066500D02*
X0214734Y0072484D01*
X0224734Y0072484D01*
X0227687Y0075437D01*
X0227687Y0079000D01*
X0204065Y0079000D02*
X0204065Y0096500D01*
X0268750Y0064000D02*
X0268750Y0014000D01*
X0090625Y0114625D02*
X0078750Y0102750D01*
X0078750Y0096500D01*
X0061250Y0079000D02*
X0048750Y0091500D01*
X0048750Y0096500D01*
X0061250Y0079000D02*
X0061250Y0074000D01*
X0033750Y0039000D02*
X0048750Y0026500D01*
X0062500Y0026500D01*
X0062500Y0015250D01*
X0061250Y0014000D01*
D17*
X0091250Y0039625D03*
X0101250Y0039625D03*
X0076350Y0046300D03*
M02*
